<svg width="108" height="108" viewBox="0 0 108 108" fill="none" xmlns="http://www.w3.org/2000/svg">
<ellipse cx="53.5337" cy="53.5347" rx="53.5337" ry="53.5347" fill="#EFEFF7"/>
<line y1="-1" x2="113.291" y2="-1" transform="matrix(0.7071 0.707113 -0.7071 0.707113 13.0947 13.0952)" stroke="#5C6497" stroke-width="2"/>
<line y1="-1" x2="53.4219" y2="-1" transform="matrix(0.677674 -0.735362 0.73535 0.677688 53.1465 53.1494)" stroke="#5C6497" stroke-width="2"/>
<path d="M42.0599 66.3047C41.0649 66.3047 40.3249 66.0647 39.8399 65.5847C39.3599 65.0997 39.1199 64.3597 39.1199 63.3647V61.6397C39.1199 60.6397 39.3599 59.8997 39.8399 59.4197C40.3249 58.9397 41.0649 58.6997 42.0599 58.6997H44.9699V56.3747C44.9699 55.9547 45.1799 55.7447 45.5999 55.7447C46.0199 55.7447 46.2299 55.9547 46.2299 56.3747V65.6747C46.2299 66.0947 46.0199 66.3047 45.5999 66.3047C45.1799 66.3047 44.9699 66.0947 44.9699 65.6747V65.5697C44.7349 65.8097 44.4274 65.9922 44.0474 66.1172C43.6674 66.2422 43.1949 66.3047 42.6299 66.3047H42.0599ZM42.0599 65.0447H42.6299C43.2899 65.0447 43.8449 64.9597 44.2949 64.7897C44.7449 64.6197 44.9699 64.3597 44.9699 64.0097V59.9597H42.0599C41.4099 59.9597 40.9674 60.0797 40.7324 60.3197C40.4974 60.5547 40.3799 60.9947 40.3799 61.6397V63.3647C40.3799 64.0147 40.4974 64.4572 40.7324 64.6922C40.9724 64.9272 41.4149 65.0447 42.0599 65.0447Z" fill="#5C6497"/>
<path d="M73.1676 40.0381C72.8706 39.7411 72.8706 39.4441 73.1676 39.1471L77.6542 34.6605C77.9512 34.3635 78.2481 34.3635 78.5451 34.6605C78.8421 34.9575 78.8421 35.2545 78.5451 35.5515L78.1315 35.9651C78.6229 35.8909 79.102 35.9421 79.5687 36.1189C80.0389 36.2992 80.4826 36.598 80.8998 37.0152C81.1968 37.3122 81.1968 37.6092 80.8998 37.9061C80.6028 38.2031 80.3058 38.2031 80.0088 37.9061C79.3972 37.2945 78.8174 36.9409 78.2694 36.8455C77.7214 36.75 77.2529 36.8791 76.864 37.2326L74.0586 40.0381C73.7616 40.3351 73.4646 40.3351 73.1676 40.0381Z" fill="#5C6497"/>
<circle cx="53.5" cy="51.5" r="2.5" fill="#5C6497"/>
</svg>
