<svg width="146" height="184" viewBox="0 0 146 184" fill="none" xmlns="http://www.w3.org/2000/svg">
<path d="M73.5 2L73 138L28.5 173.5" stroke="#ADABD2" stroke-width="2" stroke-linejoin="round"/>
<path d="M73.5 1.5L28.5 174" stroke="#ADABD2" stroke-width="2" stroke-linejoin="round"/>
<path d="M145.5 140C145.5 151.625 137.497 162.239 124.365 169.975C111.244 177.704 93.085 182.5 73 182.5C52.915 182.5 34.7559 177.704 21.635 169.975C8.50259 162.239 0.5 151.625 0.5 140C0.5 128.375 8.50259 117.761 21.635 110.025C34.7559 102.296 52.915 97.5 73 97.5C93.085 97.5 111.244 102.296 124.365 110.025C137.497 117.761 145.5 128.375 145.5 140Z" stroke="#EFEFF7"/>
<path d="M41.333 163.441C40.5811 157.823 38.7671 156.615 33.9325 156.01" stroke="#ADABD2" stroke-width="2"/>
<path d="M67 11.688C72.1159 16.1384 74.5257 15.0132 79.658 11.6463" stroke="#ADABD2" stroke-width="2"/>
<path d="M64 17.3081C71.3539 23.555 74.6976 20.7466 81.5 16" stroke="#ADABD2" stroke-width="2"/>
<path d="M2.5 130L73.5 0.5L143.5 130" stroke="#EFEFF7" stroke-linejoin="round"/>
<path d="M80.34 31C79.836 31 79.461 30.877 79.215 30.631C78.969 30.385 78.846 30.01 78.846 29.506C78.846 29.002 78.9675 28.627 79.2105 28.381C79.4565 28.135 79.833 28.012 80.34 28.012H82.2435C82.2255 27.697 82.143 27.4825 81.996 27.3685C81.849 27.2515 81.597 27.193 81.24 27.193H80.718C80.418 27.193 80.1945 27.214 80.0475 27.256C79.9005 27.295 79.797 27.367 79.737 27.472C79.683 27.598 79.6275 27.685 79.5705 27.733C79.5135 27.781 79.428 27.805 79.314 27.805C79.188 27.805 79.089 27.7705 79.017 27.7015C78.945 27.6295 78.924 27.535 78.954 27.418C79.044 27.079 79.2315 26.8315 79.5165 26.6755C79.8045 26.5165 80.205 26.437 80.718 26.437H81.24C81.84 26.437 82.284 26.581 82.572 26.869C82.86 27.157 83.004 27.601 83.004 28.201V30.622C83.004 30.874 82.878 31 82.626 31C82.374 31 82.248 30.874 82.248 30.622V30.4195C81.927 30.8065 81.459 31 80.844 31H80.34ZM80.34 30.244H80.844C81.066 30.244 81.2745 30.2245 81.4695 30.1855C81.6645 30.1435 81.831 30.0685 81.969 29.9605C82.11 29.8525 82.203 29.698 82.248 29.497V28.768H80.34C80.043 28.768 79.845 28.8175 79.746 28.9165C79.65 29.0155 79.602 29.212 79.602 29.506C79.602 29.803 79.65 30.001 79.746 30.1C79.845 30.196 80.043 30.244 80.34 30.244Z" fill="white"/>
<path d="M43.314 151C43.062 151 42.936 150.874 42.936 150.622V145.042C42.936 144.79 43.062 144.664 43.314 144.664C43.566 144.664 43.692 144.79 43.692 145.042V146.918C43.848 146.759 44.043 146.639 44.277 146.558C44.511 146.477 44.784 146.437 45.096 146.437H45.438C46.038 146.437 46.482 146.581 46.77 146.869C47.058 147.157 47.202 147.601 47.202 148.201V149.236C47.202 149.833 47.058 150.277 46.77 150.568C46.482 150.856 46.038 151 45.438 151H45.096C44.784 151 44.511 150.959 44.277 150.878C44.043 150.797 43.848 150.679 43.692 150.523V150.622C43.692 150.874 43.566 151 43.314 151ZM45.096 150.244H45.438C45.831 150.244 46.0965 150.173 46.2345 150.032C46.3755 149.888 46.446 149.623 46.446 149.236V148.201C46.446 147.808 46.374 147.542 46.23 147.404C46.089 147.263 45.825 147.193 45.438 147.193H45.096C44.7 147.193 44.367 147.244 44.097 147.346C43.827 147.445 43.692 147.601 43.692 147.814V149.623C43.692 149.833 43.827 149.989 44.097 150.091C44.367 150.193 44.7 150.244 45.096 150.244Z" fill="white"/>
<path d="M82.8 86C82.535 86 82.4025 85.8675 82.4025 85.6025V75.9875C82.4025 75.7275 82.535 75.5975 82.8 75.5975C83.06 75.5975 83.19 75.7275 83.19 75.9875V80.0225C83.665 79.2825 84.525 78.9125 85.77 78.9125H86.19C87.125 78.9125 87.8075 79.13 88.2375 79.565C88.6725 79.995 88.89 80.6775 88.89 81.6125V85.6025C88.89 85.8675 88.76 86 88.5 86C88.235 86 88.1025 85.8675 88.1025 85.6025V81.6125C88.1025 80.8975 87.96 80.4 87.675 80.12C87.395 79.84 86.9 79.7 86.19 79.7H85.77C84.995 79.7 84.385 79.8225 83.94 80.0675C83.495 80.3125 83.245 80.695 83.19 81.215V85.6025C83.19 85.8675 83.06 86 82.8 86Z" fill="#EFEFF7"/>
<path d="M31.465 128C30.755 128 30.2325 127.835 29.8975 127.505C29.5675 127.175 29.4025 126.657 29.4025 125.952V117.987C29.4025 117.727 29.535 117.597 29.8 117.597C30.06 117.597 30.19 117.727 30.19 117.987V125.952C30.19 126.437 30.28 126.77 30.46 126.95C30.64 127.125 30.9725 127.212 31.4575 127.212C31.7275 127.212 31.8625 127.342 31.8625 127.602C31.8675 127.867 31.735 128 31.465 128Z" fill="#EFEFF7"/>
<path d="M62.8 164C62.535 164 62.4025 163.867 62.4025 163.602V157.302C62.4025 157.042 62.535 156.912 62.8 156.912C63.06 156.912 63.19 157.042 63.19 157.302V158.457C63.45 157.957 63.825 157.575 64.315 157.31C64.81 157.045 65.395 156.912 66.07 156.912C66.335 156.912 66.4675 157.042 66.4675 157.302C66.4675 157.567 66.335 157.7 66.07 157.7C65.18 157.7 64.49 157.902 64 158.307C63.51 158.707 63.24 159.28 63.19 160.025V163.602C63.19 163.867 63.06 164 62.8 164Z" fill="#EFEFF7"/>
</svg>
