<svg width="118" height="96" viewBox="0 0 118 96" fill="none" xmlns="http://www.w3.org/2000/svg">
<path d="M43.9338 1L95.5 95L23 22.4857" stroke="#ADABD2" stroke-width="2"/>
<path d="M22 22.5909V95.4602M22 22.5909H95.4091M22 22.5909L43.0511 1M22 95.4602H95.4091M22 95.4602L43.0511 74.4091M95.4091 95.4602V22.5909M95.4091 95.4602L117 74.4091M95.4091 22.5909L117 1M43.0511 1H117M43.0511 1V74.4091M117 1V74.4091M117 74.4091H43.0511" stroke="#EFEFF7"/>
<path d="M53.2349 66.0219C52.7043 66.0166 52.3109 65.8846 52.0549 65.626C51.8015 65.3648 51.6775 64.9688 51.6828 64.4382L51.6921 63.5182C51.6975 62.9849 51.8295 62.5916 52.088 62.3382C52.3493 62.0848 52.7452 61.9608 53.2758 61.9661L54.8278 61.9818L54.8403 60.7418C54.8425 60.5179 54.9557 60.407 55.1796 60.4093C55.4036 60.4115 55.5145 60.5246 55.5122 60.7486L55.4622 65.7084C55.4599 65.9324 55.3468 66.0432 55.1228 66.041C54.8988 66.0387 54.788 65.9256 54.7902 65.7016L54.7908 65.6456C54.6642 65.7723 54.4992 65.868 54.2959 65.9326C54.0925 65.9972 53.8402 66.028 53.5389 66.025L53.2349 66.0219ZM53.2417 65.35L53.5457 65.353C53.8977 65.3566 54.1941 65.3142 54.435 65.226C54.6759 65.1377 54.7973 65.0003 54.7992 64.8136L54.821 62.6538L53.2691 62.6381C52.9224 62.6346 52.6858 62.6962 52.5592 62.8229C52.4326 62.947 52.3675 63.181 52.3641 63.525L52.3548 64.445C52.3513 64.7916 52.4116 65.0282 52.5356 65.1548C52.6624 65.2814 52.8977 65.3465 53.2417 65.35Z" fill="#EFEFF7"/>
<path d="M3.51 62C2.73 62 2.1575 61.82 1.7925 61.46C1.4325 61.095 1.2525 60.5225 1.2525 59.7425C1.2525 58.9625 1.435 58.39 1.8 58.025C2.165 57.66 2.735 57.4775 3.51 57.4775H6.9225C6.9125 56.8175 6.7625 56.3575 6.4725 56.0975C6.1875 55.8325 5.7 55.7 5.01 55.7H4.14C3.505 55.7 3.04 55.7675 2.745 55.9025C2.45 56.0375 2.2675 56.2675 2.1975 56.5925C2.1625 56.7175 2.115 56.81 2.055 56.87C2 56.925 1.91 56.9525 1.785 56.9525C1.655 56.9525 1.5525 56.9175 1.4775 56.8475C1.4075 56.7725 1.3825 56.6725 1.4025 56.5475C1.4675 55.9775 1.725 55.5625 2.175 55.3025C2.63 55.0425 3.285 54.9125 4.14 54.9125H5.01C5.945 54.9125 6.6275 55.13 7.0575 55.565C7.4925 55.995 7.71 56.6775 7.71 57.6125V61.6025C7.71 61.8675 7.58 62 7.32 62C7.055 62 6.9225 61.8675 6.9225 61.6025V60.86C6.4425 61.62 5.585 62 4.35 62H3.51ZM3.51 61.2125H4.35C4.835 61.2125 5.26 61.16 5.625 61.055C5.995 60.945 6.2925 60.77 6.5175 60.53C6.7425 60.29 6.8775 59.97 6.9225 59.57V58.265H3.51C2.955 58.265 2.57 58.3725 2.355 58.5875C2.145 58.7975 2.04 59.1825 2.04 59.7425C2.04 60.2975 2.145 60.6825 2.355 60.8975C2.57 61.1075 2.955 61.2125 3.51 61.2125Z" fill="#EFEFF7"/>
<path d="M73.195 50.0114C72.971 50.0092 72.8601 49.896 72.8624 49.6721L72.9103 44.9203C72.9126 44.6963 73.0257 44.5854 73.2497 44.5877L75.1776 44.6072C75.8736 44.6142 76.3839 44.7847 76.7085 45.1186C77.0359 45.4499 77.196 45.9636 77.189 46.6596L77.1753 48.0195C77.1682 48.7155 76.9991 49.2271 76.6678 49.5544C76.3391 49.8791 75.8242 50.038 75.1229 50.0309L73.195 50.0114ZM73.5377 49.3429L75.1297 49.3589C75.471 49.3624 75.7407 49.3237 75.9389 49.2431C76.1397 49.1598 76.2825 49.0199 76.3671 48.8234C76.4545 48.6242 76.4999 48.354 76.5033 48.0127L76.517 46.6528C76.5204 46.3141 76.4805 46.0457 76.3971 45.8475C76.3165 45.6467 76.1766 45.5026 75.9775 45.4153C75.781 45.3279 75.5121 45.2826 75.1708 45.2791L73.5789 45.2631L73.5377 49.3429Z" fill="#EFEFF7"/>
</svg>
