<svg width="152" height="195" viewBox="0 0 152 195" fill="none" xmlns="http://www.w3.org/2000/svg">
<path d="M12 22.5L140 66.4045L138.293 174M12 22.5V128.457L138.293 174M12 22.5L138.293 174" stroke="#ADABD2" stroke-width="2"/>
<path d="M0.5 43.5V150.5" stroke="#EFEFF7"/>
<path d="M151.5 42.5V151" stroke="#EFEFF7"/>
<path d="M25 75L26.6897 182L74 150.697" stroke="#ADABD2" stroke-width="2"/>
<path d="M151.5 43.5C151.5 55.2557 143.171 65.9959 129.492 73.8252C115.827 81.6465 96.9158 86.5 76 86.5C55.0842 86.5 36.1731 81.6465 22.5083 73.8252C8.82945 65.9959 0.5 55.2557 0.5 43.5C0.5 31.7443 8.82945 21.0041 22.5083 13.1748C36.1731 5.35349 55.0842 0.5 76 0.5C96.9158 0.5 115.827 5.35349 129.492 13.1748C143.171 21.0041 151.5 31.7443 151.5 43.5Z" stroke="#EFEFF7"/>
<path d="M151.5 151.5C151.5 163.256 143.171 173.996 129.492 181.825C115.827 189.647 96.9158 194.5 76 194.5C55.0842 194.5 36.1731 189.647 22.5083 181.825C8.82945 173.996 0.5 163.256 0.5 151.5C0.5 139.744 8.82945 129.004 22.5083 121.175C36.1731 113.353 55.0842 108.5 76 108.5C96.9158 108.5 115.827 113.353 129.492 121.175C143.171 129.004 151.5 139.744 151.5 151.5Z" stroke="#EFEFF7"/>
<path d="M115.908 133C114.973 133 114.288 132.782 113.853 132.347C113.418 131.912 113.2 131.227 113.2 130.292V128.612C113.2 127.677 113.418 126.995 113.853 126.565C114.288 126.13 114.973 125.912 115.908 125.912H119.05V122.987C119.05 122.727 119.183 122.597 119.448 122.597C119.708 122.597 119.838 122.727 119.838 122.987V132.602C119.838 132.867 119.708 133 119.448 133C119.183 133 119.05 132.867 119.05 132.602V131.957C118.835 132.302 118.52 132.562 118.105 132.737C117.69 132.912 117.148 133 116.478 133H115.908ZM115.908 132.212H116.478C117.258 132.212 117.88 132.09 118.345 131.845C118.815 131.595 119.05 131.222 119.05 130.727V126.7H115.908C115.193 126.7 114.693 126.842 114.408 127.127C114.128 127.407 113.988 127.902 113.988 128.612V130.292C113.988 131.007 114.128 131.507 114.408 131.792C114.693 132.072 115.193 132.212 115.908 132.212Z" fill="#EFEFF7"/>
<path d="M62.8 175C62.535 175 62.4025 174.867 62.4025 174.602V168.302C62.4025 168.042 62.535 167.912 62.8 167.912C63.06 167.912 63.19 168.042 63.19 168.302V169.457C63.45 168.957 63.825 168.575 64.315 168.31C64.81 168.045 65.395 167.912 66.07 167.912C66.335 167.912 66.4675 168.042 66.4675 168.302C66.4675 168.567 66.335 168.7 66.07 168.7C65.18 168.7 64.49 168.902 64 169.307C63.51 169.707 63.24 170.28 63.19 171.025V174.602C63.19 174.867 63.06 175 62.8 175Z" fill="#EFEFF7"/>
<path d="M2.56 122C2.33033 122 2.2155 121.885 2.2155 121.655L2.2155 113.322C2.2155 113.097 2.33033 112.984 2.56 112.984C2.78533 112.984 2.898 113.097 2.898 113.322L2.898 116.819C3.30967 116.178 4.055 115.857 5.134 115.857H5.498C6.30833 115.857 6.89983 116.046 7.2725 116.423C7.6495 116.796 7.838 117.387 7.838 118.197V121.655C7.838 121.885 7.72533 122 7.5 122C7.27033 122 7.1555 121.885 7.1555 121.655V118.197C7.1555 117.578 7.032 117.147 6.785 116.904C6.54233 116.661 6.11333 116.54 5.498 116.54H5.134C4.46233 116.54 3.93367 116.646 3.548 116.858C3.16233 117.071 2.94567 117.402 2.898 117.853L2.898 121.655C2.898 121.885 2.78533 122 2.56 122Z" fill="#EFEFF7"/>
</svg>
