<svg width="231" height="169" viewBox="0 0 231 169" fill="none" xmlns="http://www.w3.org/2000/svg">
<path d="M45.5 88.5L184 143" stroke="#ADABD2" stroke-width="2" stroke-linecap="round"/>
<path d="M181.905 88.4144C182.41 88.1908 182.638 87.6002 182.414 87.0952C182.191 86.5902 181.6 86.362 181.095 86.5856L181.905 88.4144ZM116.405 117.414L181.905 88.4144L181.095 86.5856L115.595 115.586L116.405 117.414Z" fill="#ADABD2"/>
<path d="M230.5 115.5C230.5 120.165 227.423 124.704 221.63 128.914C215.847 133.116 207.448 136.92 197.024 140.124C176.182 146.53 147.359 150.5 115.5 150.5C83.6411 150.5 54.8179 146.53 33.9761 140.124C23.5521 136.92 15.1528 133.116 9.37049 128.914C3.57716 124.704 0.5 120.165 0.5 115.5C0.5 110.835 3.57716 106.296 9.37049 102.086C15.1528 97.8844 23.5521 94.0796 33.9761 90.8756C54.8179 84.4697 83.6411 80.5 115.5 80.5C147.359 80.5 176.182 84.4697 197.024 90.8756C207.448 94.0796 215.847 97.8844 221.63 102.086C227.423 106.296 230.5 110.835 230.5 115.5Z" stroke="#EFEFF7"/>
<path d="M0.5 114C5.16667 78.006 33.4 1.81622 111 1.00888C208 -0.000293655 230.5 90.2706 230.5 115.5" stroke="#EFEFF7"/>
<path d="M97.9075 127C96.9725 127 96.2875 126.782 95.8525 126.347C95.4175 125.912 95.2 125.227 95.2 124.292V122.612C95.2 121.677 95.4175 120.995 95.8525 120.565C96.2875 120.13 96.9725 119.912 97.9075 119.912H101.05V116.987C101.05 116.727 101.183 116.597 101.448 116.597C101.708 116.597 101.838 116.727 101.838 116.987V126.602C101.838 126.867 101.708 127 101.448 127C101.183 127 101.05 126.867 101.05 126.602V125.957C100.835 126.302 100.52 126.562 100.105 126.737C99.69 126.912 99.1475 127 98.4775 127H97.9075ZM97.9075 126.212H98.4775C99.2575 126.212 99.88 126.09 100.345 125.845C100.815 125.595 101.05 125.222 101.05 124.727V120.7H97.9075C97.1925 120.7 96.6925 120.842 96.4075 121.127C96.1275 121.407 95.9875 121.902 95.9875 122.612V124.292C95.9875 125.007 96.1275 125.507 96.4075 125.792C96.6925 126.072 97.1925 126.212 97.9075 126.212Z" fill="#EFEFF7"/>
<path d="M136.8 99C136.535 99 136.403 98.8675 136.403 98.6025V92.3025C136.403 92.0425 136.535 91.9125 136.8 91.9125C137.06 91.9125 137.19 92.0425 137.19 92.3025V93.4575C137.45 92.9575 137.825 92.575 138.315 92.31C138.81 92.045 139.395 91.9125 140.07 91.9125C140.335 91.9125 140.468 92.0425 140.468 92.3025C140.468 92.5675 140.335 92.7 140.07 92.7C139.18 92.7 138.49 92.9025 138 93.3075C137.51 93.7075 137.24 94.28 137.19 95.025V98.6025C137.19 98.8675 137.06 99 136.8 99Z" fill="#EFEFF7"/>
<path d="M116.8 169C116.535 169 116.403 168.867 116.403 168.602V159.73C116.403 159.465 116.535 159.332 116.8 159.332H120.31C121.165 159.332 121.81 159.552 122.245 159.992C122.685 160.432 122.905 161.08 122.905 161.935V162.385C122.905 163.235 122.685 163.88 122.245 164.32C121.81 164.76 121.165 164.98 120.31 164.98H117.19V168.602C117.19 168.867 117.06 169 116.8 169ZM117.19 164.192H120.31C120.94 164.192 121.398 164.05 121.683 163.765C121.973 163.475 122.118 163.015 122.118 162.385V161.935C122.118 161.3 121.973 160.84 121.683 160.555C121.398 160.265 120.94 160.12 120.31 160.12H117.19V164.192Z" fill="#EFEFF7"/>
</svg>
