<svg width="279" height="186" viewBox="0 0 279 186" fill="none" xmlns="http://www.w3.org/2000/svg">
<path d="M212.531 54.5323C212.365 54.2084 212.444 53.9634 212.767 53.7973L217.661 51.2883C217.985 51.1222 218.23 51.2011 218.396 51.525C218.562 51.8489 218.483 52.0939 218.159 52.26L217.708 52.4914C218.133 52.5607 218.514 52.7303 218.852 53.0001C219.192 53.2738 219.479 53.6381 219.712 54.0931C219.878 54.417 219.8 54.662 219.476 54.8281C219.152 54.9942 218.907 54.9153 218.741 54.5914C218.399 53.9243 218.014 53.4786 217.588 53.2542C217.161 53.0299 216.74 53.0118 216.325 53.2002L213.266 54.7691C212.942 54.9351 212.697 54.8562 212.531 54.5323Z" fill="#5C6497"/>
<path d="M20.8418 144L90.2636 3.78955H278.526L209.104 144H20.8418Z" fill="#EFEFF7"/>
<path d="M35.8562 149.351C40.2319 147.906 40.6028 137.793 32.2023 137.855" stroke="#5C6497"/>
<path d="M198.595 130.533C192.609 128.854 182.523 139.383 191.973 145.642" stroke="#5C6497"/>
<path d="M203.296 136.414C199.688 133.983 191.956 140.442 196.859 146.677" stroke="#5C6497"/>
<path d="M216.493 130.644C218.213 124.327 204.341 120.135 197.416 130.644" stroke="#5C6497"/>
<path d="M214.483 136.865C215.968 132.341 207.716 128.784 202.122 136.415" stroke="#5C6497"/>
<path d="M213.2 143.288C214.098 140.908 209.896 137.229 207.011 140.855" stroke="#5C6497"/>
<path d="M208 141.118C205.9 139.68 200.328 143.449 203.166 147.114" stroke="#5C6497"/>
<path d="M80.528 16.9365C78.432 23.1393 108.043 23.5202 108.043 2.35146" stroke="#5C6497"/>
<path d="M81.121 15.067C79.3685 19.4954 103.337 12.9363 103.338 2.35281" stroke="#5C6497"/>
<path d="M76.4193 10.3621C74.6668 14.7905 98.065 10.5837 98.0661 0.000125027" stroke="#5C6497"/>
<path d="M37.2301 135.281C40.7573 132.027 35.4216 122.717 27.1206 126.511" stroke="#5C6497"/>
<path d="M251.052 1.89516C246.745 3.53276 247.4 16.5407 255.79 16.1058" stroke="#5C6497"/>
<path d="M264.315 11.3685C260.935 14.7748 265.317 24.3362 273.442 20.1784" stroke="#5C6497"/>
<path d="M130.736 53.0528C120.601 51.9002 110.45 78.0078 127.834 85.9493" stroke="#5C6497"/>
<path d="M134.742 57.7242C125.781 56.8031 117.563 76.6139 132.885 83.4" stroke="#5C6497"/>
<path d="M137.369 60.6317C131.684 62.5263 124.722 75.6923 136.421 80.5262" stroke="#5C6497"/>
<path d="M142.437 66.3166C133.58 69.1585 136.421 75.7898 140.211 79.5789" stroke="#5C6497"/>
<path d="M136.968 79.4277C136.17 86.2937 149.818 93.0078 155.071 81.4907" stroke="#5C6497"/>
<path d="M141.158 78.631C140.686 82.9398 149.301 85.8447 152.527 78.6311" stroke="#5C6497"/>
<path d="M159.991 68.1493C161.147 61.3345 147.871 53.914 142.021 65.1397" stroke="#5C6497"/>
<path d="M155.16 70.8683C155.857 66.5901 148.095 61.1732 144.496 68.2077" stroke="#5C6497"/>
<path d="M165.79 93.7894C176.345 94.3016 188.556 69.3131 170.527 62.5264" stroke="#5C6497"/>
<path d="M162 89.9998C170.867 90.4896 179.347 71.989 164.169 66.1462" stroke="#5C6497"/>
<path d="M160.104 87.1582C167.007 87.5389 171.919 71.8097 160.105 67.2627" stroke="#5C6497"/>
<path d="M153.904 81.1434C158.234 81.3536 162.477 73.343 155.082 70.5591" stroke="#5C6497"/>
<path d="M89.2527 129.721L101.237 129.622L100.988 145.822" stroke="#5C6497" stroke-width="0.5"/>
<path d="M225.325 74.0542L231.242 63.6321L245.138 71.9618" stroke="#5C6497" stroke-width="0.5"/>
<path d="M89.0527 3.78955L208.421 144" stroke="#5C6497"/>
<path d="M89.0527 1.89453L240.632 81.4735" stroke="#5C6497"/>
<path d="M20.8418 144L278.526 3.78955" stroke="#5C6497"/>
<path d="M89.0527 3.78955V147.79" stroke="#5C6497"/>
<path d="M3.51 69.9473C2.73 69.9473 2.1575 69.7673 1.7925 69.4073C1.4325 69.0423 1.2525 68.4698 1.2525 67.6898C1.2525 66.9098 1.435 66.3373 1.8 65.9723C2.165 65.6073 2.735 65.4248 3.51 65.4248H6.9225C6.9125 64.7648 6.7625 64.3048 6.4725 64.0448C6.1875 63.7798 5.7 63.6473 5.01 63.6473H4.14C3.505 63.6473 3.04 63.7148 2.745 63.8498C2.45 63.9848 2.2675 64.2148 2.1975 64.5398C2.1625 64.6648 2.115 64.7573 2.055 64.8173C2 64.8723 1.91 64.8998 1.785 64.8998C1.655 64.8998 1.5525 64.8648 1.4775 64.7948C1.4075 64.7198 1.3825 64.6198 1.4025 64.4948C1.4675 63.9248 1.725 63.5098 2.175 63.2498C2.63 62.9898 3.285 62.8598 4.14 62.8598H5.01C5.945 62.8598 6.6275 63.0773 7.0575 63.5123C7.4925 63.9423 7.71 64.6248 7.71 65.5598V69.5498C7.71 69.8148 7.58 69.9473 7.32 69.9473C7.055 69.9473 6.9225 69.8148 6.9225 69.5498V68.8073C6.4425 69.5673 5.585 69.9473 4.35 69.9473H3.51ZM3.51 69.1598H4.35C4.835 69.1598 5.26 69.1073 5.625 69.0023C5.995 68.8923 6.2925 68.7173 6.5175 68.4773C6.7425 68.2373 6.8775 67.9173 6.9225 67.5173V66.2123H3.51C2.955 66.2123 2.57 66.3198 2.355 66.5348C2.145 66.7448 2.04 67.1298 2.04 67.6898C2.04 68.2448 2.145 68.6298 2.355 68.8448C2.57 69.0548 2.955 69.1598 3.51 69.1598Z" fill="#EFEFF7"/>
<path d="M142.011 166.579C141.746 166.579 141.613 166.447 141.613 166.182V156.567C141.613 156.307 141.746 156.177 142.011 156.177C142.271 156.177 142.401 156.307 142.401 156.567V160.534C142.626 160.189 142.946 159.927 143.361 159.747C143.781 159.567 144.321 159.477 144.981 159.477H145.551C146.486 159.477 147.168 159.694 147.598 160.129C148.033 160.564 148.251 161.249 148.251 162.184V163.872C148.251 164.807 148.033 165.492 147.598 165.927C147.168 166.362 146.486 166.579 145.551 166.579H144.981C144.321 166.579 143.781 166.492 143.361 166.317C142.946 166.137 142.626 165.872 142.401 165.522V166.182C142.401 166.447 142.271 166.579 142.011 166.579ZM144.981 165.792H145.551C146.266 165.792 146.763 165.652 147.043 165.372C147.323 165.087 147.463 164.587 147.463 163.872V162.184C147.463 161.469 147.321 160.972 147.036 160.692C146.756 160.407 146.261 160.264 145.551 160.264H144.981C144.201 160.264 143.576 160.387 143.106 160.632C142.636 160.877 142.401 161.249 142.401 161.749V164.337C142.411 164.822 142.651 165.187 143.121 165.432C143.591 165.672 144.211 165.792 144.981 165.792Z" fill="#EFEFF7"/>
<path d="M183.761 23.4053C182.899 23.3962 182.26 23.1815 181.844 22.7611C181.432 22.3364 181.231 21.6929 181.24 20.8306L181.256 19.3357C181.265 18.4691 181.48 17.8299 181.9 17.4184C182.325 17.0068 182.968 16.8056 183.831 16.8146L186.353 16.8412L186.374 14.8263C186.378 14.4623 186.561 14.2823 186.925 14.2861C187.289 14.2899 187.469 14.4738 187.466 14.8378L187.381 22.8974C187.377 23.2613 187.193 23.4414 186.829 23.4376C186.465 23.4338 186.285 23.2498 186.289 22.8859L186.29 22.7949C186.084 23.0007 185.816 23.1561 185.485 23.2609C185.155 23.3658 184.745 23.4156 184.255 23.4105L183.761 23.4053ZM183.773 22.3133L184.267 22.3185C184.839 22.3246 185.32 22.256 185.712 22.1128C186.103 21.9695 186.301 21.7463 186.304 21.4429L186.341 17.9331L183.819 17.9066C183.256 17.9007 182.871 18.0006 182.665 18.2065C182.46 18.408 182.354 18.7882 182.348 19.3472L182.332 20.8421C182.326 21.4054 182.424 21.7899 182.626 21.9957C182.831 22.2016 183.214 22.3075 183.773 22.3133ZM191.166 23.4833C190.802 23.4794 190.622 23.2955 190.626 22.9315L190.696 16.2239L190.998 16.0191L189.554 17.3429C189.444 17.4458 189.329 17.5074 189.207 17.5278C189.086 17.5439 188.967 17.4928 188.851 17.3745C188.62 17.1381 188.635 16.8912 188.898 16.634L190.658 14.9364C190.842 14.7564 191.068 14.6677 191.337 14.6706C191.649 14.6739 191.803 14.8575 191.799 15.2215L191.718 22.943C191.714 23.307 191.53 23.4871 191.166 23.4833Z" fill="#5C6497"/>
<path d="M153.446 121.932C152.584 121.923 151.944 121.708 151.528 121.287C151.117 120.863 150.916 120.219 150.925 119.357L150.941 117.862C150.95 116.995 151.164 116.356 151.585 115.945C152.009 115.533 152.653 115.332 153.515 115.341L156.037 115.368L156.058 113.353C156.062 112.989 156.246 112.809 156.61 112.812C156.974 112.816 157.154 113 157.15 113.364L157.065 121.424C157.062 121.788 156.878 121.968 156.514 121.964C156.15 121.96 155.97 121.776 155.973 121.412L155.974 121.321C155.769 121.527 155.5 121.682 155.17 121.787C154.839 121.892 154.429 121.942 153.94 121.937L153.446 121.932ZM153.457 120.84L153.951 120.845C154.523 120.851 155.005 120.782 155.397 120.639C155.788 120.496 155.985 120.273 155.989 119.969L156.026 116.46L153.504 116.433C152.94 116.427 152.556 116.527 152.35 116.733C152.144 116.934 152.038 117.315 152.032 117.874L152.017 119.368C152.011 119.932 152.109 120.316 152.31 120.522C152.516 120.728 152.898 120.834 153.457 120.84ZM164.41 122.047L159.548 121.996C159.176 121.992 158.991 121.808 158.995 121.444C159.001 120.863 159.097 120.37 159.284 119.965C159.474 119.555 159.714 119.211 160.003 118.933C160.296 118.65 160.606 118.412 160.933 118.221C161.261 118.025 161.564 117.848 161.843 117.691C162.326 117.423 162.73 117.191 163.053 116.995C163.38 116.799 163.624 116.598 163.787 116.392C163.949 116.185 164.032 115.933 164.035 115.634C164.041 115.118 163.951 114.771 163.767 114.591C163.587 114.407 163.243 114.312 162.736 114.307L161.345 114.292C160.938 114.288 160.636 114.339 160.44 114.445C160.244 114.552 160.118 114.752 160.063 115.046C160.031 115.219 159.971 115.35 159.884 115.441C159.796 115.531 159.663 115.575 159.486 115.573C159.304 115.571 159.166 115.522 159.071 115.426C158.977 115.325 158.94 115.181 158.959 114.995C159.056 114.385 159.302 113.933 159.695 113.638C160.088 113.339 160.642 113.193 161.357 113.2L162.748 113.215C163.562 113.224 164.165 113.427 164.555 113.826C164.945 114.224 165.136 114.831 165.127 115.645C165.122 116.165 164.989 116.599 164.73 116.948C164.471 117.292 164.132 117.596 163.713 117.86C163.294 118.12 162.845 118.382 162.366 118.645C162.017 118.841 161.685 119.037 161.371 119.233C161.062 119.429 160.795 119.658 160.571 119.92C160.352 120.182 160.205 120.512 160.132 120.91L164.421 120.955C164.785 120.959 164.965 121.143 164.962 121.507C164.958 121.871 164.774 122.051 164.41 122.047Z" fill="#5C6497"/>
<path d="M141.671 97.1577C141.391 97.1577 141.251 97.0177 141.251 96.7377V90.5377C141.251 90.2577 141.391 90.1177 141.671 90.1177C141.951 90.1177 142.091 90.2577 142.091 90.5377V92.6227C142.264 92.446 142.481 92.3127 142.741 92.2227C143.001 92.1327 143.304 92.0877 143.651 92.0877H144.031C144.698 92.0877 145.191 92.2477 145.511 92.5677C145.831 92.8877 145.991 93.381 145.991 94.0477V95.1977C145.991 95.861 145.831 96.3544 145.511 96.6777C145.191 96.9977 144.698 97.1577 144.031 97.1577H143.651C143.304 97.1577 143.001 97.1127 142.741 97.0227C142.481 96.9327 142.264 96.801 142.091 96.6277V96.7377C142.091 97.0177 141.951 97.1577 141.671 97.1577ZM143.651 96.3177H144.031C144.468 96.3177 144.763 96.2394 144.916 96.0827C145.073 95.9227 145.151 95.6277 145.151 95.1977V94.0477C145.151 93.611 145.071 93.316 144.911 93.1627C144.754 93.006 144.461 92.9277 144.031 92.9277H143.651C143.211 92.9277 142.841 92.9844 142.541 93.0977C142.241 93.2077 142.091 93.381 142.091 93.6177V95.6277C142.091 95.861 142.241 96.0344 142.541 96.1477C142.841 96.261 143.211 96.3177 143.651 96.3177Z" fill="#5C6497"/>
<path d="M42.5491 112.316C41.8857 112.316 41.3924 112.156 41.0691 111.836C40.7491 111.513 40.5891 111.019 40.5891 110.356V109.196C40.5891 108.529 40.7474 108.036 41.0641 107.716C41.3841 107.396 41.8791 107.239 42.5491 107.246H43.3691C43.8657 107.246 44.2557 107.329 44.5391 107.496C44.8257 107.663 45.0091 107.919 45.0891 108.266C45.1191 108.406 45.0941 108.514 45.0141 108.591C44.9374 108.668 44.8257 108.706 44.6791 108.706C44.5491 108.706 44.4541 108.673 44.3941 108.606C44.3341 108.539 44.2791 108.446 44.2291 108.326C44.1791 108.236 44.0874 108.174 43.9541 108.141C43.8207 108.104 43.6257 108.086 43.3691 108.086H42.5491C42.1191 108.079 41.8241 108.154 41.6641 108.311C41.5074 108.464 41.4291 108.759 41.4291 109.196V110.356C41.4291 110.789 41.5074 111.084 41.6641 111.241C41.8241 111.398 42.1191 111.476 42.5491 111.476H43.3691C43.6257 111.476 43.8207 111.459 43.9541 111.426C44.0874 111.389 44.1791 111.326 44.2291 111.236C44.2791 111.109 44.3341 111.014 44.3941 110.951C44.4574 110.888 44.5557 110.856 44.6891 110.856C44.8291 110.856 44.9374 110.894 45.0141 110.971C45.0941 111.048 45.1191 111.156 45.0891 111.296C45.0091 111.639 44.8257 111.896 44.5391 112.066C44.2557 112.233 43.8657 112.316 43.3691 112.316H42.5491Z" fill="#5C6497"/>
<path d="M202.302 104.737C202.022 104.737 201.882 104.597 201.882 104.317V98.1168C201.882 97.8368 202.022 97.6968 202.302 97.6968C202.582 97.6968 202.722 97.8368 202.722 98.1168V101.872L205.102 99.8268C205.315 99.6435 205.512 99.6568 205.692 99.8668C205.875 100.08 205.862 100.277 205.652 100.457L203.827 102.032L205.572 104.017C205.758 104.233 205.748 104.43 205.542 104.607C205.328 104.79 205.128 104.777 204.942 104.567L203.187 102.587L202.722 102.987V104.317C202.722 104.597 202.582 104.737 202.302 104.737Z" fill="#5C6497"/>
<path d="M104.915 66.8418C104.355 66.8418 103.939 66.7051 103.665 66.4318C103.392 66.1585 103.255 65.7418 103.255 65.1818C103.255 64.6218 103.39 64.2051 103.66 63.9318C103.934 63.6585 104.352 63.5218 104.915 63.5218H107.03C107.01 63.1718 106.919 62.9335 106.755 62.8068C106.592 62.6768 106.312 62.6118 105.915 62.6118H105.335C105.002 62.6118 104.754 62.6351 104.59 62.6818C104.427 62.7251 104.312 62.8051 104.245 62.9218C104.185 63.0618 104.124 63.1585 104.06 63.2118C103.997 63.2651 103.902 63.2918 103.775 63.2918C103.635 63.2918 103.525 63.2535 103.445 63.1768C103.365 63.0968 103.342 62.9918 103.375 62.8618C103.475 62.4851 103.684 62.2101 104 62.0368C104.32 61.8601 104.765 61.7718 105.335 61.7718H105.915C106.582 61.7718 107.075 61.9318 107.395 62.2518C107.715 62.5718 107.875 63.0651 107.875 63.7318V66.4218C107.875 66.7018 107.735 66.8418 107.455 66.8418C107.175 66.8418 107.035 66.7018 107.035 66.4218V66.1968C106.679 66.6268 106.159 66.8418 105.475 66.8418H104.915ZM104.915 66.0018H105.475C105.722 66.0018 105.954 65.9801 106.17 65.9368C106.387 65.8901 106.572 65.8068 106.725 65.6868C106.882 65.5668 106.985 65.3951 107.035 65.1718V64.3618H104.915C104.585 64.3618 104.365 64.4168 104.255 64.5268C104.149 64.6368 104.095 64.8551 104.095 65.1818C104.095 65.5118 104.149 65.7318 104.255 65.8418C104.365 65.9485 104.585 66.0018 104.915 66.0018Z" fill="#5C6497"/>
<path d="M65.7349 77.2104C65.4829 77.2104 65.3569 77.0844 65.3569 76.8324V71.2524C65.3569 71.0004 65.4829 70.8744 65.7349 70.8744C65.9869 70.8744 66.1129 71.0004 66.1129 71.2524V73.1739C66.4309 72.8229 66.8989 72.6474 67.5169 72.6474H67.7689C68.3689 72.6474 68.8129 72.7914 69.1009 73.0794C69.3889 73.3674 69.5329 73.8114 69.5329 74.4114V76.8324C69.5329 77.0844 69.4069 77.2104 69.1549 77.2104C68.9029 77.2104 68.7769 77.0844 68.7769 76.8324V74.4114C68.7769 74.0184 68.7049 73.7529 68.5609 73.6149C68.4199 73.4739 68.1559 73.4034 67.7689 73.4034H67.5169C67.1569 73.4034 66.8434 73.4454 66.5764 73.5294C66.3094 73.6104 66.1549 73.7394 66.1129 73.9164V76.8324C66.1129 77.0844 65.9869 77.2104 65.7349 77.2104ZM72.6029 77.2104C72.3509 77.2104 72.2249 77.0844 72.2249 76.8324V72.1884L72.4319 72.0444L71.4419 72.9714C71.3669 73.0434 71.2874 73.0869 71.2034 73.1019C71.1194 73.1139 71.0369 73.0794 70.9559 72.9984C70.7939 72.8364 70.8029 72.6654 70.9829 72.4854L72.1889 71.2974C72.3149 71.1714 72.4709 71.1084 72.6569 71.1084C72.8729 71.1084 72.9809 71.2344 72.9809 71.4864V76.8324C72.9809 77.0844 72.8549 77.2104 72.6029 77.2104Z" fill="#AEB2CD"/>
<path d="M141.525 14.6841C141.273 14.6841 141.147 14.5581 141.147 14.3061V8.72608C141.147 8.47408 141.273 8.34808 141.525 8.34808C141.777 8.34808 141.903 8.47408 141.903 8.72608V10.6476C142.221 10.2966 142.689 10.1211 143.307 10.1211H143.559C144.159 10.1211 144.603 10.2651 144.891 10.5531C145.179 10.8411 145.323 11.2851 145.323 11.8851V14.3061C145.323 14.5581 145.197 14.6841 144.945 14.6841C144.693 14.6841 144.567 14.5581 144.567 14.3061V11.8851C144.567 11.4921 144.495 11.2266 144.351 11.0886C144.21 10.9476 143.946 10.8771 143.559 10.8771H143.307C142.947 10.8771 142.633 10.9191 142.366 11.0031C142.099 11.0841 141.945 11.2131 141.903 11.3901V14.3061C141.903 14.5581 141.777 14.6841 141.525 14.6841ZM150.409 14.6841H147.043C146.785 14.6841 146.656 14.5581 146.656 14.3061C146.656 13.9041 146.719 13.5621 146.845 13.2801C146.974 12.9951 147.137 12.7551 147.335 12.5601C147.536 12.3621 147.749 12.1956 147.974 12.0606C148.199 11.9226 148.408 11.7981 148.6 11.6871C148.933 11.4981 149.21 11.3346 149.432 11.1966C149.657 11.0586 149.825 10.9176 149.936 10.7736C150.047 10.6296 150.103 10.4541 150.103 10.2471C150.103 9.89008 150.038 9.65008 149.909 9.52708C149.783 9.40108 149.545 9.33808 149.194 9.33808H148.231C147.949 9.33808 147.74 9.37558 147.605 9.45058C147.47 9.52558 147.385 9.66508 147.349 9.86908C147.328 9.98908 147.287 10.0806 147.227 10.1436C147.167 10.2066 147.076 10.2381 146.953 10.2381C146.827 10.2381 146.731 10.2051 146.665 10.1391C146.599 10.0701 146.572 9.97108 146.584 9.84208C146.647 9.41908 146.813 9.10408 147.083 8.89708C147.353 8.68708 147.736 8.58208 148.231 8.58208H149.194C149.758 8.58208 150.176 8.71858 150.449 8.99158C150.722 9.26458 150.859 9.68308 150.859 10.2471C150.859 10.6071 150.77 10.9086 150.593 11.1516C150.416 11.3916 150.184 11.6046 149.896 11.7906C149.608 11.9736 149.299 12.1581 148.969 12.3441C148.729 12.4821 148.501 12.6201 148.285 12.7581C148.072 12.8961 147.889 13.0566 147.736 13.2396C147.586 13.4226 147.487 13.6521 147.439 13.9281H150.409C150.661 13.9281 150.787 14.0541 150.787 14.3061C150.787 14.5581 150.661 14.6841 150.409 14.6841Z" fill="#AEB2CD"/>
</svg>
