<svg width="252" height="164" viewBox="0 0 252 164" fill="none" xmlns="http://www.w3.org/2000/svg">
<path d="M52.5 2L197.5 123L52.5 85" stroke="#ADABD2" stroke-width="2"/>
<path d="M53 0.5V85L17.5 122.5" stroke="white" stroke-dasharray="4 4"/>
<path d="M53 86L233 86" stroke="white" stroke-dasharray="4 4"/>
<path d="M53 1L17.5 123.5" stroke="#ADABD2" stroke-width="2"/>
<path d="M52.5 1.5L233 86" stroke="#ADABD2" stroke-width="2"/>
<path d="M17 36.5L52 1H233M17 36.5V124H197.5M17 36.5H197.5M197.5 124L233 86.5V1M197.5 124V36.5M233 1L197.5 36.5" stroke="white"/>
<path d="M3.51 76C2.73 76 2.1575 75.82 1.7925 75.46C1.4325 75.095 1.2525 74.5225 1.2525 73.7425C1.2525 72.9625 1.435 72.39 1.8 72.025C2.165 71.66 2.735 71.4775 3.51 71.4775H6.9225C6.9125 70.8175 6.7625 70.3575 6.4725 70.0975C6.1875 69.8325 5.7 69.7 5.01 69.7H4.14C3.505 69.7 3.04 69.7675 2.745 69.9025C2.45 70.0375 2.2675 70.2675 2.1975 70.5925C2.1625 70.7175 2.115 70.81 2.055 70.87C2 70.925 1.91 70.9525 1.785 70.9525C1.655 70.9525 1.5525 70.9175 1.4775 70.8475C1.4075 70.7725 1.3825 70.6725 1.4025 70.5475C1.4675 69.9775 1.725 69.5625 2.175 69.3025C2.63 69.0425 3.285 68.9125 4.14 68.9125H5.01C5.945 68.9125 6.6275 69.13 7.0575 69.565C7.4925 69.995 7.71 70.6775 7.71 71.6125V75.6025C7.71 75.8675 7.58 76 7.32 76C7.055 76 6.9225 75.8675 6.9225 75.6025V74.86C6.4425 75.62 5.585 76 4.35 76H3.51ZM3.51 75.2125H4.35C4.835 75.2125 5.26 75.16 5.625 75.055C5.995 74.945 6.2925 74.77 6.5175 74.53C6.7425 74.29 6.8775 73.97 6.9225 73.57V72.265H3.51C2.955 72.265 2.57 72.3725 2.355 72.5875C2.145 72.7975 2.04 73.1825 2.04 73.7425C2.04 74.2975 2.145 74.6825 2.355 74.8975C2.57 75.1075 2.955 75.2125 3.51 75.2125Z" fill="#EFEFF7"/>
<path d="M117.8 144C117.535 144 117.403 143.867 117.403 143.602V133.987C117.403 133.727 117.535 133.597 117.8 133.597C118.06 133.597 118.19 133.727 118.19 133.987V137.955C118.415 137.61 118.735 137.347 119.15 137.167C119.57 136.987 120.11 136.897 120.77 136.897H121.34C122.275 136.897 122.958 137.115 123.388 137.55C123.823 137.985 124.04 138.67 124.04 139.605V141.292C124.04 142.227 123.823 142.912 123.388 143.347C122.958 143.782 122.275 144 121.34 144H120.77C120.11 144 119.57 143.912 119.15 143.737C118.735 143.557 118.415 143.292 118.19 142.942V143.602C118.19 143.867 118.06 144 117.8 144ZM120.77 143.212H121.34C122.055 143.212 122.553 143.072 122.833 142.792C123.113 142.507 123.253 142.007 123.253 141.292V139.605C123.253 138.89 123.11 138.392 122.825 138.112C122.545 137.827 122.05 137.685 121.34 137.685H120.77C119.99 137.685 119.365 137.807 118.895 138.052C118.425 138.297 118.19 138.67 118.19 139.17V141.757C118.2 142.242 118.44 142.607 118.91 142.852C119.38 143.092 120 143.212 120.77 143.212Z" fill="#EFEFF7"/>
<path d="M237.215 110.023C236.445 110.023 235.818 109.947 235.333 109.797C234.848 109.642 234.488 109.372 234.253 108.987C234.023 108.602 233.908 108.06 233.908 107.36V105.717C233.908 105.022 234.023 104.482 234.253 104.097C234.488 103.712 234.848 103.445 235.333 103.295C235.818 103.14 236.445 103.062 237.215 103.062H239.375C239.77 103.062 240.073 103.137 240.283 103.287C240.493 103.432 240.638 103.622 240.718 103.857C240.798 104.092 240.838 104.34 240.838 104.6C240.838 104.84 240.805 105.012 240.74 105.117C240.68 105.222 240.58 105.275 240.44 105.275C240.285 105.275 240.18 105.215 240.125 105.095C240.075 104.975 240.05 104.85 240.05 104.72C240.045 104.46 239.995 104.25 239.9 104.09C239.81 103.93 239.585 103.85 239.225 103.85H237.215C236.57 103.85 236.063 103.892 235.693 103.977C235.328 104.057 235.07 104.232 234.92 104.502C234.77 104.772 234.695 105.182 234.695 105.732V107.352C234.695 107.882 234.768 108.282 234.913 108.552C235.058 108.822 235.313 109.005 235.678 109.1C236.048 109.19 236.56 109.235 237.215 109.235H239.225C239.59 109.235 239.815 109.16 239.9 109.01C239.985 108.86 240.035 108.645 240.05 108.365C240.06 108.165 240.1 108.022 240.17 107.937C240.24 107.852 240.333 107.81 240.448 107.81C240.578 107.81 240.675 107.86 240.74 107.96C240.805 108.06 240.838 108.23 240.838 108.47C240.838 108.765 240.793 109.03 240.703 109.265C240.618 109.5 240.465 109.685 240.245 109.82C240.025 109.955 239.72 110.023 239.33 110.023H237.215Z" fill="#EFEFF7"/>
<path d="M23.484 60C22.887 60 22.443 59.856 22.152 59.568C21.864 59.277 21.72 58.833 21.72 58.236V57.201C21.72 56.601 21.864 56.157 22.152 55.869C22.443 55.581 22.887 55.437 23.484 55.437H25.23V54.042C25.23 53.79 25.356 53.664 25.608 53.664C25.86 53.664 25.986 53.79 25.986 54.042V59.622C25.986 59.874 25.86 60 25.608 60C25.356 60 25.23 59.874 25.23 59.622V59.559C25.089 59.703 24.9045 59.8125 24.6765 59.8875C24.4485 59.9625 24.165 60 23.826 60H23.484ZM23.484 59.244H23.826C24.222 59.244 24.555 59.193 24.825 59.091C25.095 58.989 25.23 58.833 25.23 58.623V56.193H23.484C23.094 56.193 22.8285 56.265 22.6875 56.409C22.5465 56.55 22.476 56.814 22.476 57.201V58.236C22.476 58.626 22.5465 58.8915 22.6875 59.0325C22.8315 59.1735 23.097 59.244 23.484 59.244ZM28.6107 60C28.3587 60 28.2327 59.874 28.2327 59.622V54.978L28.4397 54.834L27.4497 55.761C27.3747 55.833 27.2952 55.8765 27.2112 55.8915C27.1272 55.9035 27.0447 55.869 26.9637 55.788C26.8017 55.626 26.8107 55.455 26.9907 55.275L28.1967 54.087C28.3227 53.961 28.4787 53.898 28.6647 53.898C28.8807 53.898 28.9887 54.024 28.9887 54.276V59.622C28.9887 59.874 28.8627 60 28.6107 60Z" fill="#AEB2CD"/>
<path d="M139.484 30C138.887 30 138.443 29.856 138.152 29.568C137.864 29.277 137.72 28.833 137.72 28.236V27.201C137.72 26.601 137.864 26.157 138.152 25.869C138.443 25.581 138.887 25.437 139.484 25.437H141.23V24.042C141.23 23.79 141.356 23.664 141.608 23.664C141.86 23.664 141.986 23.79 141.986 24.042V29.622C141.986 29.874 141.86 30 141.608 30C141.356 30 141.23 29.874 141.23 29.622V29.559C141.089 29.703 140.905 29.8125 140.677 29.8875C140.449 29.9625 140.165 30 139.826 30H139.484ZM139.484 29.244H139.826C140.222 29.244 140.555 29.193 140.825 29.091C141.095 28.989 141.23 28.833 141.23 28.623V26.193H139.484C139.094 26.193 138.829 26.265 138.688 26.409C138.547 26.55 138.476 26.814 138.476 27.201V28.236C138.476 28.626 138.547 28.8915 138.688 29.0325C138.832 29.1735 139.097 29.244 139.484 29.244ZM147.075 30H143.709C143.451 30 143.322 29.874 143.322 29.622C143.322 29.22 143.385 28.878 143.511 28.596C143.64 28.311 143.803 28.071 144.001 27.876C144.202 27.678 144.415 27.5115 144.64 27.3765C144.865 27.2385 145.074 27.114 145.266 27.003C145.599 26.814 145.876 26.6505 146.098 26.5125C146.323 26.3745 146.491 26.2335 146.602 26.0895C146.713 25.9455 146.769 25.77 146.769 25.563C146.769 25.206 146.704 24.966 146.575 24.843C146.449 24.717 146.211 24.654 145.86 24.654H144.897C144.615 24.654 144.406 24.6915 144.271 24.7665C144.136 24.8415 144.051 24.981 144.015 25.185C143.994 25.305 143.953 25.3965 143.893 25.4595C143.833 25.5225 143.742 25.554 143.619 25.554C143.493 25.554 143.397 25.521 143.331 25.455C143.265 25.386 143.238 25.287 143.25 25.158C143.313 24.735 143.479 24.42 143.749 24.213C144.019 24.003 144.402 23.898 144.897 23.898H145.86C146.424 23.898 146.842 24.0345 147.115 24.3075C147.388 24.5805 147.525 24.999 147.525 25.563C147.525 25.923 147.436 26.2245 147.259 26.4675C147.082 26.7075 146.85 26.9205 146.562 27.1065C146.274 27.2895 145.965 27.474 145.635 27.66C145.395 27.798 145.167 27.936 144.951 28.074C144.738 28.212 144.555 28.3725 144.402 28.5555C144.252 28.7385 144.153 28.968 144.105 29.244H147.075C147.327 29.244 147.453 29.37 147.453 29.622C147.453 29.874 147.327 30 147.075 30Z" fill="#AEB2CD"/>
<path d="M106.484 114C105.887 114 105.443 113.856 105.152 113.568C104.864 113.277 104.72 112.833 104.72 112.236V111.201C104.72 110.601 104.864 110.157 105.152 109.869C105.443 109.581 105.887 109.437 106.484 109.437H108.23V108.042C108.23 107.79 108.356 107.664 108.608 107.664C108.86 107.664 108.986 107.79 108.986 108.042V113.622C108.986 113.874 108.86 114 108.608 114C108.356 114 108.23 113.874 108.23 113.622V113.559C108.089 113.703 107.905 113.812 107.677 113.887C107.449 113.962 107.165 114 106.826 114H106.484ZM106.484 113.244H106.826C107.222 113.244 107.555 113.193 107.825 113.091C108.095 112.989 108.23 112.833 108.23 112.623V110.193H106.484C106.094 110.193 105.829 110.265 105.688 110.409C105.547 110.55 105.476 110.814 105.476 111.201V112.236C105.476 112.626 105.547 112.891 105.688 113.032C105.832 113.173 106.097 113.244 106.484 113.244ZM112.149 114C111.624 114 111.217 113.89 110.929 113.671C110.644 113.449 110.472 113.109 110.412 112.65C110.4 112.524 110.427 112.426 110.493 112.357C110.559 112.288 110.655 112.254 110.781 112.254C111.012 112.254 111.141 112.38 111.168 112.632C111.21 112.866 111.304 113.026 111.451 113.113C111.598 113.2 111.831 113.244 112.149 113.244H113.175C113.562 113.244 113.824 113.175 113.962 113.037C114.103 112.896 114.174 112.635 114.174 112.254C114.174 111.876 114.103 111.616 113.962 111.475C113.824 111.334 113.562 111.264 113.175 111.264H112.482C112.23 111.264 112.104 111.138 112.104 110.886C112.104 110.634 112.23 110.508 112.482 110.508H113.517C113.706 110.508 113.838 110.424 113.913 110.256C113.991 110.085 114.03 109.854 114.03 109.563C114.03 109.206 113.965 108.966 113.836 108.843C113.71 108.717 113.472 108.654 113.121 108.654H112.248C111.966 108.654 111.757 108.691 111.622 108.766C111.487 108.841 111.402 108.981 111.366 109.185C111.33 109.431 111.198 109.554 110.97 109.554C110.844 109.554 110.748 109.521 110.682 109.455C110.616 109.386 110.592 109.287 110.61 109.158C110.67 108.735 110.835 108.42 111.105 108.213C111.378 108.003 111.759 107.898 112.248 107.898H113.121C113.685 107.898 114.103 108.034 114.376 108.307C114.649 108.58 114.786 108.999 114.786 109.563C114.786 110.118 114.63 110.511 114.318 110.742C114.525 110.877 114.678 111.069 114.777 111.318C114.879 111.567 114.93 111.879 114.93 112.254C114.93 112.848 114.787 113.287 114.502 113.572C114.217 113.857 113.775 114 113.175 114H112.149Z" fill="#AEB2CD"/>
<path d="M164.34 110C163.836 110 163.461 109.877 163.215 109.631C162.969 109.385 162.846 109.01 162.846 108.506C162.846 108.002 162.968 107.627 163.211 107.381C163.457 107.135 163.833 107.012 164.34 107.012H166.244C166.226 106.697 166.143 106.482 165.996 106.368C165.849 106.251 165.597 106.193 165.24 106.193H164.718C164.418 106.193 164.195 106.214 164.048 106.256C163.901 106.295 163.797 106.367 163.737 106.472C163.683 106.598 163.628 106.685 163.571 106.733C163.514 106.781 163.428 106.805 163.314 106.805C163.188 106.805 163.089 106.77 163.017 106.701C162.945 106.629 162.924 106.535 162.954 106.418C163.044 106.079 163.232 105.831 163.517 105.675C163.805 105.516 164.205 105.437 164.718 105.437H165.24C165.84 105.437 166.284 105.581 166.572 105.869C166.86 106.157 167.004 106.601 167.004 107.201V109.622C167.004 109.874 166.878 110 166.626 110C166.374 110 166.248 109.874 166.248 109.622V109.419C165.927 109.806 165.459 110 164.844 110H164.34ZM164.34 109.244H164.844C165.066 109.244 165.275 109.224 165.47 109.185C165.665 109.143 165.831 109.068 165.969 108.96C166.11 108.852 166.203 108.698 166.248 108.497V107.768H164.34C164.043 107.768 163.845 107.817 163.746 107.916C163.65 108.015 163.602 108.212 163.602 108.506C163.602 108.803 163.65 109.001 163.746 109.1C163.845 109.196 164.043 109.244 164.34 109.244Z" fill="white"/>
<path d="M142.484 66C141.887 66 141.443 65.856 141.152 65.568C140.864 65.277 140.72 64.833 140.72 64.236V63.201C140.72 62.601 140.864 62.157 141.152 61.869C141.443 61.581 141.887 61.437 142.484 61.437H144.23V60.042C144.23 59.79 144.356 59.664 144.608 59.664C144.86 59.664 144.986 59.79 144.986 60.042V65.622C144.986 65.874 144.86 66 144.608 66C144.356 66 144.23 65.874 144.23 65.622V65.559C144.089 65.703 143.905 65.8125 143.677 65.8875C143.449 65.9625 143.165 66 142.826 66H142.484ZM142.484 65.244H142.826C143.222 65.244 143.555 65.193 143.825 65.091C144.095 64.989 144.23 64.833 144.23 64.623V62.193H142.484C142.094 62.193 141.829 62.265 141.688 62.409C141.547 62.55 141.476 62.814 141.476 63.201V64.236C141.476 64.626 141.547 64.8915 141.688 65.0325C141.832 65.1735 142.097 65.244 142.484 65.244ZM149.496 66C149.244 66 149.118 65.874 149.118 65.622L149.127 60.78L149.424 60.564L146.76 64.173L146.697 63.984L150.396 63.966C150.519 63.966 150.612 64.002 150.675 64.074C150.741 64.146 150.774 64.236 150.774 64.344C150.774 64.596 150.648 64.722 150.396 64.722H146.337C146.085 64.722 145.959 64.596 145.959 64.344C145.959 64.224 146.01 64.092 146.112 63.948L148.938 60.132C149.016 60.027 149.096 59.9625 149.177 59.9385C149.261 59.9115 149.358 59.898 149.469 59.898C149.745 59.898 149.883 60.024 149.883 60.276L149.874 65.622C149.874 65.874 149.748 66 149.496 66Z" fill="#AEB2CD"/>
<path d="M182.498 110.461C179.945 108.285 173.716 112.345 176.985 117.674" stroke="#ADABD2" stroke-width="2"/>
</svg>
