<svg width="148" height="98" viewBox="0 0 148 98" fill="none" xmlns="http://www.w3.org/2000/svg">
<path d="M107.536 32.1642C107.369 31.8403 107.448 31.5953 107.772 31.4292L112.666 28.9202C112.989 28.7541 113.234 28.833 113.401 29.1569C113.567 29.4808 113.488 29.7258 113.164 29.8919L112.713 30.1232C113.138 30.1925 113.519 30.3621 113.857 30.6319C114.197 30.9056 114.484 31.27 114.717 31.725C114.883 32.0489 114.804 32.2939 114.481 32.4599C114.157 32.626 113.912 32.5471 113.746 32.2232C113.404 31.5561 113.019 31.1104 112.592 30.8861C112.166 30.6617 111.745 30.6437 111.33 30.832L108.271 32.4009C107.947 32.567 107.702 32.4881 107.536 32.1642Z" fill="#5C6497"/>
<path d="M11 76L47.6393 2H147L110.361 76H11Z" fill="#EFEFF7"/>
<path d="M18.9242 78.8244C21.2336 78.0617 21.4294 72.7239 16.9957 72.7569" stroke="#5C6497"/>
<path d="M104.814 68.8926C101.654 68.0063 96.3312 73.5632 101.319 76.8667" stroke="#5C6497"/>
<path d="M107.295 71.9966C105.391 70.7135 101.31 74.1221 103.898 77.4127" stroke="#5C6497"/>
<path d="M114.26 68.9512C115.168 65.617 107.847 63.4043 104.192 68.9512" stroke="#5C6497"/>
<path d="M113.199 72.2344C113.983 69.8467 109.627 67.9696 106.675 71.9967" stroke="#5C6497"/>
<path d="M112.522 75.624C112.996 74.3678 110.778 72.4265 109.256 74.3401" stroke="#5C6497"/>
<path d="M109.778 74.479C108.67 73.7199 105.729 75.7094 107.227 77.6437" stroke="#5C6497"/>
<path d="M42.5007 8.93883C41.3945 12.2125 57.0225 12.4135 57.0224 1.24117" stroke="#5C6497"/>
<path d="M42.8138 7.95216C41.8889 10.2894 54.5387 6.82763 54.5393 1.24188" stroke="#5C6497"/>
<path d="M40.3323 5.46891C39.4074 7.80613 51.7564 5.58586 51.757 0.000106644" stroke="#5C6497"/>
<path d="M19.649 71.3981C21.5106 69.6812 18.6945 64.7675 14.3134 66.7696" stroke="#5C6497"/>
<path d="M132.5 1.00018C130.226 1.86447 130.572 8.72975 135 8.50025" stroke="#5C6497"/>
<path d="M139.5 6.00002C137.716 7.79782 140.028 12.8441 144.316 10.6497" stroke="#5C6497"/>
<path d="M69 28C63.651 27.3917 58.2933 41.1707 67.4684 45.3621" stroke="#5C6497"/>
<path d="M71.1141 30.4657C66.3844 29.9796 62.0472 40.4353 70.1336 44.0168" stroke="#5C6497"/>
<path d="M72.5 32C69.4998 32.9999 65.8253 39.9486 72 42.4998" stroke="#5C6497"/>
<path d="M75.1752 35.0004C70.5007 36.5003 71.9996 40.0002 74 42" stroke="#5C6497"/>
<path d="M72.2885 41.9202C71.8677 45.5439 79.0704 49.0875 81.8429 43.009" stroke="#5C6497"/>
<path d="M74.4996 41.4998C74.2509 43.7739 78.7976 45.307 80.5 41.4998" stroke="#5C6497"/>
<path d="M84.4394 35.9678C85.0497 32.3712 78.0427 28.4548 74.9552 34.3795" stroke="#5C6497"/>
<path d="M81.8901 37.4027C82.2578 35.1448 78.1616 32.2858 76.2619 35.9985" stroke="#5C6497"/>
<path d="M87.5 49.5C93.0708 49.7703 99.5157 36.5819 89.9999 33.0001" stroke="#5C6497"/>
<path d="M85.5 47.5C90.1798 47.7585 94.6553 37.9943 86.6449 34.9106" stroke="#5C6497"/>
<path d="M84.4993 46.0001C88.1423 46.201 90.7351 37.8995 84.4996 35.4997" stroke="#5C6497"/>
<path d="M81.2273 42.8256C83.5123 42.9366 85.7517 38.7087 81.8486 37.2395" stroke="#5C6497"/>
<path d="M47.1056 68.464L53.4307 68.412L53.299 76.9617" stroke="#5C6497" stroke-width="0.5"/>
<path d="M118.921 39.0843L122.045 33.5837L129.379 37.98" stroke="#5C6497" stroke-width="0.5"/>
<path d="M47 2L110 76" stroke="#5C6497"/>
<path d="M47 1L127 43" stroke="#5C6497"/>
<path d="M11 76L147 2" stroke="#5C6497"/>
<path d="M47 2V78" stroke="#5C6497"/>
<path d="M3.51 44C2.73 44 2.1575 43.82 1.7925 43.46C1.4325 43.095 1.2525 42.5225 1.2525 41.7425C1.2525 40.9625 1.435 40.39 1.8 40.025C2.165 39.66 2.735 39.4775 3.51 39.4775H6.9225C6.9125 38.8175 6.7625 38.3575 6.4725 38.0975C6.1875 37.8325 5.7 37.7 5.01 37.7H4.14C3.505 37.7 3.04 37.7675 2.745 37.9025C2.45 38.0375 2.2675 38.2675 2.1975 38.5925C2.1625 38.7175 2.115 38.81 2.055 38.87C2 38.925 1.91 38.9525 1.785 38.9525C1.655 38.9525 1.5525 38.9175 1.4775 38.8475C1.4075 38.7725 1.3825 38.6725 1.4025 38.5475C1.4675 37.9775 1.725 37.5625 2.175 37.3025C2.63 37.0425 3.285 36.9125 4.14 36.9125H5.01C5.945 36.9125 6.6275 37.13 7.0575 37.565C7.4925 37.995 7.71 38.6775 7.71 39.6125V43.6025C7.71 43.8675 7.58 44 7.32 44C7.055 44 6.9225 43.8675 6.9225 43.6025V42.86C6.4425 43.62 5.585 44 4.35 44H3.51ZM3.51 43.2125H4.35C4.835 43.2125 5.26 43.16 5.625 43.055C5.995 42.945 6.2925 42.77 6.5175 42.53C6.7425 42.29 6.8775 41.97 6.9225 41.57V40.265H3.51C2.955 40.265 2.57 40.3725 2.355 40.5875C2.145 40.7975 2.04 41.1825 2.04 41.7425C2.04 42.2975 2.145 42.6825 2.355 42.8975C2.57 43.1075 2.955 43.2125 3.51 43.2125Z" fill="#EFEFF7"/>
<path d="M75.8 95C75.535 95 75.4025 94.8675 75.4025 94.6025V84.9875C75.4025 84.7275 75.535 84.5975 75.8 84.5975C76.06 84.5975 76.19 84.7275 76.19 84.9875V88.955C76.415 88.61 76.735 88.3475 77.15 88.1675C77.57 87.9875 78.11 87.8975 78.77 87.8975H79.34C80.275 87.8975 80.9575 88.115 81.3875 88.55C81.8225 88.985 82.04 89.67 82.04 90.605V92.2925C82.04 93.2275 81.8225 93.9125 81.3875 94.3475C80.9575 94.7825 80.275 95 79.34 95H78.77C78.11 95 77.57 94.9125 77.15 94.7375C76.735 94.5575 76.415 94.2925 76.19 93.9425V94.6025C76.19 94.8675 76.06 95 75.8 95ZM78.77 94.2125H79.34C80.055 94.2125 80.5525 94.0725 80.8325 93.7925C81.1125 93.5075 81.2525 93.0075 81.2525 92.2925V90.605C81.2525 89.89 81.11 89.3925 80.825 89.1125C80.545 88.8275 80.05 88.685 79.34 88.685H78.77C77.99 88.685 77.365 88.8075 76.895 89.0525C76.425 89.2975 76.19 89.67 76.19 90.17V92.7575C76.2 93.2425 76.44 93.6075 76.91 93.8525C77.38 94.0925 78 94.2125 78.77 94.2125Z" fill="#EFEFF7"/>
<path d="M98.6196 18.0371C97.7574 18.028 97.1182 17.8133 96.7023 17.3929C96.2908 16.9682 96.0895 16.3247 96.0986 15.4624L96.1144 13.9675C96.1235 13.1009 96.3382 12.4618 96.7586 12.0502C97.1833 11.6386 97.8268 11.4374 98.689 11.4465L101.211 11.473L101.232 9.45815C101.236 9.09417 101.42 8.9141 101.784 8.91793C102.148 8.92176 102.328 9.10567 102.324 9.46965L102.239 17.5292C102.235 17.8932 102.051 18.0733 101.687 18.0694C101.323 18.0656 101.143 17.8817 101.147 17.5177L101.148 17.4267C100.942 17.6326 100.674 17.7879 100.344 17.8928C100.013 17.9976 99.6033 18.0475 99.1136 18.0423L98.6196 18.0371ZM98.6311 16.9452L99.1251 16.9504C99.6971 16.9564 100.179 16.8878 100.57 16.7446C100.962 16.6014 101.159 16.3781 101.162 16.0748L101.199 12.565L98.6775 12.5384C98.1142 12.5325 97.7297 12.6324 97.5238 12.8383C97.318 13.0398 97.2122 13.42 97.2063 13.979L97.1906 15.4739C97.1846 16.0372 97.2824 16.4218 97.4839 16.6276C97.6898 16.8334 98.0722 16.9393 98.6311 16.9452ZM106.024 18.1151C105.66 18.1113 105.48 17.9274 105.484 17.5634L105.555 10.8557L105.856 10.6509L104.412 11.9748C104.303 12.0776 104.187 12.1392 104.066 12.1596C103.944 12.1757 103.825 12.1246 103.71 12.0064C103.478 11.7699 103.494 11.5231 103.756 11.2658L105.516 9.56827C105.7 9.3882 105.927 9.29958 106.195 9.3024C106.507 9.30569 106.661 9.48932 106.657 9.8533L106.576 17.5749C106.572 17.9389 106.388 18.1189 106.024 18.1151Z" fill="#5C6497"/>
<path d="M82.6196 70.0371C81.7574 70.028 81.1182 69.8133 80.7023 69.3929C80.2908 68.9682 80.0895 68.3247 80.0986 67.4624L80.1144 65.9675C80.1235 65.1009 80.3382 64.4618 80.7586 64.0502C81.1833 63.6386 81.8268 63.4374 82.689 63.4465L85.2109 63.473L85.2321 61.4582C85.236 61.0942 85.4199 60.9141 85.7838 60.9179C86.1478 60.9218 86.3279 61.1057 86.3241 61.4696L86.2392 69.5292C86.2354 69.8932 86.0515 70.0733 85.6875 70.0694C85.3235 70.0656 85.1434 69.8817 85.1473 69.5177L85.1482 69.4267C84.9424 69.6326 84.6742 69.7879 84.3438 69.8928C84.0133 69.9976 83.6033 70.0475 83.1136 70.0423L82.6196 70.0371ZM82.6311 68.9452L83.1251 68.9504C83.6971 68.9564 84.1788 68.8878 84.5704 68.7446C84.9619 68.6014 85.1593 68.3781 85.1624 68.0748L85.1994 64.565L82.6775 64.5384C82.1142 64.5325 81.7297 64.6324 81.5238 64.8383C81.318 65.0398 81.2122 65.42 81.2063 65.979L81.1906 67.4739C81.1846 68.0372 81.2824 68.4218 81.4839 68.6276C81.6898 68.8334 82.0722 68.9393 82.6311 68.9452ZM93.5837 70.1526L88.722 70.1014C88.3493 70.0975 88.1649 69.9135 88.1688 69.5495C88.1749 68.9689 88.2711 68.4759 88.4574 68.0705C88.648 67.6608 88.8878 67.3166 89.1768 67.038C89.4701 66.7551 89.7803 66.5178 90.1073 66.3263C90.4344 66.1304 90.7374 65.9537 91.0165 65.7963C91.5003 65.5284 91.9036 65.2964 92.2263 65.1005C92.5534 64.9046 92.7982 64.7035 92.9607 64.4972C93.1233 64.2909 93.2061 64.0383 93.2092 63.7393C93.2147 63.2236 93.1252 62.876 92.9407 62.6964C92.7606 62.5125 92.4171 62.4179 91.9101 62.4125L90.5192 62.3979C90.1119 62.3936 89.8102 62.4446 89.614 62.5509C89.4179 62.6571 89.2923 62.8573 89.2372 63.1514C89.205 63.3244 89.1452 63.456 89.0575 63.546C88.9699 63.6361 88.8373 63.6802 88.6596 63.6784C88.4776 63.6764 88.3395 63.6273 88.2452 63.531C88.1509 63.4303 88.1134 63.2869 88.1327 63.1008C88.2301 62.4908 88.4754 62.0383 88.8685 61.7435C89.2617 61.4442 89.8157 61.2984 90.5307 61.3059L91.9216 61.3206C92.7363 61.3292 93.3386 61.5327 93.7288 61.9311C94.119 62.3296 94.3098 62.9362 94.3012 63.7508C94.2957 64.2707 94.1633 64.7049 93.9039 65.0532C93.6446 65.3971 93.3056 65.7012 92.8868 65.9655C92.468 66.2254 92.0189 66.4872 91.5394 66.7509C91.1907 66.9465 90.8593 67.1424 90.5452 67.3384C90.2354 67.5345 89.9687 67.7635 89.7449 68.0255C89.5255 68.2876 89.379 68.6175 89.3055 69.0155L93.5952 69.0606C93.9592 69.0645 94.1393 69.2484 94.1354 69.6124C94.1316 69.9763 93.9477 70.1564 93.5837 70.1526Z" fill="#5C6497"/>
<path d="M75.46 56C75.18 56 75.04 55.86 75.04 55.58V49.38C75.04 49.1 75.18 48.96 75.46 48.96C75.74 48.96 75.88 49.1 75.88 49.38V51.465C76.0533 51.2883 76.27 51.155 76.53 51.065C76.79 50.975 77.0933 50.93 77.44 50.93H77.82C78.4867 50.93 78.98 51.09 79.3 51.41C79.62 51.73 79.78 52.2233 79.78 52.89V54.04C79.78 54.7033 79.62 55.1967 79.3 55.52C78.98 55.84 78.4867 56 77.82 56H77.44C77.0933 56 76.79 55.955 76.53 55.865C76.27 55.775 76.0533 55.6433 75.88 55.47V55.58C75.88 55.86 75.74 56 75.46 56ZM77.44 55.16H77.82C78.2567 55.16 78.5517 55.0817 78.705 54.925C78.8617 54.765 78.94 54.47 78.94 54.04V52.89C78.94 52.4533 78.86 52.1583 78.7 52.005C78.5433 51.8483 78.25 51.77 77.82 51.77H77.44C77 51.77 76.63 51.8267 76.33 51.94C76.03 52.05 75.88 52.2233 75.88 52.46V54.47C75.88 54.7033 76.03 54.8767 76.33 54.99C76.63 55.1033 77 55.16 77.44 55.16Z" fill="#5C6497"/>
<path d="M23.76 64C23.0967 64 22.6033 63.84 22.28 63.52C21.96 63.1967 21.8 62.7033 21.8 62.04V60.88C21.8 60.2133 21.9583 59.72 22.275 59.4C22.595 59.08 23.09 58.9233 23.76 58.93H24.58C25.0767 58.93 25.4667 59.0133 25.75 59.18C26.0367 59.3467 26.22 59.6033 26.3 59.95C26.33 60.09 26.305 60.1983 26.225 60.275C26.1483 60.3517 26.0367 60.39 25.89 60.39C25.76 60.39 25.665 60.3567 25.605 60.29C25.545 60.2233 25.49 60.13 25.44 60.01C25.39 59.92 25.2983 59.8583 25.165 59.825C25.0317 59.7883 24.8367 59.77 24.58 59.77H23.76C23.33 59.7633 23.035 59.8383 22.875 59.995C22.7183 60.1483 22.64 60.4433 22.64 60.88V62.04C22.64 62.4733 22.7183 62.7683 22.875 62.925C23.035 63.0817 23.33 63.16 23.76 63.16H24.58C24.8367 63.16 25.0317 63.1433 25.165 63.11C25.2983 63.0733 25.39 63.01 25.44 62.92C25.49 62.7933 25.545 62.6983 25.605 62.635C25.6683 62.5717 25.7667 62.54 25.9 62.54C26.04 62.54 26.1483 62.5783 26.225 62.655C26.305 62.7317 26.33 62.84 26.3 62.98C26.22 63.3233 26.0367 63.58 25.75 63.75C25.4667 63.9167 25.0767 64 24.58 64H23.76Z" fill="#5C6497"/>
<path d="M107.46 60C107.18 60 107.04 59.86 107.04 59.58V53.38C107.04 53.1 107.18 52.96 107.46 52.96C107.74 52.96 107.88 53.1 107.88 53.38V57.135L110.26 55.09C110.473 54.9067 110.67 54.92 110.85 55.13C111.033 55.3433 111.02 55.54 110.81 55.72L108.985 57.295L110.73 59.28C110.917 59.4967 110.907 59.6933 110.7 59.87C110.487 60.0533 110.287 60.04 110.1 59.83L108.345 57.85L107.88 58.25V59.58C107.88 59.86 107.74 60 107.46 60Z" fill="#5C6497"/>
<path d="M56.6 40C56.04 40 55.6233 39.8633 55.35 39.59C55.0767 39.3167 54.94 38.9 54.94 38.34C54.94 37.78 55.075 37.3633 55.345 37.09C55.6183 36.8167 56.0367 36.68 56.6 36.68H58.715C58.695 36.33 58.6033 36.0917 58.44 35.965C58.2767 35.835 57.9967 35.77 57.6 35.77H57.02C56.6867 35.77 56.4383 35.7933 56.275 35.84C56.1117 35.8833 55.9967 35.9633 55.93 36.08C55.87 36.22 55.8083 36.3167 55.745 36.37C55.6817 36.4233 55.5867 36.45 55.46 36.45C55.32 36.45 55.21 36.4117 55.13 36.335C55.05 36.255 55.0267 36.15 55.06 36.02C55.16 35.6433 55.3683 35.3683 55.685 35.195C56.005 35.0183 56.45 34.93 57.02 34.93H57.6C58.2667 34.93 58.76 35.09 59.08 35.41C59.4 35.73 59.56 36.2233 59.56 36.89V39.58C59.56 39.86 59.42 40 59.14 40C58.86 40 58.72 39.86 58.72 39.58V39.355C58.3633 39.785 57.8433 40 57.16 40H56.6ZM56.6 39.16H57.16C57.4067 39.16 57.6383 39.1383 57.855 39.095C58.0717 39.0483 58.2567 38.965 58.41 38.845C58.5667 38.725 58.67 38.5533 58.72 38.33V37.52H56.6C56.27 37.52 56.05 37.575 55.94 37.685C55.8333 37.795 55.78 38.0133 55.78 38.34C55.78 38.67 55.8333 38.89 55.94 39C56.05 39.1067 56.27 39.16 56.6 39.16Z" fill="#5C6497"/>
<path d="M35.314 45C35.062 45 34.936 44.874 34.936 44.622V39.042C34.936 38.79 35.062 38.664 35.314 38.664C35.566 38.664 35.692 38.79 35.692 39.042V40.9635C36.01 40.6125 36.478 40.437 37.096 40.437H37.348C37.948 40.437 38.392 40.581 38.68 40.869C38.968 41.157 39.112 41.601 39.112 42.201V44.622C39.112 44.874 38.986 45 38.734 45C38.482 45 38.356 44.874 38.356 44.622V42.201C38.356 41.808 38.284 41.5425 38.14 41.4045C37.999 41.2635 37.735 41.193 37.348 41.193H37.096C36.736 41.193 36.4225 41.235 36.1555 41.319C35.8885 41.4 35.734 41.529 35.692 41.706V44.622C35.692 44.874 35.566 45 35.314 45ZM42.182 45C41.93 45 41.804 44.874 41.804 44.622V39.978L42.011 39.834L41.021 40.761C40.946 40.833 40.8665 40.8765 40.7825 40.8915C40.6985 40.9035 40.616 40.869 40.535 40.788C40.373 40.626 40.382 40.455 40.562 40.275L41.768 39.087C41.894 38.961 42.05 38.898 42.236 38.898C42.452 38.898 42.56 39.024 42.56 39.276V44.622C42.56 44.874 42.434 45 42.182 45Z" fill="#AEB2CD"/>
<path d="M75.314 12C75.062 12 74.936 11.874 74.936 11.622V6.042C74.936 5.79 75.062 5.664 75.314 5.664C75.566 5.664 75.692 5.79 75.692 6.042V7.9635C76.01 7.6125 76.478 7.437 77.096 7.437H77.348C77.948 7.437 78.392 7.581 78.68 7.869C78.968 8.157 79.112 8.601 79.112 9.201V11.622C79.112 11.874 78.986 12 78.734 12C78.482 12 78.356 11.874 78.356 11.622V9.201C78.356 8.808 78.284 8.5425 78.14 8.4045C77.999 8.2635 77.735 8.193 77.348 8.193H77.096C76.736 8.193 76.4225 8.235 76.1555 8.319C75.8885 8.4 75.734 8.529 75.692 8.706V11.622C75.692 11.874 75.566 12 75.314 12ZM84.198 12H80.832C80.574 12 80.445 11.874 80.445 11.622C80.445 11.22 80.508 10.878 80.634 10.596C80.763 10.311 80.9265 10.071 81.1245 9.876C81.3255 9.678 81.5385 9.5115 81.7635 9.3765C81.9885 9.2385 82.197 9.114 82.389 9.003C82.722 8.814 82.9995 8.6505 83.2215 8.5125C83.4465 8.3745 83.6145 8.2335 83.7255 8.0895C83.8365 7.9455 83.892 7.77 83.892 7.563C83.892 7.206 83.8275 6.966 83.6985 6.843C83.5725 6.717 83.334 6.654 82.983 6.654H82.02C81.738 6.654 81.5295 6.6915 81.3945 6.7665C81.2595 6.8415 81.174 6.981 81.138 7.185C81.117 7.305 81.0765 7.3965 81.0165 7.4595C80.9565 7.5225 80.865 7.554 80.742 7.554C80.616 7.554 80.52 7.521 80.454 7.455C80.388 7.386 80.361 7.287 80.373 7.158C80.436 6.735 80.6025 6.42 80.8725 6.213C81.1425 6.003 81.525 5.898 82.02 5.898H82.983C83.547 5.898 83.9655 6.0345 84.2385 6.3075C84.5115 6.5805 84.648 6.999 84.648 7.563C84.648 7.923 84.5595 8.2245 84.3825 8.4675C84.2055 8.7075 83.973 8.9205 83.685 9.1065C83.397 9.2895 83.088 9.474 82.758 9.66C82.518 9.798 82.29 9.936 82.074 10.074C81.861 10.212 81.678 10.3725 81.525 10.5555C81.375 10.7385 81.276 10.968 81.228 11.244H84.198C84.45 11.244 84.576 11.37 84.576 11.622C84.576 11.874 84.45 12 84.198 12Z" fill="#AEB2CD"/>
</svg>
