<svg width="155" height="183" viewBox="0 0 155 183" fill="none" xmlns="http://www.w3.org/2000/svg">
<path d="M52.6221 156.147C52 151.5 50.4992 150.5 46.4996 150" stroke="#ADABD2" stroke-width="2"/>
<path d="M11.9199 137.613C19 131 17.5 127.5 16.9994 122.5" stroke="#ADABD2" stroke-width="2"/>
<path d="M78.5 4L133.5 145" stroke="#ADABD2" stroke-width="2"/>
<path d="M78.5 136L133 145.5" stroke="#ADABD2" stroke-width="2" stroke-linecap="round"/>
<path d="M77 98.5L1 129" stroke="white" stroke-dasharray="4 4"/>
<path d="M77 98.5L154 129" stroke="white" stroke-dasharray="4 4"/>
<path d="M4.51 163C3.73 163 3.1575 162.82 2.7925 162.46C2.4325 162.095 2.2525 161.522 2.2525 160.742C2.2525 159.962 2.435 159.39 2.8 159.025C3.165 158.66 3.735 158.477 4.51 158.477H7.9225C7.9125 157.817 7.7625 157.357 7.4725 157.097C7.1875 156.832 6.7 156.7 6.01 156.7H5.14C4.505 156.7 4.04 156.767 3.745 156.902C3.45 157.037 3.2675 157.267 3.1975 157.592C3.1625 157.717 3.115 157.81 3.055 157.87C3 157.925 2.91 157.952 2.785 157.952C2.655 157.952 2.5525 157.917 2.4775 157.847C2.4075 157.772 2.3825 157.672 2.4025 157.547C2.4675 156.977 2.725 156.562 3.175 156.302C3.63 156.042 4.285 155.912 5.14 155.912H6.01C6.945 155.912 7.6275 156.13 8.0575 156.565C8.4925 156.995 8.71 157.677 8.71 158.612V162.602C8.71 162.867 8.58 163 8.32 163C8.055 163 7.9225 162.867 7.9225 162.602V161.86C7.4425 162.62 6.585 163 5.35 163H4.51ZM4.51 162.212H5.35C5.835 162.212 6.26 162.16 6.625 162.055C6.995 161.945 7.2925 161.77 7.5175 161.53C7.7425 161.29 7.8775 160.97 7.9225 160.57V159.265H4.51C3.955 159.265 3.57 159.372 3.355 159.587C3.145 159.797 3.04 160.182 3.04 160.742C3.04 161.297 3.145 161.682 3.355 161.898C3.57 162.107 3.955 162.212 4.51 162.212Z" fill="#EFEFF7"/>
<path d="M12.8 67C12.535 67 12.4025 66.8675 12.4025 66.6025V56.9875C12.4025 56.7275 12.535 56.5975 12.8 56.5975C13.06 56.5975 13.19 56.7275 13.19 56.9875V60.955C13.415 60.61 13.735 60.3475 14.15 60.1675C14.57 59.9875 15.11 59.8975 15.77 59.8975H16.34C17.275 59.8975 17.9575 60.115 18.3875 60.55C18.8225 60.985 19.04 61.67 19.04 62.605V64.2925C19.04 65.2275 18.8225 65.9125 18.3875 66.3475C17.9575 66.7825 17.275 67 16.34 67H15.77C15.11 67 14.57 66.9125 14.15 66.7375C13.735 66.5575 13.415 66.2925 13.19 65.9425V66.6025C13.19 66.8675 13.06 67 12.8 67ZM15.77 66.2125H16.34C17.055 66.2125 17.5525 66.0725 17.8325 65.7925C18.1125 65.5075 18.2525 65.0075 18.2525 64.2925V62.605C18.2525 61.89 18.11 61.3925 17.825 61.1125C17.545 60.8275 17.05 60.685 16.34 60.685H15.77C14.99 60.685 14.365 60.8075 13.895 61.0525C13.425 61.2975 13.19 61.67 13.19 62.17V64.7575C13.2 65.2425 13.44 65.6075 13.91 65.8525C14.38 66.0925 15 66.2125 15.77 66.2125Z" fill="#EFEFF7"/>
<path d="M84.9375 90.0193C84.5736 90.0155 84.3935 89.8316 84.3973 89.4676L84.4822 81.408C84.486 81.0441 84.6699 80.864 85.0339 80.8678C85.3979 80.8717 85.578 81.0556 85.5741 81.4195L85.5449 84.1949C86.0096 83.6928 86.6882 83.4464 87.5808 83.4558L87.9448 83.4596C88.8114 83.4687 89.4505 83.6835 89.8621 84.1038C90.2737 84.5242 90.4749 85.1677 90.4658 86.0343L90.429 89.5311C90.4252 89.8951 90.2413 90.0752 89.8773 90.0713C89.5133 90.0675 89.3332 89.8836 89.3371 89.5196L89.3739 86.0228C89.3799 85.4552 89.2799 85.0706 89.074 84.8691C88.8725 84.6633 88.4923 84.5574 87.9333 84.5516L87.5693 84.5477C87.0493 84.5423 86.5959 84.5981 86.209 84.7154C85.8221 84.8283 85.597 85.0123 85.5336 85.2673L85.4893 89.4791C85.4854 89.8431 85.3015 90.0232 84.9375 90.0193Z" fill="#EFEFF7"/>
<path d="M120.354 90.0342C119.692 90.0273 119.199 89.8596 118.878 89.5312C118.561 89.1985 118.405 88.7006 118.412 88.0377L118.482 81.408C118.486 81.0441 118.67 80.864 119.034 80.8678C119.398 80.8717 119.578 81.0556 119.574 81.4195L119.504 88.0492C119.501 88.4002 119.554 88.6369 119.666 88.7594C119.782 88.8776 120.015 88.9386 120.366 88.9423C120.739 88.9462 120.923 89.1302 120.919 89.4942C120.928 89.8583 120.74 90.0383 120.354 90.0342Z" fill="#EFEFF7"/>
<path d="M130.5 137C127.947 134.824 121.077 139.049 124.345 144.378" stroke="#ADABD2" stroke-width="2"/>
<path d="M23.34 133C22.836 133 22.461 132.877 22.215 132.631C21.969 132.385 21.846 132.01 21.846 131.506C21.846 131.002 21.9675 130.627 22.2105 130.381C22.4565 130.135 22.833 130.012 23.34 130.012H25.2435C25.2255 129.697 25.143 129.482 24.996 129.368C24.849 129.251 24.597 129.193 24.24 129.193H23.718C23.418 129.193 23.1945 129.214 23.0475 129.256C22.9005 129.295 22.797 129.367 22.737 129.472C22.683 129.598 22.6275 129.685 22.5705 129.733C22.5135 129.781 22.428 129.805 22.314 129.805C22.188 129.805 22.089 129.77 22.017 129.701C21.945 129.629 21.924 129.535 21.954 129.418C22.044 129.079 22.2315 128.831 22.5165 128.675C22.8045 128.516 23.205 128.437 23.718 128.437H24.24C24.84 128.437 25.284 128.581 25.572 128.869C25.86 129.157 26.004 129.601 26.004 130.201V132.622C26.004 132.874 25.878 133 25.626 133C25.374 133 25.248 132.874 25.248 132.622V132.419C24.927 132.806 24.459 133 23.844 133H23.34ZM23.34 132.244H23.844C24.066 132.244 24.2745 132.224 24.4695 132.185C24.6645 132.143 24.831 132.068 24.969 131.96C25.11 131.852 25.203 131.698 25.248 131.497V130.768H23.34C23.043 130.768 22.845 130.817 22.746 130.916C22.65 131.015 22.602 131.212 22.602 131.506C22.602 131.803 22.65 132.001 22.746 132.1C22.845 132.196 23.043 132.244 23.34 132.244Z" fill="white"/>
<path d="M115.314 134C115.062 134 114.936 133.874 114.936 133.622V128.042C114.936 127.79 115.062 127.664 115.314 127.664C115.566 127.664 115.692 127.79 115.692 128.042V129.918C115.848 129.759 116.043 129.639 116.277 129.558C116.511 129.477 116.784 129.437 117.096 129.437H117.438C118.038 129.437 118.482 129.581 118.77 129.869C119.058 130.157 119.202 130.601 119.202 131.201V132.236C119.202 132.833 119.058 133.277 118.77 133.568C118.482 133.856 118.038 134 117.438 134H117.096C116.784 134 116.511 133.959 116.277 133.878C116.043 133.797 115.848 133.679 115.692 133.523V133.622C115.692 133.874 115.566 134 115.314 134ZM117.096 133.244H117.438C117.831 133.244 118.097 133.173 118.235 133.032C118.376 132.888 118.446 132.623 118.446 132.236V131.201C118.446 130.808 118.374 130.542 118.23 130.404C118.089 130.263 117.825 130.193 117.438 130.193H117.096C116.7 130.193 116.367 130.244 116.097 130.346C115.827 130.445 115.692 130.601 115.692 130.814V132.623C115.692 132.833 115.827 132.989 116.097 133.091C116.367 133.193 116.7 133.244 117.096 133.244Z" fill="white"/>
<path d="M54.484 144C53.887 144 53.443 143.856 53.152 143.568C52.864 143.277 52.72 142.833 52.72 142.236V141.192C52.72 140.592 52.8625 140.148 53.1475 139.86C53.4355 139.572 53.881 139.431 54.484 139.437H55.222C55.669 139.437 56.02 139.512 56.275 139.662C56.533 139.812 56.698 140.043 56.77 140.355C56.797 140.481 56.7745 140.578 56.7025 140.647C56.6335 140.716 56.533 140.751 56.401 140.751C56.284 140.751 56.1985 140.721 56.1445 140.661C56.0905 140.601 56.041 140.517 55.996 140.409C55.951 140.328 55.8685 140.272 55.7485 140.242C55.6285 140.209 55.453 140.193 55.222 140.193H54.484C54.097 140.187 53.8315 140.254 53.6875 140.395C53.5465 140.533 53.476 140.799 53.476 141.192V142.236C53.476 142.626 53.5465 142.891 53.6875 143.032C53.8315 143.173 54.097 143.244 54.484 143.244H55.222C55.453 143.244 55.6285 143.229 55.7485 143.199C55.8685 143.166 55.951 143.109 55.996 143.028C56.041 142.914 56.0905 142.828 56.1445 142.771C56.2015 142.714 56.29 142.686 56.41 142.686C56.536 142.686 56.6335 142.72 56.7025 142.789C56.7745 142.858 56.797 142.956 56.77 143.082C56.698 143.391 56.533 143.622 56.275 143.775C56.02 143.925 55.669 144 55.222 144H54.484Z" fill="white"/>
<path d="M78 3V135.5L44 162.5" stroke="#ADABD2" stroke-width="2"/>
<path d="M78 1.5L1 129L43.5 163.5M78 1.5L154 129L112 163.5M78 1.5L43.5 163.5M78 1.5L112 163.5M43.5 163.5H112" stroke="white"/>
</svg>
