<svg width="220" height="216" viewBox="0 0 220 216" fill="none" xmlns="http://www.w3.org/2000/svg">
<circle cx="107.999" cy="107.999" r="107.499" stroke="#EFEFF7" stroke-opacity="0.3"/>
<path d="M162.46 17.0527H53.5383L1.89453 111.298L53.5383 198.946H162.46L214.103 111.298L162.46 17.0527Z" fill="#EFEFF7"/>
<circle cx="107.999" cy="107.999" r="3.78944" fill="#5C6497"/>
<path d="M202.236 107.999C202.236 157.937 160.483 198.446 108.947 198.446C57.3928 198.446 15.6582 162.639 15.6582 107.999C15.6582 60.9118 57.4206 17.5527 108.947 17.5527C134.684 17.5527 158.008 29.7927 174.906 47.2424C191.81 64.6973 202.236 87.3149 202.236 107.999Z" stroke="#888EB4"/>
<path d="M162.946 17.0524L107.999 107.999" stroke="#5C6497"/>
<path d="M189.472 68.2098L106.104 107.558" stroke="#5C6497"/>
<path d="M208.905 125.338C198.199 125.908 188.653 104.417 206.861 97.478" stroke="#5C6497" stroke-width="0.5"/>
<path d="M185.088 111.104C184.808 111.104 184.6 111.036 184.463 110.899C184.326 110.763 184.258 110.554 184.258 110.274C184.258 109.994 184.326 109.786 184.461 109.649C184.597 109.513 184.806 109.444 185.088 109.444H186.146C186.136 109.269 186.09 109.15 186.008 109.087C185.926 109.022 185.786 108.989 185.588 108.989H185.298C185.131 108.989 185.007 109.001 184.926 109.024C184.844 109.046 184.786 109.086 184.753 109.144C184.723 109.214 184.692 109.263 184.661 109.289C184.629 109.316 184.581 109.329 184.518 109.329C184.448 109.329 184.393 109.31 184.353 109.272C184.313 109.232 184.301 109.179 184.318 109.114C184.368 108.926 184.472 108.789 184.631 108.702C184.791 108.614 185.013 108.569 185.298 108.569H185.588C185.921 108.569 186.168 108.649 186.328 108.809C186.488 108.969 186.568 109.216 186.568 109.549V110.894C186.568 111.034 186.498 111.104 186.358 111.104C186.218 111.104 186.148 111.034 186.148 110.894V110.782C185.97 110.997 185.71 111.104 185.368 111.104H185.088ZM185.088 110.684H185.368C185.491 110.684 185.607 110.674 185.716 110.652C185.824 110.629 185.916 110.587 185.993 110.527C186.071 110.467 186.123 110.381 186.148 110.269V109.864H185.088C184.923 109.864 184.813 109.892 184.758 109.947C184.705 110.002 184.678 110.111 184.678 110.274C184.678 110.439 184.705 110.549 184.758 110.604C184.813 110.658 184.923 110.684 185.088 110.684Z" fill="#5C6497"/>
<path d="M35.33 67.8418C34.658 67.8418 34.158 67.6778 33.83 67.3498C33.502 67.0218 33.338 66.5218 33.338 65.8498C33.338 65.1778 33.5 64.6778 33.824 64.3498C34.152 64.0218 34.654 63.8578 35.33 63.8578H37.868C37.844 63.4378 37.734 63.1518 37.538 62.9998C37.342 62.8438 37.006 62.7658 36.53 62.7658H35.834C35.434 62.7658 35.136 62.7938 34.94 62.8498C34.744 62.9018 34.606 62.9978 34.526 63.1378C34.454 63.3058 34.38 63.4218 34.304 63.4858C34.228 63.5498 34.114 63.5818 33.962 63.5818C33.794 63.5818 33.662 63.5358 33.566 63.4438C33.47 63.3478 33.442 63.2218 33.482 63.0658C33.602 62.6138 33.852 62.2838 34.232 62.0758C34.616 61.8638 35.15 61.7578 35.834 61.7578H36.53C37.33 61.7578 37.922 61.9498 38.306 62.3338C38.69 62.7178 38.882 63.3098 38.882 64.1098V67.3378C38.882 67.6738 38.714 67.8418 38.378 67.8418C38.042 67.8418 37.874 67.6738 37.874 67.3378V67.0678C37.446 67.5838 36.822 67.8418 36.002 67.8418H35.33ZM35.33 66.8338H36.002C36.298 66.8338 36.576 66.8078 36.836 66.7558C37.096 66.6998 37.318 66.5998 37.502 66.4558C37.69 66.3118 37.814 66.1058 37.874 65.8378V64.8658H35.33C34.934 64.8658 34.67 64.9318 34.538 65.0638C34.41 65.1958 34.346 65.4578 34.346 65.8498C34.346 66.2458 34.41 66.5098 34.538 66.6418C34.67 66.7698 34.934 66.8338 35.33 66.8338Z" fill="#5C6497"/>
<path d="M172.74 81.0582C172.574 80.7343 172.652 80.4893 172.976 80.3232L177.87 77.8142C178.194 77.6481 178.439 77.727 178.605 78.0509C178.771 78.3748 178.692 78.6198 178.368 78.7859L177.917 79.0172C178.342 79.0866 178.723 79.2561 179.061 79.526C179.401 79.7997 179.688 80.164 179.921 80.619C180.087 80.9429 180.009 81.1879 179.685 81.354C179.361 81.5201 179.116 81.4412 178.95 81.1173C178.608 80.4502 178.223 80.0045 177.797 79.7801C177.37 79.5557 176.949 79.5377 176.534 79.726L173.475 81.2949C173.151 81.461 172.906 81.3821 172.74 81.0582Z" fill="#5C6497"/>
<path d="M172.74 81.0582C172.574 80.7343 172.652 80.4893 172.976 80.3232L177.87 77.8142C178.194 77.6481 178.439 77.727 178.605 78.0509C178.771 78.3748 178.692 78.6198 178.368 78.7859L177.917 79.0172C178.342 79.0866 178.723 79.2561 179.061 79.526C179.401 79.7997 179.688 80.164 179.921 80.619C180.087 80.9429 180.009 81.1879 179.685 81.354C179.361 81.5201 179.116 81.4412 178.95 81.1173C178.608 80.4502 178.223 80.0045 177.797 79.7801C177.37 79.5557 176.949 79.5377 176.534 79.726L173.475 81.2949C173.151 81.461 172.906 81.3821 172.74 81.0582Z" fill="#5C6497"/>
<path d="M127.515 49.9102C127.346 49.9243 127.212 49.8859 127.113 49.7948C127.014 49.7037 126.958 49.5737 126.944 49.4048L126.717 45.4987L125.105 44.6534L123.728 47.2783C123.559 47.6007 123.314 47.6773 122.991 47.5083C122.669 47.3392 122.592 47.0935 122.761 46.7711L126.348 39.9325C126.517 39.6101 126.763 39.5335 127.085 39.7026L129.779 41.1154C130.481 41.4837 130.92 41.9535 131.095 42.5248C131.276 43.0943 131.182 43.7302 130.814 44.4325L130.633 44.7778C130.313 45.388 129.915 45.8009 129.44 46.0166C128.967 46.2284 128.438 46.2375 127.855 46.044L128.044 49.3505C128.049 49.6956 127.873 49.8822 127.515 49.9102ZM125.612 43.6863L127.823 44.8456C128.26 45.075 128.619 45.1459 128.9 45.0583C129.181 44.9707 129.436 44.7082 129.666 44.2707L129.847 43.9253C130.074 43.4916 130.144 43.1344 130.056 42.8536C129.971 42.5689 129.709 42.3119 129.272 42.0825L127.061 40.9232L125.612 43.6863Z" fill="#5C6497"/>
</svg>
