<svg width="167" height="220" viewBox="0 0 167 220" fill="none" xmlns="http://www.w3.org/2000/svg">
<path d="M70.0283 185.954L70.0141 185.953H70C52.4462 185.953 36.6036 182.452 25.1865 176.837C13.7048 171.19 7 163.577 7 155.477C7 147.322 13.24 139.153 24.4049 133.251C35.5275 127.371 51.3386 123.871 69.9395 124.998C86.3598 125.994 102.231 129.351 113.963 134.658C125.765 139.997 132.983 147.111 133 155.447C132.516 163.417 125.747 171.283 114.417 177.083C103.129 182.862 87.5494 186.449 70.0283 185.954Z" stroke="#A3A2CB" stroke-width="2"/>
<path d="M41 1.5L37.5 124" stroke="#EFEFF7"/>
<path d="M101 1L96.5 124" stroke="#EFEFF7"/>
<path d="M104.51 200C103.73 200 103.158 199.82 102.793 199.46C102.433 199.095 102.253 198.522 102.253 197.742C102.253 196.962 102.435 196.39 102.8 196.025C103.165 195.66 103.735 195.477 104.51 195.477H107.923C107.913 194.817 107.763 194.357 107.473 194.097C107.188 193.832 106.7 193.7 106.01 193.7H105.14C104.505 193.7 104.04 193.767 103.745 193.902C103.45 194.037 103.268 194.267 103.198 194.592C103.163 194.717 103.115 194.81 103.055 194.87C103 194.925 102.91 194.952 102.785 194.952C102.655 194.952 102.553 194.917 102.478 194.847C102.408 194.772 102.383 194.672 102.403 194.547C102.468 193.977 102.725 193.562 103.175 193.302C103.63 193.042 104.285 192.912 105.14 192.912H106.01C106.945 192.912 107.628 193.13 108.058 193.565C108.493 193.995 108.71 194.677 108.71 195.612V199.602C108.71 199.867 108.58 200 108.32 200C108.055 200 107.923 199.867 107.923 199.602V198.86C107.443 199.62 106.585 200 105.35 200H104.51ZM104.51 199.212H105.35C105.835 199.212 106.26 199.16 106.625 199.055C106.995 198.945 107.293 198.77 107.518 198.53C107.743 198.29 107.878 197.97 107.923 197.57V196.265H104.51C103.955 196.265 103.57 196.372 103.355 196.587C103.145 196.797 103.04 197.182 103.04 197.742C103.04 198.297 103.145 198.682 103.355 198.898C103.57 199.107 103.955 199.212 104.51 199.212Z" fill="#EFEFF7"/>
<path d="M149.8 103C149.535 103 149.403 102.867 149.403 102.602V92.9875C149.403 92.7275 149.535 92.5975 149.8 92.5975C150.06 92.5975 150.19 92.7275 150.19 92.9875V97.0225C150.665 96.2825 151.525 95.9125 152.77 95.9125H153.19C154.125 95.9125 154.808 96.13 155.238 96.565C155.673 96.995 155.89 97.6775 155.89 98.6125V102.602C155.89 102.867 155.76 103 155.5 103C155.235 103 155.103 102.867 155.103 102.602V98.6125C155.103 97.8975 154.96 97.4 154.675 97.12C154.395 96.84 153.9 96.7 153.19 96.7H152.77C151.995 96.7 151.385 96.8225 150.94 97.0675C150.495 97.3125 150.245 97.695 150.19 98.215V102.602C150.19 102.867 150.06 103 149.8 103Z" fill="#EFEFF7"/>
<path d="M96.8 155C96.535 155 96.4025 154.867 96.4025 154.602V148.302C96.4025 148.042 96.535 147.912 96.8 147.912C97.06 147.912 97.19 148.042 97.19 148.302V149.457C97.45 148.957 97.825 148.575 98.315 148.31C98.81 148.045 99.395 147.912 100.07 147.912C100.335 147.912 100.468 148.042 100.468 148.302C100.468 148.567 100.335 148.7 100.07 148.7C99.18 148.7 98.49 148.902 98 149.307C97.51 149.707 97.24 150.28 97.19 151.025V154.602C97.19 154.867 97.06 155 96.8 155Z" fill="#EFEFF7"/>
<path d="M80.9425 138.015C80.8325 138.08 80.7325 138.103 80.6425 138.083C80.5525 138.063 80.4725 138 80.4025 137.895L77.9425 133.98H75.19V137.602C75.19 137.867 75.06 138 74.8 138C74.535 138 74.4025 137.867 74.4025 137.602V128.73C74.4025 128.465 74.535 128.332 74.8 128.332H78.31C79.165 128.332 79.81 128.552 80.245 128.992C80.685 129.432 80.905 130.08 80.905 130.935V131.385C80.905 132.14 80.7325 132.732 80.3875 133.162C80.0425 133.592 79.5325 133.855 78.8575 133.95L81.07 137.475C81.21 137.705 81.1675 137.885 80.9425 138.015ZM75.19 133.192H78.31C78.94 133.192 79.3975 133.05 79.6825 132.765C79.9725 132.475 80.1175 132.015 80.1175 131.385V130.935C80.1175 130.3 79.9725 129.84 79.6825 129.555C79.3975 129.265 78.94 129.12 78.31 129.12H75.19V133.192Z" fill="#EFEFF7"/>
<path d="M71 154L97 124.5" stroke="#ADABD2" stroke-width="2"/>
<path d="M70.5 154L117 135.5" stroke="#ADABD2" stroke-width="2"/>
<path d="M127.001 141.5C118.5 147 120 159 129.631 164.91" stroke="#ADABD2" stroke-width="2"/>
<path d="M1 22.5L14.5 51M1 22.5L40.5 1H101L141 22.5M1 22.5V147M14.5 51L72.5 63.5M14.5 51V177.5M72.5 63.5L129 51M72.5 63.5L69.5 191M129 51L141 22.5M129 51L126 177.5M141 22.5L138 147M1 147L14.5 177.5M1 147L37.5 124H96.5L138 147M14.5 177.5L69.5 191M69.5 191L126 177.5M126 177.5L138 147" stroke="#EFEFF7"/>
<path d="M113.34 157C112.836 157 112.461 156.877 112.215 156.631C111.969 156.385 111.846 156.01 111.846 155.506C111.846 155.002 111.968 154.627 112.211 154.381C112.457 154.135 112.833 154.012 113.34 154.012H115.244C115.226 153.697 115.143 153.482 114.996 153.368C114.849 153.251 114.597 153.193 114.24 153.193H113.718C113.418 153.193 113.195 153.214 113.048 153.256C112.901 153.295 112.797 153.367 112.737 153.472C112.683 153.598 112.628 153.685 112.571 153.733C112.514 153.781 112.428 153.805 112.314 153.805C112.188 153.805 112.089 153.77 112.017 153.701C111.945 153.629 111.924 153.535 111.954 153.418C112.044 153.079 112.232 152.831 112.517 152.675C112.805 152.516 113.205 152.437 113.718 152.437H114.24C114.84 152.437 115.284 152.581 115.572 152.869C115.86 153.157 116.004 153.601 116.004 154.201V156.622C116.004 156.874 115.878 157 115.626 157C115.374 157 115.248 156.874 115.248 156.622V156.419C114.927 156.806 114.459 157 113.844 157H113.34ZM113.34 156.244H113.844C114.066 156.244 114.275 156.224 114.47 156.185C114.665 156.143 114.831 156.068 114.969 155.96C115.11 155.852 115.203 155.698 115.248 155.497V154.768H113.34C113.043 154.768 112.845 154.817 112.746 154.916C112.65 155.015 112.602 155.212 112.602 155.506C112.602 155.803 112.65 156.001 112.746 156.1C112.845 156.196 113.043 156.244 113.34 156.244Z" fill="white"/>
</svg>
