<svg width="117" height="114" viewBox="0 0 117 114" fill="none" xmlns="http://www.w3.org/2000/svg">
<circle cx="57" cy="57" r="56.5" stroke="#EFEFF7" stroke-opacity="0.3"/>
<path d="M85.7434 9H28.2566L1 58.7409L28.2566 105H85.7434L113 58.7409L85.7434 9Z" fill="#EFEFF7"/>
<circle cx="57" cy="57" r="2" fill="#5C6497"/>
<path d="M106.5 57C106.5 83.2191 84.5766 104.5 57.5 104.5C30.4058 104.5 8.5 85.6927 8.5 57C8.5 32.2805 30.4337 9.5 57.5 9.5C71.0072 9.5 83.2589 15.9243 92.1426 25.0978C101.031 34.2766 106.5 46.1575 106.5 57Z" stroke="#888EB4"/>
<path d="M86 9L57 57" stroke="#5C6497"/>
<path d="M100 36L56 56.7671" stroke="#5C6497"/>
<path d="M110.256 66.1515C104.606 66.4521 99.5676 55.1096 109.178 51.4472" stroke="#5C6497" stroke-width="0.5"/>
<path d="M98.3 61C98.02 61 97.8117 60.9317 97.675 60.795C97.5383 60.6583 97.47 60.45 97.47 60.17C97.47 59.89 97.5375 59.6817 97.6725 59.545C97.8092 59.4083 98.0183 59.34 98.3 59.34H99.3575C99.3475 59.165 99.3017 59.0458 99.22 58.9825C99.1383 58.9175 98.9983 58.885 98.8 58.885H98.51C98.3433 58.885 98.2192 58.8967 98.1375 58.92C98.0558 58.9417 97.9983 58.9817 97.965 59.04C97.935 59.11 97.9042 59.1583 97.8725 59.185C97.8408 59.2117 97.7933 59.225 97.73 59.225C97.66 59.225 97.605 59.2058 97.565 59.1675C97.525 59.1275 97.5133 59.075 97.53 59.01C97.58 58.8217 97.6842 58.6842 97.8425 58.5975C98.0025 58.5092 98.225 58.465 98.51 58.465H98.8C99.1333 58.465 99.38 58.545 99.54 58.705C99.7 58.865 99.78 59.1117 99.78 59.445V60.79C99.78 60.93 99.71 61 99.57 61C99.43 61 99.36 60.93 99.36 60.79V60.6775C99.1817 60.8925 98.9217 61 98.58 61H98.3ZM98.3 60.58H98.58C98.7033 60.58 98.8192 60.5692 98.9275 60.5475C99.0358 60.5242 99.1283 60.4825 99.205 60.4225C99.2833 60.3625 99.335 60.2767 99.36 60.165V59.76H98.3C98.135 59.76 98.025 59.7875 97.97 59.8425C97.9167 59.8975 97.89 60.0067 97.89 60.17C97.89 60.335 97.9167 60.445 97.97 60.5C98.025 60.5533 98.135 60.58 98.3 60.58Z" fill="#5C6497"/>
<path d="M20.12 41C19.448 41 18.948 40.836 18.62 40.508C18.292 40.18 18.128 39.68 18.128 39.008C18.128 38.336 18.29 37.836 18.614 37.508C18.942 37.18 19.444 37.016 20.12 37.016H22.658C22.634 36.596 22.524 36.31 22.328 36.158C22.132 36.002 21.796 35.924 21.32 35.924H20.624C20.224 35.924 19.926 35.952 19.73 36.008C19.534 36.06 19.396 36.156 19.316 36.296C19.244 36.464 19.17 36.58 19.094 36.644C19.018 36.708 18.904 36.74 18.752 36.74C18.584 36.74 18.452 36.694 18.356 36.602C18.26 36.506 18.232 36.38 18.272 36.224C18.392 35.772 18.642 35.442 19.022 35.234C19.406 35.022 19.94 34.916 20.624 34.916H21.32C22.12 34.916 22.712 35.108 23.096 35.492C23.48 35.876 23.672 36.468 23.672 37.268V40.496C23.672 40.832 23.504 41 23.168 41C22.832 41 22.664 40.832 22.664 40.496V40.226C22.236 40.742 21.612 41 20.792 41H20.12ZM20.12 39.992H20.792C21.088 39.992 21.366 39.966 21.626 39.914C21.886 39.858 22.108 39.758 22.292 39.614C22.48 39.47 22.604 39.264 22.664 38.996V38.024H20.12C19.724 38.024 19.46 38.09 19.328 38.222C19.2 38.354 19.136 38.616 19.136 39.008C19.136 39.404 19.2 39.668 19.328 39.8C19.46 39.928 19.724 39.992 20.12 39.992Z" fill="#5C6497"/>
<path d="M86.5356 46.1642C86.3695 45.8403 86.4484 45.5953 86.7723 45.4292L91.6655 42.9202C91.9894 42.7541 92.2344 42.833 92.4005 43.1569C92.5666 43.4808 92.4877 43.7258 92.1638 43.8919L91.7126 44.1232C92.1378 44.1925 92.5193 44.3621 92.8573 44.6319C93.1973 44.9056 93.484 45.27 93.7173 45.725C93.8834 46.0489 93.8045 46.2939 93.4806 46.4599C93.1567 46.626 92.9117 46.5471 92.7456 46.2232C92.4035 45.5561 92.0192 45.1104 91.5925 44.8861C91.1658 44.6617 90.745 44.6437 90.3303 44.832L87.2705 46.4009C86.9466 46.567 86.7016 46.4881 86.5356 46.1642Z" fill="#5C6497"/>
<path d="M86.5356 46.1642C86.3695 45.8403 86.4484 45.5953 86.7723 45.4292L91.6655 42.9202C91.9894 42.7541 92.2344 42.833 92.4005 43.1569C92.5666 43.4808 92.4877 43.7258 92.1638 43.8919L91.7126 44.1232C92.1378 44.1925 92.5193 44.3621 92.8573 44.6319C93.1973 44.9056 93.484 45.27 93.7173 45.725C93.8834 46.0489 93.8045 46.2939 93.4806 46.4599C93.1567 46.626 92.9117 46.5471 92.7456 46.2232C92.4035 45.5561 92.0192 45.1104 91.5925 44.8861C91.1658 44.6617 90.745 44.6437 90.3303 44.832L87.2705 46.4009C86.9466 46.567 86.7016 46.4881 86.5356 46.1642Z" fill="#5C6497"/>
<path d="M67.5983 32.9107C67.4294 32.9248 67.2955 32.8864 67.1964 32.7953C67.0974 32.7042 67.0408 32.5742 67.0266 32.4053L66.7999 28.4992L65.1881 27.6539L63.8115 30.2788C63.6424 30.6012 63.3967 30.6778 63.0744 30.5088C62.752 30.3397 62.6754 30.094 62.8444 29.7716L66.4308 22.933C66.5999 22.6106 66.8456 22.534 67.168 22.703L69.862 24.1159C70.5642 24.4842 71.0029 24.954 71.1779 25.5253C71.3588 26.0948 71.2651 26.7307 70.8968 27.4329L70.7156 27.7783C70.3956 28.3885 69.998 28.8014 69.5229 29.0171C69.0497 29.2289 68.5213 29.238 67.9378 29.0445L68.1267 32.351C68.1317 32.6961 67.9555 32.8827 67.5983 32.9107ZM65.6953 26.6868L67.9057 27.846C68.3432 28.0755 68.7024 28.1464 68.9832 28.0588C69.264 27.9712 69.5191 27.7086 69.7485 27.2712L69.9297 26.9258C70.1571 26.4921 70.227 26.1349 70.1394 25.8541C70.0538 25.5694 69.7923 25.3124 69.3548 25.083L67.1443 23.9237L65.6953 26.6868Z" fill="#5C6497"/>
</svg>
