<svg width="168" height="124" viewBox="0 0 168 124" fill="none" xmlns="http://www.w3.org/2000/svg">
<path d="M114.536 44.1642C114.369 43.8403 114.448 43.5953 114.772 43.4292L119.666 40.9202C119.989 40.7541 120.234 40.833 120.401 41.1569C120.567 41.4808 120.488 41.7258 120.164 41.8919L119.713 42.1232C120.138 42.1925 120.519 42.3621 120.857 42.6319C121.197 42.9056 121.484 43.27 121.717 43.725C121.883 44.0489 121.804 44.2939 121.481 44.4599C121.157 44.626 120.912 44.5471 120.746 44.2232C120.404 43.5561 120.019 43.1104 119.592 42.8861C119.166 42.6617 118.745 42.6437 118.33 42.832L115.271 44.4009C114.947 44.567 114.702 44.4881 114.536 44.1642Z" fill="#5C6497"/>
<rect x="13" y="6" width="149" height="99" fill="#EFEFF7"/>
<path d="M6 1L165 106.5" stroke="#5C6497" stroke-width="2"/>
<path d="M166.5 3L11 105" stroke="#5C6497" stroke-width="2"/>
<path d="M79.8901 50.3888C76.9971 49.9125 74.0411 57.4006 78.8594 60.3583" stroke="#5C6497"/>
<path d="M94.5249 50.3888C97.418 49.9125 100.374 57.4006 95.5556 60.3583" stroke="#5C6497"/>
<path d="M96.752 48.5553C100.5 50 102.685 57.1574 96.9342 62.0375" stroke="#5C6497"/>
<path d="M77.3035 48.5551C73.5 50.5 71.3703 57.1572 77.1213 62.0373" stroke="#5C6497"/>
<path d="M23.8484 105.749C26.816 105.149 27.5301 98.4928 21.9584 97.8519" stroke="#5C6497"/>
<path d="M19.3948 99.1658C20.3749 96.42 15.4713 92.3025 12.2362 96.5195" stroke="#5C6497"/>
<path d="M83.3215 57.6649C83.1745 60.8959 89.8604 63.4114 91.9604 57.8168" stroke="#5C6497"/>
<path d="M83.3215 52.1466C83.1745 48.9156 89.8604 46.4001 91.9604 51.9947" stroke="#5C6497"/>
<path d="M81.4568 51.5885C79.2265 51.3859 76.7323 56.8453 80.3884 58.7208" stroke="#5C6497"/>
<path d="M92.9583 51.5885C95.1885 51.3859 97.6827 56.8453 94.0266 58.7208" stroke="#5C6497"/>
<path d="M21.0231 105.791C23.7524 105.038 24.8782 99.0045 19.8811 98.8298" stroke="#5C6497"/>
<path d="M85.0426 52.8739C85.0498 51.0629 88.6597 49.4738 89.6255 52.5611" stroke="#5C6497"/>
<path d="M85.0426 56.9835C85.0498 58.7946 88.6597 60.3836 89.6255 57.2964" stroke="#5C6497"/>
<path d="M83.0669 52.1995C81.3635 52.0826 79.4089 56.1802 82.1878 57.5194" stroke="#5C6497"/>
<path d="M91.3481 52.1995C93.0516 52.0826 95.0061 56.1802 92.2272 57.5194" stroke="#5C6497"/>
<path d="M19.0722 105.841C21.1018 105.318 21.8526 100.815 18.1133 100.609" stroke="#5C6497"/>
<path d="M3.51 59C2.73 59 2.1575 58.82 1.7925 58.46C1.4325 58.095 1.2525 57.5225 1.2525 56.7425C1.2525 55.9625 1.435 55.39 1.8 55.025C2.165 54.66 2.735 54.4775 3.51 54.4775H6.9225C6.9125 53.8175 6.7625 53.3575 6.4725 53.0975C6.1875 52.8325 5.7 52.7 5.01 52.7H4.14C3.505 52.7 3.04 52.7675 2.745 52.9025C2.45 53.0375 2.2675 53.2675 2.1975 53.5925C2.1625 53.7175 2.115 53.81 2.055 53.87C2 53.925 1.91 53.9525 1.785 53.9525C1.655 53.9525 1.5525 53.9175 1.4775 53.8475C1.4075 53.7725 1.3825 53.6725 1.4025 53.5475C1.4675 52.9775 1.725 52.5625 2.175 52.3025C2.63 52.0425 3.285 51.9125 4.14 51.9125H5.01C5.945 51.9125 6.6275 52.13 7.0575 52.565C7.4925 52.995 7.71 53.6775 7.71 54.6125V58.6025C7.71 58.8675 7.58 59 7.32 59C7.055 59 6.9225 58.8675 6.9225 58.6025V57.86C6.4425 58.62 5.585 59 4.35 59H3.51ZM3.51 58.2125H4.35C4.835 58.2125 5.26 58.16 5.625 58.055C5.995 57.945 6.2925 57.77 6.5175 57.53C6.7425 57.29 6.8775 56.97 6.9225 56.57V55.265H3.51C2.955 55.265 2.57 55.3725 2.355 55.5875C2.145 55.7975 2.04 56.1825 2.04 56.7425C2.04 57.2975 2.145 57.6825 2.355 57.8975C2.57 58.1075 2.955 58.2125 3.51 58.2125Z" fill="#EFEFF7"/>
<path d="M83.8 121C83.535 121 83.4025 120.867 83.4025 120.602V110.987C83.4025 110.727 83.535 110.597 83.8 110.597C84.06 110.597 84.19 110.727 84.19 110.987V114.955C84.415 114.61 84.735 114.347 85.15 114.167C85.57 113.987 86.11 113.897 86.77 113.897H87.34C88.275 113.897 88.9575 114.115 89.3875 114.55C89.8225 114.985 90.04 115.67 90.04 116.605V118.292C90.04 119.227 89.8225 119.912 89.3875 120.347C88.9575 120.782 88.275 121 87.34 121H86.77C86.11 121 85.57 120.912 85.15 120.737C84.735 120.557 84.415 120.292 84.19 119.942V120.602C84.19 120.867 84.06 121 83.8 121ZM86.77 120.212H87.34C88.055 120.212 88.5525 120.072 88.8325 119.792C89.1125 119.507 89.2525 119.007 89.2525 118.292V116.605C89.2525 115.89 89.11 115.392 88.825 115.112C88.545 114.827 88.05 114.685 87.34 114.685H86.77C85.99 114.685 85.365 114.807 84.895 115.052C84.425 115.297 84.19 115.67 84.19 116.17V118.757C84.2 119.242 84.44 119.607 84.91 119.852C85.38 120.092 86 120.212 86.77 120.212Z" fill="#EFEFF7"/>
<path d="M124.656 73.9193C123.946 73.4304 123.536 72.8955 123.425 72.3145C123.321 71.7324 123.513 71.0862 124.002 70.3758L124.85 69.1443C125.341 68.4304 125.876 68.02 126.454 67.9131C127.036 67.8088 127.683 68.001 128.393 68.4899L130.471 69.9197L131.613 68.2598C131.819 67.96 132.072 67.9132 132.372 68.1196C132.672 68.326 132.719 68.5791 132.512 68.8789L127.943 75.5184C127.737 75.8183 127.483 75.865 127.184 75.6587C126.884 75.4523 126.837 75.1992 127.043 74.8993L127.095 74.8244C126.809 74.8803 126.5 74.8595 126.167 74.762C125.835 74.6645 125.467 74.477 125.063 74.1994L124.656 73.9193ZM125.275 73.0198L125.682 73.2998C126.154 73.6241 126.592 73.8361 126.996 73.9359C127.401 74.0356 127.69 73.9605 127.861 73.7107L129.851 70.8193L127.774 69.3894C127.31 69.0701 126.935 68.9383 126.649 68.9942C126.366 69.0465 126.066 69.3029 125.749 69.7634L124.901 70.9949C124.582 71.459 124.449 71.8326 124.501 72.1158C124.557 72.4015 124.815 72.7028 125.275 73.0198Z" fill="#5C6497"/>
<path d="M85.46 71C85.18 71 85.04 70.86 85.04 70.58V64.38C85.04 64.1 85.18 63.96 85.46 63.96C85.74 63.96 85.88 64.1 85.88 64.38V66.465C86.0533 66.2883 86.27 66.155 86.53 66.065C86.79 65.975 87.0933 65.93 87.44 65.93H87.82C88.4867 65.93 88.98 66.09 89.3 66.41C89.62 66.73 89.78 67.2233 89.78 67.89V69.04C89.78 69.7033 89.62 70.1967 89.3 70.52C88.98 70.84 88.4867 71 87.82 71H87.44C87.0933 71 86.79 70.955 86.53 70.865C86.27 70.775 86.0533 70.6433 85.88 70.47V70.58C85.88 70.86 85.74 71 85.46 71ZM87.44 70.16H87.82C88.2567 70.16 88.5517 70.0817 88.705 69.925C88.8617 69.765 88.94 69.47 88.94 69.04V67.89C88.94 67.4533 88.86 67.1583 88.7 67.005C88.5433 66.8483 88.25 66.77 87.82 66.77H87.44C87 66.77 86.63 66.8267 86.33 66.94C86.03 67.05 85.88 67.2233 85.88 67.46V69.47C85.88 69.7033 86.03 69.8767 86.33 69.99C86.63 70.1033 87 70.16 87.44 70.16Z" fill="#5C6497"/>
<path d="M19.76 89C19.0967 89 18.6033 88.84 18.28 88.52C17.96 88.1967 17.8 87.7033 17.8 87.04V85.88C17.8 85.2133 17.9583 84.72 18.275 84.4C18.595 84.08 19.09 83.9233 19.76 83.93H20.58C21.0767 83.93 21.4667 84.0133 21.75 84.18C22.0367 84.3467 22.22 84.6033 22.3 84.95C22.33 85.09 22.305 85.1983 22.225 85.275C22.1483 85.3517 22.0367 85.39 21.89 85.39C21.76 85.39 21.665 85.3567 21.605 85.29C21.545 85.2233 21.49 85.13 21.44 85.01C21.39 84.92 21.2983 84.8583 21.165 84.825C21.0317 84.7883 20.8367 84.77 20.58 84.77H19.76C19.33 84.7633 19.035 84.8383 18.875 84.995C18.7183 85.1483 18.64 85.4433 18.64 85.88V87.04C18.64 87.4733 18.7183 87.7683 18.875 87.925C19.035 88.0817 19.33 88.16 19.76 88.16H20.58C20.8367 88.16 21.0317 88.1433 21.165 88.11C21.2983 88.0733 21.39 88.01 21.44 87.92C21.49 87.7933 21.545 87.6983 21.605 87.635C21.6683 87.5717 21.7667 87.54 21.9 87.54C22.04 87.54 22.1483 87.5783 22.225 87.655C22.305 87.7317 22.33 87.84 22.3 87.98C22.22 88.3233 22.0367 88.58 21.75 88.75C21.4667 88.9167 21.0767 89 20.58 89H19.76Z" fill="#5C6497"/>
<path d="M32.46 102C32.18 102 32.04 101.86 32.04 101.58V95.38C32.04 95.1 32.18 94.96 32.46 94.96C32.74 94.96 32.88 95.1 32.88 95.38V99.135L35.26 97.09C35.4733 96.9067 35.67 96.92 35.85 97.13C36.0333 97.3433 36.02 97.54 35.81 97.72L33.985 99.295L35.73 101.28C35.9167 101.497 35.9067 101.693 35.7 101.87C35.4867 102.053 35.2867 102.04 35.1 101.83L33.345 99.85L32.88 100.25V101.58C32.88 101.86 32.74 102 32.46 102Z" fill="#5C6497"/>
<path d="M68.6 58C68.04 58 67.6233 57.8633 67.35 57.59C67.0767 57.3167 66.94 56.9 66.94 56.34C66.94 55.78 67.075 55.3633 67.345 55.09C67.6183 54.8167 68.0367 54.68 68.6 54.68H70.715C70.695 54.33 70.6033 54.0917 70.44 53.965C70.2767 53.835 69.9967 53.77 69.6 53.77H69.02C68.6867 53.77 68.4383 53.7933 68.275 53.84C68.1117 53.8833 67.9967 53.9633 67.93 54.08C67.87 54.22 67.8083 54.3167 67.745 54.37C67.6817 54.4233 67.5867 54.45 67.46 54.45C67.32 54.45 67.21 54.4117 67.13 54.335C67.05 54.255 67.0267 54.15 67.06 54.02C67.16 53.6433 67.3683 53.3683 67.685 53.195C68.005 53.0183 68.45 52.93 69.02 52.93H69.6C70.2667 52.93 70.76 53.09 71.08 53.41C71.4 53.73 71.56 54.2233 71.56 54.89V57.58C71.56 57.86 71.42 58 71.14 58C70.86 58 70.72 57.86 70.72 57.58V57.355C70.3633 57.785 69.8433 58 69.16 58H68.6ZM68.6 57.16H69.16C69.4067 57.16 69.6383 57.1383 69.855 57.095C70.0717 57.0483 70.2567 56.965 70.41 56.845C70.5667 56.725 70.67 56.5533 70.72 56.33V55.52H68.6C68.27 55.52 68.05 55.575 67.94 55.685C67.8333 55.795 67.78 56.0133 67.78 56.34C67.78 56.67 67.8333 56.89 67.94 57C68.05 57.1067 68.27 57.16 68.6 57.16Z" fill="#5C6497"/>
</svg>
