<svg width="155" height="94" viewBox="0 0 155 94" fill="none" xmlns="http://www.w3.org/2000/svg">
<path d="M105.536 32.1642C105.369 31.8403 105.448 31.5953 105.772 31.4292L110.666 28.9202C110.989 28.7541 111.234 28.833 111.401 29.1569C111.567 29.4808 111.488 29.7258 111.164 29.8919L110.713 30.1232C111.138 30.1925 111.519 30.3621 111.857 30.6319C112.197 30.9056 112.484 31.27 112.717 31.725C112.883 32.0489 112.804 32.2939 112.481 32.4599C112.157 32.626 111.912 32.5471 111.746 32.2232C111.404 31.5561 111.019 31.1104 110.592 30.8861C110.166 30.6617 109.745 30.6437 109.33 30.832L106.271 32.4009C105.947 32.567 105.702 32.4881 105.536 32.1642Z" fill="#5C6497"/>
<path d="M2 91L52.2954 4H151L102.591 91H2Z" fill="#EFEFF7"/>
<circle cx="77.5" cy="47.5" r="43" stroke="#B0AED4"/>
<path d="M51 1L104 93.5" stroke="#5C6497" stroke-width="2"/>
<path d="M0.5 91.5L154 2.5" stroke="#5C6497" stroke-width="2"/>
<path d="M52 3.5V91" stroke="#5C6497"/>
<path d="M77 46.5L116 65.5" stroke="#5C6497"/>
<path d="M74.6194 40.8417L78.6582 38.6195L81.1609 43.6182" stroke="#5C6497" stroke-width="0.5"/>
<path d="M52.1642 85.1288L56.7739 85.1643L56.7739 91" stroke="#5C6497" stroke-width="0.5"/>
<circle cx="77" cy="47" r="2" fill="#5C6497"/>
<path d="M47.3371 10.9814C48.0338 13.9278 54.7096 14.4236 55.1678 8.83397" stroke="#5C6497"/>
<path d="M55.4938 9.00813C57.4576 11.3125 63.6248 8.70927 61.4834 3.52579" stroke="#5C6497"/>
<path d="M47.2019 8.15893C48.0438 10.8622 54.1114 11.7899 54.1225 6.78976" stroke="#5C6497"/>
<path d="M54.0856 6.5578C56.0677 8.57961 61.8906 6.63807 59.6201 2.18315" stroke="#5C6497"/>
<path d="M10.0722 91.8407C12.1018 91.3178 12.8526 86.8148 9.11328 86.6085" stroke="#5C6497"/>
<path d="M8.78854 86.779C11.4414 86.2098 12.1564 80.2742 7.19653 79.7691" stroke="#5C6497"/>
<path d="M56.4615 74.0791C56.2095 74.0791 56.0835 73.9531 56.0835 73.7011V68.1211C56.0835 67.8691 56.2095 67.7431 56.4615 67.7431C56.7135 67.7431 56.8395 67.8691 56.8395 68.1211V70.0426C57.1575 69.6916 57.6255 69.5161 58.2435 69.5161H58.4955C59.0955 69.5161 59.5395 69.6601 59.8275 69.9481C60.1155 70.2361 60.2595 70.6801 60.2595 71.2801V73.7011C60.2595 73.9531 60.1335 74.0791 59.8815 74.0791C59.6295 74.0791 59.5035 73.9531 59.5035 73.7011V71.2801C59.5035 70.8871 59.4315 70.6216 59.2875 70.4836C59.1465 70.3426 58.8825 70.2721 58.4955 70.2721H58.2435C57.8835 70.2721 57.57 70.3141 57.303 70.3981C57.036 70.4791 56.8815 70.6081 56.8395 70.7851V73.7011C56.8395 73.9531 56.7135 74.0791 56.4615 74.0791Z" fill="#AEB2CD"/>
<path d="M19.51 42C18.73 42 18.1575 41.82 17.7925 41.46C17.4325 41.095 17.2525 40.5225 17.2525 39.7425C17.2525 38.9625 17.435 38.39 17.8 38.025C18.165 37.66 18.735 37.4775 19.51 37.4775H22.9225C22.9125 36.8175 22.7625 36.3575 22.4725 36.0975C22.1875 35.8325 21.7 35.7 21.01 35.7H20.14C19.505 35.7 19.04 35.7675 18.745 35.9025C18.45 36.0375 18.2675 36.2675 18.1975 36.5925C18.1625 36.7175 18.115 36.81 18.055 36.87C18 36.925 17.91 36.9525 17.785 36.9525C17.655 36.9525 17.5525 36.9175 17.4775 36.8475C17.4075 36.7725 17.3825 36.6725 17.4025 36.5475C17.4675 35.9775 17.725 35.5625 18.175 35.3025C18.63 35.0425 19.285 34.9125 20.14 34.9125H21.01C21.945 34.9125 22.6275 35.13 23.0575 35.565C23.4925 35.995 23.71 36.6775 23.71 37.6125V41.6025C23.71 41.8675 23.58 42 23.32 42C23.055 42 22.9225 41.8675 22.9225 41.6025V40.86C22.4425 41.62 21.585 42 20.35 42H19.51ZM19.51 41.2125H20.35C20.835 41.2125 21.26 41.16 21.625 41.055C21.995 40.945 22.2925 40.77 22.5175 40.53C22.7425 40.29 22.8775 39.97 22.9225 39.57V38.265H19.51C18.955 38.265 18.57 38.3725 18.355 38.5875C18.145 38.7975 18.04 39.1825 18.04 39.7425C18.04 40.2975 18.145 40.6825 18.355 40.8975C18.57 41.1075 18.955 41.2125 19.51 41.2125Z" fill="#EFEFF7"/>
<path d="M64.46 16C64.18 16 64.04 15.86 64.04 15.58V9.38C64.04 9.1 64.18 8.96 64.46 8.96C64.74 8.96 64.88 9.1 64.88 9.38V11.465C65.0533 11.2883 65.27 11.155 65.53 11.065C65.79 10.975 66.0933 10.93 66.44 10.93H66.82C67.4867 10.93 67.98 11.09 68.3 11.41C68.62 11.73 68.78 12.2233 68.78 12.89V14.04C68.78 14.7033 68.62 15.1967 68.3 15.52C67.98 15.84 67.4867 16 66.82 16H66.44C66.0933 16 65.79 15.955 65.53 15.865C65.27 15.775 65.0533 15.6433 64.88 15.47V15.58C64.88 15.86 64.74 16 64.46 16ZM66.44 15.16H66.82C67.2567 15.16 67.5517 15.0817 67.705 14.925C67.8617 14.765 67.94 14.47 67.94 14.04V12.89C67.94 12.4533 67.86 12.1583 67.7 12.005C67.5433 11.8483 67.25 11.77 66.82 11.77H66.44C66 11.77 65.63 11.8267 65.33 11.94C65.03 12.05 64.88 12.2233 64.88 12.46V14.47C64.88 14.7033 65.03 14.8767 65.33 14.99C65.63 15.1033 66 15.16 66.44 15.16Z" fill="#5C6497"/>
<path d="M19.6 89C19.04 89 18.6233 88.8633 18.35 88.59C18.0767 88.3167 17.94 87.9 17.94 87.34C17.94 86.78 18.075 86.3633 18.345 86.09C18.6183 85.8167 19.0367 85.68 19.6 85.68H21.715C21.695 85.33 21.6033 85.0917 21.44 84.965C21.2767 84.835 20.9967 84.77 20.6 84.77H20.02C19.6867 84.77 19.4383 84.7933 19.275 84.84C19.1117 84.8833 18.9967 84.9633 18.93 85.08C18.87 85.22 18.8083 85.3167 18.745 85.37C18.6817 85.4233 18.5867 85.45 18.46 85.45C18.32 85.45 18.21 85.4117 18.13 85.335C18.05 85.255 18.0267 85.15 18.06 85.02C18.16 84.6433 18.3683 84.3683 18.685 84.195C19.005 84.0183 19.45 83.93 20.02 83.93H20.6C21.2667 83.93 21.76 84.09 22.08 84.41C22.4 84.73 22.56 85.2233 22.56 85.89V88.58C22.56 88.86 22.42 89 22.14 89C21.86 89 21.72 88.86 21.72 88.58V88.355C21.3633 88.785 20.8433 89 20.16 89H19.6ZM19.6 88.16H20.16C20.4067 88.16 20.6383 88.1383 20.855 88.095C21.0717 88.0483 21.2567 87.965 21.41 87.845C21.5667 87.725 21.67 87.5533 21.72 87.33V86.52H19.6C19.27 86.52 19.05 86.575 18.94 86.685C18.8333 86.795 18.78 87.0133 18.78 87.34C18.78 87.67 18.8333 87.89 18.94 88C19.05 88.1067 19.27 88.16 19.6 88.16Z" fill="#5C6497"/>
<path d="M89.76 32C89.0967 32 88.6033 31.84 88.28 31.52C87.96 31.1967 87.8 30.7033 87.8 30.04V28.89C87.8 28.2233 87.96 27.73 88.28 27.41C88.6033 27.09 89.0967 26.93 89.76 26.93H91.7V25.38C91.7 25.1 91.84 24.96 92.12 24.96C92.4 24.96 92.54 25.1 92.54 25.38V31.58C92.54 31.86 92.4 32 92.12 32C91.84 32 91.7 31.86 91.7 31.58V31.51C91.5433 31.67 91.3383 31.7917 91.085 31.875C90.8317 31.9583 90.5167 32 90.14 32H89.76ZM89.76 31.16H90.14C90.58 31.16 90.95 31.1033 91.25 30.99C91.55 30.8767 91.7 30.7033 91.7 30.47V27.77H89.76C89.3267 27.77 89.0317 27.85 88.875 28.01C88.7183 28.1667 88.64 28.46 88.64 28.89V30.04C88.64 30.4733 88.7183 30.7683 88.875 30.925C89.035 31.0817 89.33 31.16 89.76 31.16ZM95.4563 32C95.1763 32 95.0363 31.86 95.0363 31.58V26.42L95.2663 26.26L94.1663 27.29C94.083 27.37 93.9947 27.4183 93.9013 27.435C93.808 27.4483 93.7163 27.41 93.6263 27.32C93.4463 27.14 93.4563 26.95 93.6563 26.75L94.9963 25.43C95.1363 25.29 95.3097 25.22 95.5163 25.22C95.7563 25.22 95.8763 25.36 95.8763 25.64V31.58C95.8763 31.86 95.7363 32 95.4563 32Z" fill="#5C6497"/>
<path d="M78.76 78C78.0967 78 77.6033 77.84 77.28 77.52C76.96 77.1967 76.8 76.7033 76.8 76.04V74.89C76.8 74.2233 76.96 73.73 77.28 73.41C77.6033 73.09 78.0967 72.93 78.76 72.93H80.7V71.38C80.7 71.1 80.84 70.96 81.12 70.96C81.4 70.96 81.54 71.1 81.54 71.38V77.58C81.54 77.86 81.4 78 81.12 78C80.84 78 80.7 77.86 80.7 77.58V77.51C80.5433 77.67 80.3383 77.7917 80.085 77.875C79.8317 77.9583 79.5167 78 79.14 78H78.76ZM78.76 77.16H79.14C79.58 77.16 79.95 77.1033 80.25 76.99C80.55 76.8767 80.7 76.7033 80.7 76.47V73.77H78.76C78.3267 73.77 78.0317 73.85 77.875 74.01C77.7183 74.1667 77.64 74.46 77.64 74.89V76.04C77.64 76.4733 77.7183 76.7683 77.875 76.925C78.035 77.0817 78.33 77.16 78.76 77.16ZM87.1944 78H83.4544C83.1677 78 83.0244 77.86 83.0244 77.58C83.0244 77.1333 83.0944 76.7533 83.2344 76.44C83.3777 76.1233 83.5594 75.8567 83.7794 75.64C84.0027 75.42 84.2394 75.235 84.4894 75.085C84.7394 74.9317 84.971 74.7933 85.1844 74.67C85.5544 74.46 85.8627 74.2783 86.1094 74.125C86.3594 73.9717 86.546 73.815 86.6694 73.655C86.7927 73.495 86.8544 73.3 86.8544 73.07C86.8544 72.6733 86.7827 72.4067 86.6394 72.27C86.4994 72.13 86.2344 72.06 85.8444 72.06H84.7744C84.461 72.06 84.2294 72.1017 84.0794 72.185C83.9294 72.2683 83.8344 72.4233 83.7944 72.65C83.771 72.7833 83.726 72.885 83.6594 72.955C83.5927 73.025 83.491 73.06 83.3544 73.06C83.2144 73.06 83.1077 73.0233 83.0344 72.95C82.961 72.8733 82.931 72.7633 82.9444 72.62C83.0144 72.15 83.1994 71.8 83.4994 71.57C83.7994 71.3367 84.2244 71.22 84.7744 71.22H85.8444C86.471 71.22 86.936 71.3717 87.2394 71.675C87.5427 71.9783 87.6944 72.4433 87.6944 73.07C87.6944 73.47 87.596 73.805 87.3994 74.075C87.2027 74.3417 86.9444 74.5783 86.6244 74.785C86.3044 74.9883 85.961 75.1933 85.5944 75.4C85.3277 75.5533 85.0744 75.7067 84.8344 75.86C84.5977 76.0133 84.3944 76.1917 84.2244 76.395C84.0577 76.5983 83.9477 76.8533 83.8944 77.16H87.1944C87.4744 77.16 87.6144 77.3 87.6144 77.58C87.6144 77.86 87.4744 78 87.1944 78Z" fill="#5C6497"/>
<path d="M103.429 55.3783C103.253 55.6972 103.006 55.7689 102.687 55.5935L97.8692 52.9428C97.5503 52.7673 97.4786 52.5201 97.654 52.2012C97.8295 51.8823 98.0767 51.8105 98.3956 51.986L98.8398 52.2304C98.6593 51.8393 98.5863 51.4282 98.6207 50.997C98.6572 50.5621 98.7987 50.1206 99.0452 49.6726C99.2206 49.3537 99.4678 49.282 99.7867 49.4574C100.106 49.6329 100.177 49.8801 100.002 50.199C99.6406 50.8558 99.4863 51.4238 99.5392 51.903C99.5921 52.3822 99.8127 52.7409 100.201 52.9792L103.214 54.6367C103.532 54.8122 103.604 55.0593 103.429 55.3783Z" fill="#5C6497"/>
</svg>
