<svg width="102" height="102" viewBox="0 0 102 102" fill="none" xmlns="http://www.w3.org/2000/svg">
<line x1="25.1581" y1="45.5257" x2="76.1581" y2="62.5257" stroke="#5C6497"/>
<circle cx="51" cy="51" r="51" fill="#EFEFF7"/>
<line x1="24.1374" y1="42.5192" x2="80.1374" y2="58.5192" stroke="#5C6497"/>
<line x1="51.8827" y1="50.514" x2="80.8827" y2="43.514" stroke="#5C6497"/>
<path d="M37.2281 55.0219C36.6974 55.0166 36.3041 54.8846 36.048 54.626C35.7946 54.3648 35.6706 53.9688 35.676 53.4382L35.6853 52.5182C35.6906 51.9849 35.8226 51.5916 36.0812 51.3382C36.3424 51.0848 36.7384 50.9608 37.269 50.9661L38.8209 50.9818L38.8334 49.7418C38.8357 49.5179 38.9488 49.407 39.1728 49.4093C39.3968 49.4115 39.5077 49.5246 39.5054 49.7486L39.4554 54.7084C39.4531 54.9324 39.34 55.0432 39.116 55.041C38.892 55.0387 38.7811 54.9256 38.7834 54.7016L38.784 54.6456C38.6573 54.7723 38.4924 54.868 38.289 54.9326C38.0857 54.9972 37.8334 55.028 37.5321 55.025L37.2281 55.0219ZM37.2349 54.35L37.5388 54.353C37.8908 54.3566 38.1873 54.3142 38.4282 54.226C38.6691 54.1377 38.7905 54.0003 38.7924 53.8136L38.8141 51.6538L37.2622 51.6381C36.9156 51.6346 36.6789 51.6962 36.5523 51.8229C36.4257 51.947 36.3607 52.181 36.3572 52.525L36.3479 53.445C36.3444 53.7916 36.4047 54.0282 36.5288 54.1548C36.6555 54.2814 36.8909 54.3465 37.2349 54.35Z" fill="#5C6497"/>
<path d="M71.2852 48.5879C71.2053 48.3787 71.27 48.2341 71.4793 48.1542L74.6407 46.9472C74.85 46.8673 74.9945 46.932 75.0744 47.1412C75.1543 47.3505 75.0896 47.4951 74.8804 47.575L74.5889 47.6863C74.8443 47.7572 75.0664 47.8865 75.2551 48.0742C75.4447 48.2644 75.5957 48.5065 75.7079 48.8004C75.7878 49.0097 75.7231 49.1543 75.5138 49.2342C75.3046 49.3141 75.16 49.2494 75.0801 49.0401C74.9155 48.6091 74.7103 48.3107 74.4643 48.1449C74.2183 47.979 73.9621 47.9398 73.6958 48.0272L71.719 48.782C71.5097 48.8619 71.3651 48.7972 71.2852 48.5879Z" fill="#5C6497"/>
<path d="M51 41C65.0343 41 77.7103 42.2277 86.8516 44.1993C91.4305 45.1869 95.0687 46.35 97.5379 47.6092C98.7739 48.2395 99.6668 48.8688 100.238 49.4714C100.806 50.0694 101 50.5769 101 51C101 51.4231 100.806 51.9306 100.238 52.5286C99.6668 53.1312 98.7739 53.7605 97.5379 54.3908C95.0687 55.65 91.4305 56.8131 86.8516 57.8007C77.7103 59.7723 65.0343 61 51 61C36.9657 61 24.2897 59.7723 15.1484 57.8007C10.5695 56.8131 6.93131 55.65 4.46212 54.3908C3.22607 53.7605 2.33324 53.1312 1.7616 52.5286C1.19423 51.9306 1 51.4231 1 51C1 50.5769 1.19423 50.0694 1.7616 49.4714C2.33324 48.8688 3.22607 48.2395 4.46212 47.6092C6.93131 46.35 10.5695 45.1869 15.1484 44.1993C24.2897 42.2277 36.9657 41 51 41Z" stroke="#5C6497" stroke-opacity="0.2" stroke-width="2"/>
</svg>
