<svg width="114" height="114" viewBox="0 0 114 114" fill="none" xmlns="http://www.w3.org/2000/svg">
<rect x="18" y="18" width="78" height="78" fill="#EFEFF7"/>
<circle cx="57" cy="57" r="56.5" stroke="#EFEFF7" stroke-opacity="0.3"/>
<circle cx="57" cy="57" r="38.5" stroke="#9290C3" stroke-opacity="0.68"/>
<path d="M18 18L96 96" stroke="#5C6497" stroke-width="2"/>
<path d="M24.51 63C23.73 63 23.1575 62.82 22.7925 62.46C22.4325 62.095 22.2525 61.5225 22.2525 60.7425C22.2525 59.9625 22.435 59.39 22.8 59.025C23.165 58.66 23.735 58.4775 24.51 58.4775H27.9225C27.9125 57.8175 27.7625 57.3575 27.4725 57.0975C27.1875 56.8325 26.7 56.7 26.01 56.7H25.14C24.505 56.7 24.04 56.7675 23.745 56.9025C23.45 57.0375 23.2675 57.2675 23.1975 57.5925C23.1625 57.7175 23.115 57.81 23.055 57.87C23 57.925 22.91 57.9525 22.785 57.9525C22.655 57.9525 22.5525 57.9175 22.4775 57.8475C22.4075 57.7725 22.3825 57.6725 22.4025 57.5475C22.4675 56.9775 22.725 56.5625 23.175 56.3025C23.63 56.0425 24.285 55.9125 25.14 55.9125H26.01C26.945 55.9125 27.6275 56.13 28.0575 56.565C28.4925 56.995 28.71 57.6775 28.71 58.6125V62.6025C28.71 62.8675 28.58 63 28.32 63C28.055 63 27.9225 62.8675 27.9225 62.6025V61.86C27.4425 62.62 26.585 63 25.35 63H24.51ZM24.51 62.2125H25.35C25.835 62.2125 26.26 62.16 26.625 62.055C26.995 61.945 27.2925 61.77 27.5175 61.53C27.7425 61.29 27.8775 60.97 27.9225 60.57V59.265H24.51C23.955 59.265 23.57 59.3725 23.355 59.5875C23.145 59.7975 23.04 60.1825 23.04 60.7425C23.04 61.2975 23.145 61.6825 23.355 61.8975C23.57 62.1075 23.955 62.2125 24.51 62.2125Z" fill="#5C6497"/>
<path d="M61.6583 53.0224C61.0485 52.4126 60.7421 51.812 60.739 51.2207C60.7421 50.6293 61.0485 50.0287 61.6583 49.419L62.7154 48.3618C63.3282 47.749 63.9288 47.4426 64.5171 47.4426C65.1085 47.4457 65.709 47.7521 66.3188 48.3618L68.1021 50.1452L69.5269 48.7203C69.7843 48.463 70.0417 48.463 70.2991 48.7203C70.5565 48.9777 70.5565 49.2351 70.2991 49.4925L64.5998 55.1918C64.3424 55.4492 64.0851 55.4492 63.8277 55.1918C63.5703 54.9344 63.5703 54.677 63.8277 54.4196L63.892 54.3553C63.6009 54.3583 63.3006 54.2817 62.9912 54.1255C62.6817 53.9692 62.3538 53.7179 62.0076 53.3717L61.6583 53.0224ZM62.4304 52.2502L62.7797 52.5995C63.1842 53.004 63.5764 53.292 63.9564 53.4636C64.3363 53.6352 64.6335 53.6138 64.848 53.3993L67.33 50.9173L65.5466 49.134C65.1483 48.7357 64.8036 48.538 64.5125 48.5411C64.2245 48.5411 63.8828 48.7387 63.4875 49.134L62.4304 50.1911C62.0321 50.5895 61.8329 50.9326 61.8329 51.2207C61.836 51.5118 62.0352 51.8549 62.4304 52.2502Z" fill="#5C6497"/>
</svg>
