<svg width="215" height="169" viewBox="0 0 215 169" fill="none" xmlns="http://www.w3.org/2000/svg">
<path d="M108 2L60 119.942L213 167" stroke="#ADABD2" stroke-width="2"/>
<path d="M108 2V134.5" stroke="white" stroke-width="2"/>
<path d="M1 149.127L107.786 1L214 168L1 149.127Z" stroke="white"/>
<path d="M1.5 149L101.152 98.3745L108 1.5" stroke="white" stroke-dasharray="4 4"/>
<path d="M101 98.5L213.5 167.5" stroke="white" stroke-dasharray="4 4"/>
<path d="M31.51 75C30.73 75 30.1575 74.82 29.7925 74.46C29.4325 74.095 29.2525 73.5225 29.2525 72.7425C29.2525 71.9625 29.435 71.39 29.8 71.025C30.165 70.66 30.735 70.4775 31.51 70.4775H34.9225C34.9125 69.8175 34.7625 69.3575 34.4725 69.0975C34.1875 68.8325 33.7 68.7 33.01 68.7H32.14C31.505 68.7 31.04 68.7675 30.745 68.9025C30.45 69.0375 30.2675 69.2675 30.1975 69.5925C30.1625 69.7175 30.115 69.81 30.055 69.87C30 69.925 29.91 69.9525 29.785 69.9525C29.655 69.9525 29.5525 69.9175 29.4775 69.8475C29.4075 69.7725 29.3825 69.6725 29.4025 69.5475C29.4675 68.9775 29.725 68.5625 30.175 68.3025C30.63 68.0425 31.285 67.9125 32.14 67.9125H33.01C33.945 67.9125 34.6275 68.13 35.0575 68.565C35.4925 68.995 35.71 69.6775 35.71 70.6125V74.6025C35.71 74.8675 35.58 75 35.32 75C35.055 75 34.9225 74.8675 34.9225 74.6025V73.86C34.4425 74.62 33.585 75 32.35 75H31.51ZM31.51 74.2125H32.35C32.835 74.2125 33.26 74.16 33.625 74.055C33.995 73.945 34.2925 73.77 34.5175 73.53C34.7425 73.29 34.8775 72.97 34.9225 72.57V71.265H31.51C30.955 71.265 30.57 71.3725 30.355 71.5875C30.145 71.7975 30.04 72.1825 30.04 72.7425C30.04 73.2975 30.145 73.6825 30.355 73.8975C30.57 74.1075 30.955 74.2125 31.51 74.2125Z" fill="#EFEFF7"/>
<path d="M86.9375 146.019C86.5736 146.015 86.3935 145.832 86.3973 145.468L86.4822 137.408C86.486 137.044 86.6699 136.864 87.0339 136.868C87.3979 136.872 87.578 137.056 87.5741 137.42L87.5449 140.195C88.0096 139.693 88.6882 139.446 89.5808 139.456L89.9448 139.46C90.8114 139.469 91.4505 139.683 91.8621 140.104C92.2737 140.524 92.4749 141.168 92.4658 142.034L92.429 145.531C92.4252 145.895 92.2413 146.075 91.8773 146.071C91.5133 146.068 91.3332 145.884 91.3371 145.52L91.3739 142.023C91.3799 141.455 91.2799 141.071 91.074 140.869C90.8725 140.663 90.4923 140.557 89.9333 140.552L89.5693 140.548C89.0493 140.542 88.5959 140.598 88.209 140.715C87.8221 140.828 87.597 141.012 87.5336 141.267L87.4893 145.479C87.4854 145.843 87.3015 146.023 86.9375 146.019ZM95.1065 146.105C94.8265 146.102 94.688 145.961 94.691 145.681L94.7563 139.481C94.7592 139.201 94.9007 139.063 95.1807 139.066C95.4606 139.069 95.5992 139.21 95.5962 139.49L95.5742 141.575C95.7494 141.4 95.9675 141.269 96.2284 141.182C96.4894 141.095 96.7931 141.053 97.1398 141.056L97.5198 141.06C98.1864 141.067 98.678 141.233 98.9946 141.556C99.3113 141.879 99.466 142.374 99.459 143.041L99.4469 144.191C99.4399 144.854 99.2747 145.346 98.9514 145.666C98.628 145.982 98.133 146.137 97.4664 146.13L97.0864 146.126C96.7398 146.123 96.4369 146.074 96.1779 145.982C95.9188 145.889 95.7036 145.755 95.5321 145.58L95.5309 145.69C95.528 145.97 95.3865 146.108 95.1065 146.105ZM97.0953 145.286L97.4752 145.29C97.9119 145.295 98.2077 145.22 98.3627 145.065C98.521 144.906 98.6024 144.612 98.607 144.182L98.6191 143.032C98.6237 142.596 98.5468 142.3 98.3884 142.145C98.2334 141.986 97.9409 141.905 97.5109 141.9L97.131 141.896C96.691 141.892 96.3204 141.945 96.0192 142.055C95.7181 142.162 95.5663 142.333 95.5638 142.57L95.5426 144.58C95.5401 144.813 95.6883 144.988 95.9871 145.105C96.2859 145.221 96.6553 145.282 97.0953 145.286Z" fill="#EFEFF7"/>
<path d="M115.938 80.0193C115.574 80.0155 115.393 79.8316 115.397 79.4676L115.482 71.408C115.486 71.0441 115.67 70.864 116.034 70.8678C116.398 70.8717 116.578 71.0556 116.574 71.4195L116.545 74.1949C117.01 73.6928 117.688 73.4464 118.581 73.4558L118.945 73.4596C119.811 73.4687 120.451 73.6835 120.862 74.1038C121.274 74.5242 121.475 75.1677 121.466 76.0343L121.429 79.5311C121.425 79.8951 121.241 80.0752 120.877 80.0713C120.513 80.0675 120.333 79.8836 120.337 79.5196L120.374 76.0228C120.38 75.4552 120.28 75.0706 120.074 74.8691C119.873 74.6633 119.492 74.5574 118.933 74.5516L118.569 74.5477C118.049 74.5423 117.596 74.5981 117.209 74.7154C116.822 74.8283 116.597 75.0123 116.534 75.2673L116.489 79.4791C116.485 79.8431 116.302 80.0232 115.938 80.0193ZM125.246 80.1174C124.686 80.1115 124.271 79.9704 124.001 79.6942C123.73 79.418 123.598 78.9999 123.604 78.44C123.61 77.88 123.749 77.4648 124.022 77.1943C124.298 76.9239 124.718 76.7916 125.281 76.7975L127.396 76.8198C127.38 76.4696 127.291 76.2303 127.129 76.1019C126.967 75.9702 126.688 75.9023 126.291 75.8981L125.711 75.892C125.378 75.8885 125.129 75.9092 124.965 75.9542C124.801 75.9958 124.686 76.0746 124.618 76.1905C124.556 76.3299 124.494 76.4259 124.43 76.4785C124.366 76.5312 124.271 76.5569 124.144 76.5555C124.004 76.5541 123.894 76.5146 123.815 76.4371C123.736 76.3562 123.714 76.251 123.748 76.1214C123.852 75.7458 124.064 75.473 124.382 75.303C124.704 75.1297 125.15 75.0461 125.72 75.0521L126.3 75.0582C126.966 75.0652 127.458 75.2304 127.775 75.5537C128.091 75.8771 128.246 76.3721 128.239 77.0387L128.211 79.7285C128.208 80.0085 128.066 80.147 127.786 80.1441C127.506 80.1411 127.368 79.9997 127.371 79.7197L127.373 79.4947C127.012 79.9209 126.49 80.1304 125.806 80.1232L125.246 80.1174ZM125.255 79.2774L125.815 79.2833C126.062 79.2859 126.294 79.2667 126.511 79.2256C126.728 79.1812 126.914 79.0999 127.069 78.9815C127.226 78.8631 127.332 78.6926 127.384 78.4698L127.392 77.6598L125.273 77.6375C124.943 77.634 124.722 77.6867 124.611 77.7955C124.503 77.9044 124.447 78.1222 124.444 78.4488C124.441 78.7788 124.492 78.9993 124.597 79.1105C124.706 79.2183 124.925 79.2739 125.255 79.2774Z" fill="#EFEFF7"/>
</svg>
