<svg width="287" height="204" viewBox="0 0 287 204" fill="none" xmlns="http://www.w3.org/2000/svg">
<path d="M11 163L33.5 24H193.5L286 163H11Z" fill="#EFEFF7"/>
<path d="M33 24L286 163" stroke="#5C6497"/>
<path d="M199 20L6 167" stroke="#5C6497"/>
<path d="M111.006 66.905C103.912 66.0197 97.7217 81.9921 109.93 87.7401" stroke="#5C6497"/>
<path d="M181.467 20.0408C177.186 25.7663 187.999 39.052 199.037 31.29" stroke="#5C6497"/>
<path d="M283.991 149.24C278.531 144.626 264.625 154.629 271.716 166.11" stroke="#5C6497"/>
<path d="M29.2846 31.9614C33.4407 37.7785 49.3816 31.5077 45.3361 18.6343" stroke="#5C6497"/>
<path d="M21.3276 166.638C27.4917 163.016 22.6656 146.58 9.48303 149.463" stroke="#5C6497"/>
<path d="M115.021 69.0421C110.646 70.4981 105.298 80.6493 114.312 84.3908" stroke="#5C6497"/>
<path d="M119.201 71.1419C112.202 73.3162 114.589 78.8366 117.679 82.0321" stroke="#5C6497"/>
<path d="M118.611 81.0388C117.413 88.339 132.572 94.8565 139.014 82.4425" stroke="#5C6497"/>
<path d="M121.403 79.319C120.931 83.6278 129.546 86.5327 132.772 79.3191" stroke="#5C6497"/>
<path d="M133.198 70.2165C134.814 63.8984 121.403 57.8906 114.624 68.5348" stroke="#5C6497"/>
<path d="M129.398 72.9354C130.313 69.1093 122.869 64.7129 118.921 71.1313" stroke="#5C6497"/>
<path d="M142.555 84.1704C150.119 85.0797 156.37 68.5157 143.164 62.3599" stroke="#5C6497"/>
<path d="M137.76 81.5528C143.441 81.5863 148.091 69.2135 138.514 66.138" stroke="#5C6497"/>
<path d="M133.623 79.2976C137.527 79.6742 141.018 72.2069 134.252 69.2511" stroke="#5C6497"/>
<path d="M33 23.5V163" stroke="#5C6497"/>
<path d="M32.9304 150.715L44.9148 150.616L44.6654 166.816" stroke="#5C6497" stroke-width="0.5"/>
<path d="M3.9075 86C2.9725 86 2.2875 85.7825 1.8525 85.3475C1.4175 84.9125 1.2 84.2275 1.2 83.2925V81.5975C1.2 80.6625 1.415 79.98 1.845 79.55C2.28 79.115 2.9675 78.9025 3.9075 78.9125H5.1375C5.8725 78.9125 6.4325 79.0375 6.8175 79.2875C7.2075 79.5325 7.44 79.92 7.515 80.45C7.53 80.585 7.5 80.6875 7.425 80.7575C7.355 80.8275 7.255 80.8625 7.125 80.8625C7.005 80.8625 6.915 80.8325 6.855 80.7725C6.795 80.7075 6.75 80.615 6.72 80.495C6.665 80.205 6.5175 80 6.2775 79.88C6.0375 79.76 5.6575 79.7 5.1375 79.7H3.9075C3.1925 79.69 2.6925 79.825 2.4075 80.105C2.1275 80.38 1.9875 80.8775 1.9875 81.5975V83.2925C1.9875 84.0075 2.1275 84.5075 2.4075 84.7925C2.6925 85.0725 3.1925 85.2125 3.9075 85.2125H5.1375C5.6575 85.2125 6.0375 85.1525 6.2775 85.0325C6.5175 84.9125 6.665 84.705 6.72 84.41C6.75 84.29 6.795 84.2 6.855 84.14C6.915 84.075 7.005 84.0425 7.125 84.0425C7.255 84.0425 7.355 84.08 7.425 84.155C7.5 84.225 7.53 84.325 7.515 84.455C7.44 84.985 7.2075 85.375 6.8175 85.625C6.4325 85.875 5.8725 86 5.1375 86H3.9075Z" fill="#EFEFF7"/>
<path d="M123.51 184C122.73 184 122.158 183.82 121.793 183.46C121.433 183.095 121.253 182.522 121.253 181.742C121.253 180.962 121.435 180.39 121.8 180.025C122.165 179.66 122.735 179.477 123.51 179.477H126.923C126.913 178.817 126.763 178.357 126.473 178.097C126.188 177.832 125.7 177.7 125.01 177.7H124.14C123.505 177.7 123.04 177.767 122.745 177.902C122.45 178.037 122.268 178.267 122.198 178.592C122.163 178.717 122.115 178.81 122.055 178.87C122 178.925 121.91 178.952 121.785 178.952C121.655 178.952 121.553 178.917 121.478 178.847C121.408 178.772 121.383 178.672 121.403 178.547C121.468 177.977 121.725 177.562 122.175 177.302C122.63 177.042 123.285 176.912 124.14 176.912H125.01C125.945 176.912 126.628 177.13 127.058 177.565C127.493 177.995 127.71 178.677 127.71 179.612V183.602C127.71 183.867 127.58 184 127.32 184C127.055 184 126.923 183.867 126.923 183.602V182.86C126.443 183.62 125.585 184 124.35 184H123.51ZM123.51 183.212H124.35C124.835 183.212 125.26 183.16 125.625 183.055C125.995 182.945 126.293 182.77 126.518 182.53C126.743 182.29 126.878 181.97 126.923 181.57V180.265H123.51C122.955 180.265 122.57 180.372 122.355 180.587C122.145 180.797 122.04 181.182 122.04 181.742C122.04 182.297 122.145 182.682 122.355 182.898C122.57 183.107 122.955 183.212 123.51 183.212Z" fill="#EFEFF7"/>
<path d="M252.908 88C251.973 88 251.288 87.7825 250.853 87.3475C250.418 86.9125 250.2 86.2275 250.2 85.2925V83.6125C250.2 82.6775 250.418 81.995 250.853 81.565C251.288 81.13 251.973 80.9125 252.908 80.9125H256.05V77.9875C256.05 77.7275 256.183 77.5975 256.448 77.5975C256.708 77.5975 256.838 77.7275 256.838 77.9875V87.6025C256.838 87.8675 256.708 88 256.448 88C256.183 88 256.05 87.8675 256.05 87.6025V86.9575C255.835 87.3025 255.52 87.5625 255.105 87.7375C254.69 87.9125 254.148 88 253.478 88H252.908ZM252.908 87.2125H253.478C254.258 87.2125 254.88 87.09 255.345 86.845C255.815 86.595 256.05 86.2225 256.05 85.7275V81.7H252.908C252.193 81.7 251.693 81.8425 251.408 82.1275C251.128 82.4075 250.988 82.9025 250.988 83.6125V85.2925C250.988 86.0075 251.128 86.5075 251.408 86.7925C251.693 87.0725 252.193 87.2125 252.908 87.2125Z" fill="#EFEFF7"/>
<path d="M119.8 15C119.535 15 119.403 14.8675 119.403 14.6025V4.9875C119.403 4.7275 119.535 4.5975 119.8 4.5975C120.06 4.5975 120.19 4.7275 120.19 4.9875V8.955C120.415 8.61 120.735 8.3475 121.15 8.1675C121.57 7.9875 122.11 7.8975 122.77 7.8975H123.34C124.275 7.8975 124.958 8.115 125.388 8.55C125.823 8.985 126.04 9.67 126.04 10.605V12.2925C126.04 13.2275 125.823 13.9125 125.388 14.3475C124.958 14.7825 124.275 15 123.34 15H122.77C122.11 15 121.57 14.9125 121.15 14.7375C120.735 14.5575 120.415 14.2925 120.19 13.9425V14.6025C120.19 14.8675 120.06 15 119.8 15ZM122.77 14.2125H123.34C124.055 14.2125 124.553 14.0725 124.833 13.7925C125.113 13.5075 125.253 13.0075 125.253 12.2925V10.605C125.253 9.89 125.11 9.3925 124.825 9.1125C124.545 8.8275 124.05 8.685 123.34 8.685H122.77C121.99 8.685 121.365 8.8075 120.895 9.0525C120.425 9.2975 120.19 9.67 120.19 10.17V12.7575C120.2 13.2425 120.44 13.6075 120.91 13.8525C121.38 14.0925 122 14.2125 122.77 14.2125Z" fill="#EFEFF7"/>
<path d="M39.314 86C39.062 86 38.936 85.874 38.936 85.622V80.042C38.936 79.79 39.062 79.664 39.314 79.664C39.566 79.664 39.692 79.79 39.692 80.042V81.9635C40.01 81.6125 40.478 81.437 41.096 81.437H41.348C41.948 81.437 42.392 81.581 42.68 81.869C42.968 82.157 43.112 82.601 43.112 83.201V85.622C43.112 85.874 42.986 86 42.734 86C42.482 86 42.356 85.874 42.356 85.622V83.201C42.356 82.808 42.284 82.5425 42.14 82.4045C41.999 82.2635 41.735 82.193 41.348 82.193H41.096C40.736 82.193 40.4225 82.235 40.1555 82.319C39.8885 82.4 39.734 82.529 39.692 82.706V85.622C39.692 85.874 39.566 86 39.314 86Z" fill="#AEB2CD"/>
<path d="M206.931 81.437C207.498 81.437 207.905 81.5705 208.151 81.8375C208.4 82.1045 208.524 82.547 208.524 83.165V85.622C208.524 85.874 208.398 86 208.146 86C207.894 86 207.768 85.874 207.768 85.622V83.165C207.768 82.823 207.702 82.5755 207.57 82.4225C207.441 82.2695 207.228 82.193 206.931 82.193H206.562C206.22 82.193 205.976 82.2695 205.829 82.4225C205.682 82.5755 205.608 82.823 205.608 83.165V85.622C205.608 85.874 205.482 86 205.23 86C204.978 86 204.852 85.874 204.852 85.622V83.165C204.852 82.823 204.786 82.5755 204.654 82.4225C204.525 82.2695 204.312 82.193 204.015 82.193H203.646C203.304 82.193 203.06 82.2695 202.913 82.4225C202.766 82.5755 202.692 82.823 202.692 83.165V85.622C202.692 85.874 202.566 86 202.314 86C202.062 86 201.936 85.874 201.936 85.622V81.815C201.936 81.563 202.062 81.437 202.314 81.437C202.566 81.437 202.692 81.563 202.692 81.815V82.022C202.851 81.815 203.025 81.6665 203.214 81.5765C203.406 81.4835 203.634 81.437 203.898 81.437H204.015C204.387 81.437 204.68 81.4895 204.893 81.5945C205.106 81.6965 205.268 81.863 205.379 82.094C205.538 81.857 205.706 81.689 205.883 81.59C206.063 81.488 206.289 81.437 206.562 81.437H206.931Z" fill="#AEB2CD"/>
<path d="M80.7603 130.037C79.898 130.028 79.2589 129.813 78.8429 129.393C78.4314 128.968 78.2302 128.325 78.2392 127.462L78.255 125.968C78.2641 125.101 78.4789 124.462 78.8992 124.05C79.3239 123.639 79.9674 123.437 80.8297 123.446L83.3515 123.473L83.3728 121.458C83.3766 121.094 83.5605 120.914 83.9245 120.918C84.2884 120.922 84.4685 121.106 84.4647 121.47L84.3798 129.529C84.376 129.893 84.1921 130.073 83.8281 130.069C83.4641 130.066 83.284 129.882 83.2879 129.518L83.2888 129.427C83.083 129.633 82.8148 129.788 82.4844 129.893C82.1539 129.998 81.7439 130.047 81.2542 130.042L80.7603 130.037ZM80.7718 128.945L81.2657 128.95C81.8377 128.956 82.3195 128.888 82.711 128.745C83.1025 128.601 83.2999 128.378 83.3031 128.075L83.34 124.565L80.8182 124.538C80.2549 124.532 79.8703 124.632 79.6645 124.838C79.4587 125.04 79.3528 125.42 79.3469 125.979L79.3312 127.474C79.3252 128.037 79.423 128.422 79.6245 128.628C79.8304 128.833 80.2128 128.939 80.7718 128.945ZM88.1651 130.115C87.8011 130.111 87.621 129.927 87.6249 129.563L87.6955 122.856L87.9967 122.651L86.5527 123.975C86.4432 124.078 86.3277 124.139 86.2062 124.16C86.0847 124.176 85.966 124.125 85.8503 124.006C85.6188 123.77 85.6344 123.523 85.8971 123.266L87.6571 121.568C87.841 121.388 88.0672 121.3 88.3359 121.302C88.6479 121.306 88.8019 121.489 88.7981 121.853L88.7168 129.575C88.713 129.939 88.5291 130.119 88.1651 130.115Z" fill="#5C6497"/>
<path d="M177.76 130.037C176.898 130.028 176.259 129.813 175.843 129.393C175.431 128.968 175.23 128.325 175.239 127.462L175.255 125.968C175.264 125.101 175.479 124.462 175.899 124.05C176.324 123.639 176.967 123.437 177.83 123.446L180.352 123.473L180.373 121.458C180.377 121.094 180.56 120.914 180.924 120.918C181.288 120.922 181.469 121.106 181.465 121.47L181.38 129.529C181.376 129.893 181.192 130.073 180.828 130.069C180.464 130.066 180.284 129.882 180.288 129.518L180.289 129.427C180.083 129.633 179.815 129.788 179.484 129.893C179.154 129.998 178.744 130.047 178.254 130.042L177.76 130.037ZM177.772 128.945L178.266 128.95C178.838 128.956 179.319 128.888 179.711 128.745C180.103 128.601 180.3 128.378 180.303 128.075L180.34 124.565L177.818 124.538C177.255 124.532 176.87 124.632 176.664 124.838C176.459 125.04 176.353 125.42 176.347 125.979L176.331 127.474C176.325 128.037 176.423 128.422 176.625 128.628C176.83 128.833 177.213 128.939 177.772 128.945ZM188.724 130.153L183.863 130.101C183.49 130.097 183.306 129.914 183.309 129.55C183.316 128.969 183.412 128.476 183.598 128.07C183.789 127.661 184.028 127.317 184.317 127.038C184.611 126.755 184.921 126.518 185.248 126.326C185.575 126.13 185.878 125.954 186.157 125.796C186.641 125.528 187.044 125.296 187.367 125.101C187.694 124.905 187.939 124.704 188.101 124.497C188.264 124.291 188.347 124.038 188.35 123.739C188.355 123.224 188.266 122.876 188.081 122.696C187.901 122.512 187.558 122.418 187.051 122.413L185.66 122.398C185.253 122.394 184.951 122.445 184.755 122.551C184.559 122.657 184.433 122.857 184.378 123.151C184.346 123.324 184.286 123.456 184.198 123.546C184.111 123.636 183.978 123.68 183.8 123.678C183.618 123.676 183.48 123.627 183.386 123.531C183.291 123.43 183.254 123.287 183.273 123.101C183.371 122.491 183.616 122.038 184.009 121.743C184.402 121.444 184.956 121.298 185.671 121.306L187.062 121.321C187.877 121.329 188.479 121.533 188.869 121.931C189.26 122.33 189.45 122.936 189.442 123.751C189.436 124.271 189.304 124.705 189.045 125.053C188.785 125.397 188.446 125.701 188.027 125.966C187.609 126.225 187.16 126.487 186.68 126.751C186.331 126.947 186 127.142 185.686 127.338C185.376 127.535 185.109 127.764 184.886 128.026C184.666 128.288 184.52 128.618 184.446 129.015L188.736 129.061C189.1 129.064 189.28 129.248 189.276 129.612C189.272 129.976 189.088 130.156 188.724 130.153Z" fill="#5C6497"/>
<path d="M11 93L241.5 95" stroke="#5C6497" stroke-width="2"/>
<path d="M42.46 48C42.18 48 42.04 47.86 42.04 47.58V41.38C42.04 41.1 42.18 40.96 42.46 40.96C42.74 40.96 42.88 41.1 42.88 41.38V43.465C43.0533 43.2883 43.27 43.155 43.53 43.065C43.79 42.975 44.0933 42.93 44.44 42.93H44.82C45.4867 42.93 45.98 43.09 46.3 43.41C46.62 43.73 46.78 44.2233 46.78 44.89V46.04C46.78 46.7033 46.62 47.1967 46.3 47.52C45.98 47.84 45.4867 48 44.82 48H44.44C44.0933 48 43.79 47.955 43.53 47.865C43.27 47.775 43.0533 47.6433 42.88 47.47V47.58C42.88 47.86 42.74 48 42.46 48ZM44.44 47.16H44.82C45.2567 47.16 45.5517 47.0817 45.705 46.925C45.8617 46.765 45.94 46.47 45.94 46.04V44.89C45.94 44.4533 45.86 44.1583 45.7 44.005C45.5433 43.8483 45.25 43.77 44.82 43.77H44.44C44 43.77 43.63 43.8267 43.33 43.94C43.03 44.05 42.88 44.2233 42.88 44.46V46.47C42.88 46.7033 43.03 46.8767 43.33 46.99C43.63 47.1033 44 47.16 44.44 47.16Z" fill="#5C6497"/>
<path d="M189.14 47.06C188.5 47.06 187.99 47.0033 187.61 46.89C187.233 46.7733 186.962 46.5817 186.795 46.315C186.632 46.045 186.55 45.68 186.55 45.22V44.17C186.55 43.71 186.632 43.3467 186.795 43.08C186.962 42.81 187.233 42.6183 187.61 42.505C187.99 42.3883 188.5 42.33 189.14 42.33H190.55C190.813 42.33 191.03 42.375 191.2 42.465C191.373 42.5517 191.502 42.6867 191.585 42.87C191.668 43.05 191.71 43.28 191.71 43.56C191.71 43.74 191.673 43.8783 191.6 43.975C191.53 44.0717 191.427 44.12 191.29 44.12C191.157 44.12 191.053 44.075 190.98 43.985C190.907 43.8917 190.87 43.7633 190.87 43.6C190.87 43.4333 190.843 43.32 190.79 43.26C190.737 43.2 190.633 43.17 190.48 43.17H189.14C188.637 43.17 188.26 43.195 188.01 43.245C187.76 43.2917 187.593 43.3883 187.51 43.535C187.43 43.6817 187.39 43.9033 187.39 44.2V45.19C187.39 45.4833 187.43 45.705 187.51 45.855C187.593 46.0017 187.76 46.1 188.01 46.15C188.26 46.1967 188.637 46.22 189.14 46.22H190.48C190.637 46.22 190.74 46.1917 190.79 46.135C190.843 46.0783 190.87 45.9667 190.87 45.8C190.87 45.6433 190.905 45.5167 190.975 45.42C191.045 45.32 191.147 45.27 191.28 45.27C191.41 45.27 191.513 45.3183 191.59 45.415C191.67 45.5083 191.71 45.65 191.71 45.84C191.71 46.1167 191.668 46.3467 191.585 46.53C191.502 46.71 191.373 46.8433 191.2 46.93C191.03 47.0167 190.813 47.06 190.55 47.06H189.14Z" fill="#5C6497"/>
<path d="M247.76 157C247.097 157 246.603 156.84 246.28 156.52C245.96 156.197 245.8 155.703 245.8 155.04V153.89C245.8 153.223 245.96 152.73 246.28 152.41C246.603 152.09 247.097 151.93 247.76 151.93H249.7V150.38C249.7 150.1 249.84 149.96 250.12 149.96C250.4 149.96 250.54 150.1 250.54 150.38V156.58C250.54 156.86 250.4 157 250.12 157C249.84 157 249.7 156.86 249.7 156.58V156.51C249.543 156.67 249.338 156.792 249.085 156.875C248.832 156.958 248.517 157 248.14 157H247.76ZM247.76 156.16H248.14C248.58 156.16 248.95 156.103 249.25 155.99C249.55 155.877 249.7 155.703 249.7 155.47V152.77H247.76C247.327 152.77 247.032 152.85 246.875 153.01C246.718 153.167 246.64 153.46 246.64 153.89V155.04C246.64 155.473 246.718 155.768 246.875 155.925C247.035 156.082 247.33 156.16 247.76 156.16Z" fill="#5C6497"/>
<path d="M125.46 53C125.18 53 125.04 52.86 125.04 52.58V46.38C125.04 46.1 125.18 45.96 125.46 45.96C125.74 45.96 125.88 46.1 125.88 46.38V50.135L128.26 48.09C128.473 47.9067 128.67 47.92 128.85 48.13C129.033 48.3433 129.02 48.54 128.81 48.72L126.985 50.295L128.73 52.28C128.917 52.4967 128.907 52.6933 128.7 52.87C128.487 53.0533 128.287 53.04 128.1 52.83L126.345 50.85L125.88 51.25V52.58C125.88 52.86 125.74 53 125.46 53Z" fill="#5C6497"/>
<path d="M162.55 75C162.04 75 161.66 74.875 161.41 74.625C161.163 74.3717 161.04 73.99 161.04 73.48V68.38C161.04 68.1 161.18 67.96 161.46 67.96C161.74 67.96 161.88 68.1 161.88 68.38V73.48C161.88 73.75 161.923 73.9317 162.01 74.025C162.1 74.115 162.28 74.16 162.55 74.16C162.837 74.16 162.98 74.3 162.98 74.58C162.99 74.86 162.847 75 162.55 75Z" fill="#5C6497"/>
<path d="M22.6 142C22.04 142 21.6233 141.863 21.35 141.59C21.0767 141.317 20.94 140.9 20.94 140.34C20.94 139.78 21.075 139.363 21.345 139.09C21.6183 138.817 22.0367 138.68 22.6 138.68H24.715C24.695 138.33 24.6033 138.092 24.44 137.965C24.2767 137.835 23.9967 137.77 23.6 137.77H23.02C22.6867 137.77 22.4383 137.793 22.275 137.84C22.1117 137.883 21.9967 137.963 21.93 138.08C21.87 138.22 21.8083 138.317 21.745 138.37C21.6817 138.423 21.5867 138.45 21.46 138.45C21.32 138.45 21.21 138.412 21.13 138.335C21.05 138.255 21.0267 138.15 21.06 138.02C21.16 137.643 21.3683 137.368 21.685 137.195C22.005 137.018 22.45 136.93 23.02 136.93H23.6C24.2667 136.93 24.76 137.09 25.08 137.41C25.4 137.73 25.56 138.223 25.56 138.89V141.58C25.56 141.86 25.42 142 25.14 142C24.86 142 24.72 141.86 24.72 141.58V141.355C24.3633 141.785 23.8433 142 23.16 142H22.6ZM22.6 141.16H23.16C23.4067 141.16 23.6383 141.138 23.855 141.095C24.0717 141.048 24.2567 140.965 24.41 140.845C24.5667 140.725 24.67 140.553 24.72 140.33V139.52H22.6C22.27 139.52 22.05 139.575 21.94 139.685C21.8333 139.795 21.78 140.013 21.78 140.34C21.78 140.67 21.8333 140.89 21.94 141C22.05 141.107 22.27 141.16 22.6 141.16Z" fill="#5C6497"/>
</svg>
