<svg width="289" height="206" viewBox="0 0 289 206" fill="none" xmlns="http://www.w3.org/2000/svg">
<path d="M13 176L35.5 37H195.5L288 176H13Z" fill="#EFEFF7"/>
<path d="M35 37L288 176" stroke="#5C6497"/>
<path d="M201 33L8 180" stroke="#5C6497"/>
<path d="M113.006 79.905C105.912 79.0197 99.7217 94.9921 111.93 100.74" stroke="#5C6497"/>
<path d="M183.467 33.0408C179.186 38.7663 189.999 52.052 201.037 44.29" stroke="#5C6497"/>
<path d="M285.991 162.24C280.531 157.626 266.625 167.629 273.716 179.11" stroke="#5C6497"/>
<path d="M31.2846 44.9614C35.4407 50.7785 51.3816 44.5077 47.3361 31.6343" stroke="#5C6497"/>
<path d="M23.3276 179.638C29.4917 176.016 24.6656 159.58 11.483 162.463" stroke="#5C6497"/>
<path d="M117.021 82.0421C112.646 83.4981 107.298 93.6493 116.312 97.3908" stroke="#5C6497"/>
<path d="M121.201 84.1419C114.202 86.3162 116.589 91.8366 119.679 95.0321" stroke="#5C6497"/>
<path d="M120.611 94.0388C119.413 101.339 134.572 107.856 141.014 95.4425" stroke="#5C6497"/>
<path d="M123.403 92.319C122.931 96.6278 131.546 99.5327 134.772 92.3191" stroke="#5C6497"/>
<path d="M135.198 83.2165C136.814 76.8984 123.403 70.8906 116.624 81.5348" stroke="#5C6497"/>
<path d="M131.398 85.9354C132.313 82.1093 124.869 77.7129 120.921 84.1313" stroke="#5C6497"/>
<path d="M144.555 97.1704C152.119 98.0797 158.37 81.5157 145.164 75.3599" stroke="#5C6497"/>
<path d="M139.76 94.5528C145.441 94.5863 150.091 82.2135 140.514 79.138" stroke="#5C6497"/>
<path d="M135.623 92.2976C139.527 92.6742 143.018 85.2069 136.252 82.2511" stroke="#5C6497"/>
<path d="M35 36.5V176" stroke="#5C6497"/>
<path d="M34.9304 163.715L46.9148 163.616L46.6654 179.816" stroke="#5C6497" stroke-width="0.5"/>
<path d="M8.336 111C6.34133 111 4.88 110.536 3.952 109.608C3.024 108.68 2.56 107.219 2.56 105.224V101.608C2.56 99.6133 3.01867 98.1573 3.936 97.24C4.864 96.312 6.33067 95.8587 8.336 95.88H10.96C12.528 95.88 13.7227 96.1467 14.544 96.68C15.376 97.2027 15.872 98.0293 16.032 99.16C16.064 99.448 16 99.6667 15.84 99.816C15.6907 99.9653 15.4773 100.04 15.2 100.04C14.944 100.04 14.752 99.976 14.624 99.848C14.496 99.7093 14.4 99.512 14.336 99.256C14.2187 98.6373 13.904 98.2 13.392 97.944C12.88 97.688 12.0693 97.56 10.96 97.56H8.336C6.81067 97.5387 5.744 97.8267 5.136 98.424C4.53867 99.0107 4.24 100.072 4.24 101.608L4.24 105.224C4.24 106.749 4.53867 107.816 5.136 108.424C5.744 109.021 6.81067 109.32 8.336 109.32H10.96C12.0693 109.32 12.88 109.192 13.392 108.936C13.904 108.68 14.2187 108.237 14.336 107.608C14.4 107.352 14.496 107.16 14.624 107.032C14.752 106.893 14.944 106.824 15.2 106.824C15.4773 106.824 15.6907 106.904 15.84 107.064C16 107.213 16.064 107.427 16.032 107.704C15.872 108.835 15.376 109.667 14.544 110.2C13.7227 110.733 12.528 111 10.96 111H8.336Z" fill="#EFEFF7"/>
<path d="M131.488 202C129.824 202 128.603 201.616 127.824 200.848C127.056 200.069 126.672 198.848 126.672 197.184C126.672 195.52 127.061 194.299 127.84 193.52C128.619 192.741 129.835 192.352 131.488 192.352H138.768C138.747 190.944 138.427 189.963 137.808 189.408C137.2 188.843 136.16 188.56 134.688 188.56H132.832C131.477 188.56 130.485 188.704 129.856 188.992C129.227 189.28 128.837 189.771 128.688 190.464C128.613 190.731 128.512 190.928 128.384 191.056C128.267 191.173 128.075 191.232 127.808 191.232C127.531 191.232 127.312 191.157 127.152 191.008C127.003 190.848 126.949 190.635 126.992 190.368C127.131 189.152 127.68 188.267 128.64 187.712C129.611 187.157 131.008 186.88 132.832 186.88H134.688C136.683 186.88 138.139 187.344 139.056 188.272C139.984 189.189 140.448 190.645 140.448 192.64V201.152C140.448 201.717 140.171 202 139.616 202C139.051 202 138.768 201.717 138.768 201.152V199.568C137.744 201.189 135.915 202 133.28 202H131.488ZM131.488 200.32H133.28C134.315 200.32 135.221 200.208 136 199.984C136.789 199.749 137.424 199.376 137.904 198.864C138.384 198.352 138.672 197.669 138.768 196.816V194.032H131.488C130.304 194.032 129.483 194.261 129.024 194.72C128.576 195.168 128.352 195.989 128.352 197.184C128.352 198.368 128.576 199.189 129.024 199.648C129.483 200.096 130.304 200.32 131.488 200.32Z" fill="#EFEFF7"/>
<path d="M259.336 112C257.341 112 255.88 111.536 254.952 110.608C254.024 109.68 253.56 108.219 253.56 106.224V102.64C253.56 100.645 254.024 99.1893 254.952 98.272C255.88 97.344 257.341 96.88 259.336 96.88H266.04V90.64C266.04 90.0853 266.323 89.808 266.888 89.808C267.443 89.808 267.72 90.0853 267.72 90.64V111.152C267.72 111.717 267.443 112 266.888 112C266.323 112 266.04 111.717 266.04 111.152V109.776C265.581 110.512 264.909 111.067 264.024 111.44C263.139 111.813 261.981 112 260.552 112H259.336ZM259.336 110.32H260.552C262.216 110.32 263.544 110.059 264.536 109.536C265.539 109.003 266.04 108.208 266.04 107.152V98.56H259.336C257.811 98.56 256.744 98.864 256.136 99.472C255.539 100.069 255.24 101.125 255.24 102.64V106.224C255.24 107.749 255.539 108.816 256.136 109.424C256.744 110.021 257.811 110.32 259.336 110.32Z" fill="#EFEFF7"/>
<path d="M117.84 31C117.275 31 116.992 30.7173 116.992 30.152V9.64C116.992 9.08533 117.275 8.808 117.84 8.808C118.395 8.808 118.672 9.08533 118.672 9.64V18.104C119.152 17.368 119.835 16.808 120.72 16.424C121.616 16.04 122.768 15.848 124.176 15.848H125.392C127.387 15.848 128.843 16.312 129.76 17.24C130.688 18.168 131.152 19.6293 131.152 21.624V25.224C131.152 27.2187 130.688 28.68 129.76 29.608C128.843 30.536 127.387 31 125.392 31H124.176C122.768 31 121.616 30.8133 120.72 30.44C119.835 30.056 119.152 29.4907 118.672 28.744V30.152C118.672 30.7173 118.395 31 117.84 31ZM124.176 29.32H125.392C126.917 29.32 127.979 29.0213 128.576 28.424C129.173 27.816 129.472 26.7493 129.472 25.224V21.624C129.472 20.0987 129.168 19.0373 128.56 18.44C127.963 17.832 126.907 17.528 125.392 17.528H124.176C122.512 17.528 121.179 17.7893 120.176 18.312C119.173 18.8347 118.672 19.6293 118.672 20.696V26.216C118.693 27.2507 119.205 28.0293 120.208 28.552C121.211 29.064 122.533 29.32 124.176 29.32Z" fill="#EFEFF7"/>
<path d="M37.628 99C37.124 99 36.872 98.748 36.872 98.244V87.084C36.872 86.58 37.124 86.328 37.628 86.328C38.132 86.328 38.384 86.58 38.384 87.084V90.927C39.02 90.225 39.956 89.874 41.192 89.874H41.696C42.896 89.874 43.784 90.162 44.36 90.738C44.936 91.314 45.224 92.202 45.224 93.402V98.244C45.224 98.748 44.972 99 44.468 99C43.964 99 43.712 98.748 43.712 98.244V93.402C43.712 92.616 43.568 92.085 43.28 91.809C42.998 91.527 42.47 91.386 41.696 91.386H41.192C40.472 91.386 39.845 91.47 39.311 91.638C38.777 91.8 38.468 92.058 38.384 92.412V98.244C38.384 98.748 38.132 99 37.628 99Z" fill="#AEB2CD"/>
<path d="M212.862 93.874C213.996 93.874 214.809 94.141 215.301 94.675C215.799 95.209 216.048 96.094 216.048 97.33V102.244C216.048 102.748 215.796 103 215.292 103C214.788 103 214.536 102.748 214.536 102.244V97.33C214.536 96.646 214.404 96.151 214.14 95.845C213.882 95.539 213.456 95.386 212.862 95.386H212.124C211.44 95.386 210.951 95.539 210.657 95.845C210.363 96.151 210.216 96.646 210.216 97.33V102.244C210.216 102.748 209.964 103 209.46 103C208.956 103 208.704 102.748 208.704 102.244V97.33C208.704 96.646 208.572 96.151 208.308 95.845C208.05 95.539 207.624 95.386 207.03 95.386H206.292C205.608 95.386 205.119 95.539 204.825 95.845C204.531 96.151 204.384 96.646 204.384 97.33V102.244C204.384 102.748 204.132 103 203.628 103C203.124 103 202.872 102.748 202.872 102.244V94.63C202.872 94.126 203.124 93.874 203.628 93.874C204.132 93.874 204.384 94.126 204.384 94.63V95.044C204.702 94.63 205.05 94.333 205.428 94.153C205.812 93.967 206.268 93.874 206.796 93.874H207.03C207.774 93.874 208.359 93.979 208.785 94.189C209.211 94.393 209.535 94.726 209.757 95.188C210.075 94.714 210.411 94.378 210.765 94.18C211.125 93.976 211.578 93.874 212.124 93.874H212.862Z" fill="#AEB2CD"/>
<path d="M80.1702 150.074C78.4456 150.056 77.1674 149.627 76.3355 148.786C75.5124 147.936 75.1099 146.649 75.1281 144.925L75.1596 141.935C75.1778 140.202 75.6073 138.924 76.448 138.1C77.2974 137.277 78.5844 136.875 80.309 136.893L85.3527 136.946L85.3951 132.916C85.4028 132.188 85.7706 131.828 86.4986 131.836C87.2265 131.843 87.5867 132.211 87.579 132.939L87.4093 149.058C87.4016 149.786 87.0338 150.146 86.3058 150.139C85.5779 150.131 85.2177 149.763 85.2254 149.035L85.2273 148.853C84.8156 149.265 84.2793 149.576 83.6184 149.785C82.9575 149.995 82.1374 150.095 81.1581 150.085L80.1702 150.074ZM80.1932 147.89L81.1811 147.901C82.325 147.913 83.2885 147.776 84.0716 147.489C84.8547 147.203 85.2494 146.756 85.2558 146.15L85.3297 139.13L80.286 139.077C79.1594 139.065 78.3902 139.265 77.9785 139.677C77.5669 140.08 77.3552 140.84 77.3435 141.958L77.312 144.948C77.3001 146.074 77.4957 146.844 77.8987 147.255C78.3104 147.667 79.0752 147.879 80.1932 147.89ZM94.9798 150.23C94.2518 150.222 93.8917 149.855 93.8994 149.127L94.0406 135.711L94.643 135.302L91.7549 137.949C91.5361 138.155 91.3051 138.278 91.062 138.319C90.819 138.351 90.5817 138.249 90.3502 138.013C89.8871 137.54 89.9183 137.046 90.4438 136.532L93.9637 133.136C94.3315 132.776 94.7841 132.599 95.3214 132.605C95.9454 132.611 96.2535 132.979 96.2459 133.707L96.0832 149.15C96.0756 149.878 95.7078 150.238 94.9798 150.23Z" fill="#5C6497"/>
<path d="M183.213 151.074C181.489 151.056 180.21 150.627 179.378 149.786C178.555 148.936 178.153 147.649 178.171 145.925L178.203 142.935C178.221 141.202 178.65 139.924 179.491 139.1C180.34 138.277 181.627 137.875 183.352 137.893L188.396 137.946L188.438 133.916C188.446 133.188 188.814 132.828 189.542 132.836C190.269 132.843 190.63 133.211 190.622 133.939L190.452 150.058C190.445 150.786 190.077 151.146 189.349 151.139C188.621 151.131 188.261 150.763 188.268 150.035L188.27 149.853C187.859 150.265 187.322 150.576 186.661 150.785C186 150.995 185.18 151.095 184.201 151.085L183.213 151.074ZM183.236 148.89L184.224 148.901C185.368 148.913 186.332 148.776 187.115 148.489C187.898 148.203 188.292 147.756 188.299 147.15L188.373 140.13L183.329 140.077C182.202 140.065 181.433 140.265 181.021 140.677C180.61 141.08 180.398 141.84 180.386 142.958L180.355 145.948C180.343 147.074 180.539 147.844 180.942 148.255C181.353 148.667 182.118 148.879 183.236 148.89ZM205.141 151.305L195.418 151.203C194.673 151.195 194.304 150.827 194.311 150.099C194.324 148.938 194.516 147.952 194.889 147.141C195.27 146.322 195.749 145.633 196.327 145.076C196.914 144.51 197.534 144.036 198.188 143.652C198.843 143.261 199.449 142.907 200.007 142.593C200.974 142.057 201.781 141.593 202.427 141.201C203.081 140.809 203.57 140.407 203.895 139.994C204.22 139.582 204.386 139.076 204.392 138.478C204.403 137.447 204.224 136.752 203.855 136.393C203.495 136.025 202.808 135.836 201.794 135.825L199.012 135.796C198.198 135.787 197.594 135.889 197.202 136.102C196.81 136.314 196.558 136.715 196.448 137.303C196.384 137.649 196.264 137.912 196.089 138.092C195.914 138.272 195.648 138.36 195.293 138.357C194.929 138.353 194.653 138.255 194.464 138.062C194.276 137.861 194.201 137.574 194.239 137.202C194.434 135.981 194.925 135.077 195.711 134.487C196.497 133.888 197.605 133.597 199.035 133.612L201.817 133.641C203.446 133.658 204.651 134.065 205.431 134.862C206.212 135.659 206.593 136.872 206.576 138.501C206.565 139.541 206.3 140.41 205.782 141.106C205.263 141.794 204.585 142.402 203.747 142.931C202.91 143.451 202.012 143.974 201.053 144.502C200.355 144.893 199.692 145.285 199.064 145.677C198.445 146.069 197.911 146.527 197.464 147.051C197.025 147.575 196.732 148.235 196.585 149.031L205.164 149.121C205.892 149.129 206.252 149.497 206.245 150.225C206.237 150.953 205.869 151.313 205.141 151.305Z" fill="#5C6497"/>
<path d="M13 106L243.5 108" stroke="#5C6497" stroke-width="2"/>
<path d="M43.92 62C43.36 62 43.08 61.72 43.08 61.16V48.76C43.08 48.2 43.36 47.92 43.92 47.92C44.48 47.92 44.76 48.2 44.76 48.76V52.93C45.1067 52.5767 45.54 52.31 46.06 52.13C46.58 51.95 47.1867 51.86 47.88 51.86H48.64C49.9733 51.86 50.96 52.18 51.6 52.82C52.24 53.46 52.56 54.4467 52.56 55.78V58.08C52.56 59.4067 52.24 60.3933 51.6 61.04C50.96 61.68 49.9733 62 48.64 62H47.88C47.1867 62 46.58 61.91 46.06 61.73C45.54 61.55 45.1067 61.2867 44.76 60.94V61.16C44.76 61.72 44.48 62 43.92 62ZM47.88 60.32H48.64C49.5133 60.32 50.1033 60.1633 50.41 59.85C50.7233 59.53 50.88 58.94 50.88 58.08V55.78C50.88 54.9067 50.72 54.3167 50.4 54.01C50.0867 53.6967 49.5 53.54 48.64 53.54H47.88C47 53.54 46.26 53.6533 45.66 53.88C45.06 54.1 44.76 54.4467 44.76 54.92V58.94C44.76 59.4067 45.06 59.7533 45.66 59.98C46.26 60.2067 47 60.32 47.88 60.32Z" fill="#5C6497"/>
<path d="M194.28 59.12C193 59.12 191.98 59.0067 191.22 58.78C190.467 58.5467 189.923 58.1633 189.59 57.63C189.263 57.09 189.1 56.36 189.1 55.44V53.34C189.1 52.42 189.263 51.6933 189.59 51.16C189.923 50.62 190.467 50.2367 191.22 50.01C191.98 49.7767 193 49.66 194.28 49.66H197.1C197.627 49.66 198.06 49.75 198.4 49.93C198.747 50.1033 199.003 50.3733 199.17 50.74C199.337 51.1 199.42 51.56 199.42 52.12C199.42 52.48 199.347 52.7567 199.2 52.95C199.06 53.1433 198.853 53.24 198.58 53.24C198.313 53.24 198.107 53.15 197.96 52.97C197.813 52.7833 197.74 52.5267 197.74 52.2C197.74 51.8667 197.687 51.64 197.58 51.52C197.473 51.4 197.267 51.34 196.96 51.34H194.28C193.273 51.34 192.52 51.39 192.02 51.49C191.52 51.5833 191.187 51.7767 191.02 52.07C190.86 52.3633 190.78 52.8067 190.78 53.4V55.38C190.78 55.9667 190.86 56.41 191.02 56.71C191.187 57.0033 191.52 57.2 192.02 57.3C192.52 57.3933 193.273 57.44 194.28 57.44H196.96C197.273 57.44 197.48 57.3833 197.58 57.27C197.687 57.1567 197.74 56.9333 197.74 56.6C197.74 56.2867 197.81 56.0333 197.95 55.84C198.09 55.64 198.293 55.54 198.56 55.54C198.82 55.54 199.027 55.6367 199.18 55.83C199.34 56.0167 199.42 56.3 199.42 56.68C199.42 57.2333 199.337 57.6933 199.17 58.06C199.003 58.42 198.747 58.6867 198.4 58.86C198.06 59.0333 197.627 59.12 197.1 59.12H194.28Z" fill="#5C6497"/>
<path d="M252.52 175C251.193 175 250.207 174.68 249.56 174.04C248.92 173.393 248.6 172.407 248.6 171.08V168.78C248.6 167.447 248.92 166.46 249.56 165.82C250.207 165.18 251.193 164.86 252.52 164.86H256.4V161.76C256.4 161.2 256.68 160.92 257.24 160.92C257.8 160.92 258.08 161.2 258.08 161.76V174.16C258.08 174.72 257.8 175 257.24 175C256.68 175 256.4 174.72 256.4 174.16V174.02C256.087 174.34 255.677 174.583 255.17 174.75C254.663 174.917 254.033 175 253.28 175H252.52ZM252.52 173.32H253.28C254.16 173.32 254.9 173.207 255.5 172.98C256.1 172.753 256.4 172.407 256.4 171.94V166.54H252.52C251.653 166.54 251.063 166.7 250.75 167.02C250.437 167.333 250.28 167.92 250.28 168.78V171.08C250.28 171.947 250.437 172.537 250.75 172.85C251.07 173.163 251.66 173.32 252.52 173.32Z" fill="#5C6497"/>
<path d="M125.92 70C125.36 70 125.08 69.72 125.08 69.16V56.76C125.08 56.2 125.36 55.92 125.92 55.92C126.48 55.92 126.76 56.2 126.76 56.76V64.27L131.52 60.18C131.947 59.8133 132.34 59.84 132.7 60.26C133.067 60.6867 133.04 61.08 132.62 61.44L128.97 64.59L132.46 68.56C132.833 68.9933 132.813 69.3867 132.4 69.74C131.973 70.1067 131.573 70.08 131.2 69.66L127.69 65.7L126.76 66.5V69.16C126.76 69.72 126.48 70 125.92 70Z" fill="#5C6497"/>
<path d="M162.1 93C161.08 93 160.32 92.75 159.82 92.25C159.327 91.7433 159.08 90.98 159.08 89.96V79.76C159.08 79.2 159.36 78.92 159.92 78.92C160.48 78.92 160.76 79.2 160.76 79.76V89.96C160.76 90.5 160.847 90.8633 161.02 91.05C161.2 91.23 161.56 91.32 162.1 91.32C162.673 91.32 162.96 91.6 162.96 92.16C162.98 92.72 162.693 93 162.1 93Z" fill="#5C6497"/>
<path d="M24.2 163C23.08 163 22.2467 162.727 21.7 162.18C21.1533 161.633 20.88 160.8 20.88 159.68C20.88 158.56 21.15 157.727 21.69 157.18C22.2367 156.633 23.0733 156.36 24.2 156.36H28.43C28.39 155.66 28.2067 155.183 27.88 154.93C27.5533 154.67 26.9933 154.54 26.2 154.54H25.04C24.3733 154.54 23.8767 154.587 23.55 154.68C23.2233 154.767 22.9933 154.927 22.86 155.16C22.74 155.44 22.6167 155.633 22.49 155.74C22.3633 155.847 22.1733 155.9 21.92 155.9C21.64 155.9 21.42 155.823 21.26 155.67C21.1 155.51 21.0533 155.3 21.12 155.04C21.32 154.287 21.7367 153.737 22.37 153.39C23.01 153.037 23.9 152.86 25.04 152.86H26.2C27.5333 152.86 28.52 153.18 29.16 153.82C29.8 154.46 30.12 155.447 30.12 156.78V162.16C30.12 162.72 29.84 163 29.28 163C28.72 163 28.44 162.72 28.44 162.16V161.71C27.7267 162.57 26.6867 163 25.32 163H24.2ZM24.2 161.32H25.32C25.8133 161.32 26.2767 161.277 26.71 161.19C27.1433 161.097 27.5133 160.93 27.82 160.69C28.1333 160.45 28.34 160.107 28.44 159.66V158.04H24.2C23.54 158.04 23.1 158.15 22.88 158.37C22.6667 158.59 22.56 159.027 22.56 159.68C22.56 160.34 22.6667 160.78 22.88 161C23.1 161.213 23.54 161.32 24.2 161.32Z" fill="#5C6497"/>
</svg>
