<svg width="171" height="240" viewBox="0 0 171 240" fill="none" xmlns="http://www.w3.org/2000/svg">
<path d="M21.5 187.5L170 62" stroke="#ADABD2" stroke-width="2"/>
<path d="M22 44.5L144 29.5" stroke="#ADABD2" stroke-width="2"/>
<path d="M22 187L140.5 168" stroke="#ADABD2" stroke-width="2"/>
<path d="M120.5 145.5L96.5 195" stroke="#ADABD2" stroke-width="2"/>
<path d="M169.5 201L80.5 162" stroke="#ADABD2" stroke-width="2"/>
<path d="M55.5527 182.6C54.5 174 49.5 175.5 49.5 175.5" stroke="#ADABD2"/>
<path d="M50.5117 190.268C49.459 181.667 44.459 183.167 44.459 183.167" stroke="#ADABD2"/>
<path d="M112 148.659C114.519 150.859 115.717 150.865 118.3 149.197" stroke="#ADABD2"/>
<path d="M107 150.659C111.427 155.143 113.307 155.415 116.995 152.991" stroke="#ADABD2"/>
<path d="M118.117 151.588C121.426 152.071 122.436 151.427 123.703 148.625" stroke="#ADABD2"/>
<path d="M115 155.979C121.151 157.348 124.215 155.536 126 151.5" stroke="#ADABD2"/>
<path d="M159 189C155.037 190.072 154.257 191.154 154.358 194.414" stroke="#ADABD2"/>
<path d="M155 185C151.93 186.282 150.949 188.914 151.031 192.83" stroke="#ADABD2"/>
<path d="M153 182C147.618 183.451 145.893 186.418 146.03 190.83" stroke="#ADABD2"/>
<path d="M149.996 192C144.619 193.288 142.894 195.919 143.03 199.83" stroke="#ADABD2"/>
<path d="M158 196C154.606 196.874 153.937 197.757 154.023 200.414" stroke="#ADABD2"/>
<path d="M153 194C149.162 194.959 147.931 196.918 148.028 199.83" stroke="#ADABD2"/>
<path d="M21 44.7471V187.812M21 44.7471L170 60.7088M21 44.7471L120.333 1M21 187.812L170 202M21 187.812L120.333 144.656M170 202V60.7088M170 202L120.333 144.656M170 60.7088L142.462 27.6029L120.333 1M120.333 1V144.656" stroke="#EFEFF7"/>
<path d="M93.51 216C92.73 216 92.1575 215.82 91.7925 215.46C91.4325 215.095 91.2525 214.522 91.2525 213.742C91.2525 212.962 91.435 212.39 91.8 212.025C92.165 211.66 92.735 211.477 93.51 211.477H96.9225C96.9125 210.817 96.7625 210.357 96.4725 210.097C96.1875 209.832 95.7 209.7 95.01 209.7H94.14C93.505 209.7 93.04 209.767 92.745 209.902C92.45 210.037 92.2675 210.267 92.1975 210.592C92.1625 210.717 92.115 210.81 92.055 210.87C92 210.925 91.91 210.952 91.785 210.952C91.655 210.952 91.5525 210.917 91.4775 210.847C91.4075 210.772 91.3825 210.672 91.4025 210.547C91.4675 209.977 91.725 209.562 92.175 209.302C92.63 209.042 93.285 208.912 94.14 208.912H95.01C95.945 208.912 96.6275 209.13 97.0575 209.565C97.4925 209.995 97.71 210.677 97.71 211.612V215.602C97.71 215.867 97.58 216 97.32 216C97.055 216 96.9225 215.867 96.9225 215.602V214.86C96.4425 215.62 95.585 216 94.35 216H93.51ZM93.51 215.212H94.35C94.835 215.212 95.26 215.16 95.625 215.055C95.995 214.945 96.2925 214.77 96.5175 214.53C96.7425 214.29 96.8775 213.97 96.9225 213.57V212.265H93.51C92.955 212.265 92.57 212.372 92.355 212.587C92.145 212.797 92.04 213.182 92.04 213.742C92.04 214.297 92.145 214.682 92.355 214.898C92.57 215.107 92.955 215.212 93.51 215.212Z" fill="#EFEFF7"/>
<path d="M1.8 116C1.535 116 1.4025 115.867 1.4025 115.602L1.4025 105.987C1.4025 105.727 1.535 105.597 1.8 105.597C2.06 105.597 2.19 105.727 2.19 105.987V110.022C2.665 109.282 3.525 108.912 4.77 108.912H5.19C6.125 108.912 6.8075 109.13 7.2375 109.565C7.6725 109.995 7.89 110.677 7.89 111.612V115.602C7.89 115.867 7.76 116 7.5 116C7.235 116 7.1025 115.867 7.1025 115.602V111.612C7.1025 110.897 6.96 110.4 6.675 110.12C6.395 109.84 5.9 109.7 5.19 109.7H4.77C3.995 109.7 3.385 109.822 2.94 110.067C2.495 110.312 2.245 110.695 2.19 111.215L2.19 115.602C2.19 115.867 2.06 116 1.8 116Z" fill="#EFEFF7"/>
<path d="M64.34 188C63.836 188 63.461 187.877 63.215 187.631C62.969 187.385 62.846 187.01 62.846 186.506C62.846 186.002 62.9675 185.627 63.2105 185.381C63.4565 185.135 63.833 185.012 64.34 185.012H66.2435C66.2255 184.697 66.143 184.482 65.996 184.368C65.849 184.251 65.597 184.193 65.24 184.193H64.718C64.418 184.193 64.1945 184.214 64.0475 184.256C63.9005 184.295 63.797 184.367 63.737 184.472C63.683 184.598 63.6275 184.685 63.5705 184.733C63.5135 184.781 63.428 184.805 63.314 184.805C63.188 184.805 63.089 184.77 63.017 184.701C62.945 184.629 62.924 184.535 62.954 184.418C63.044 184.079 63.2315 183.831 63.5165 183.675C63.8045 183.516 64.205 183.437 64.718 183.437H65.24C65.84 183.437 66.284 183.581 66.572 183.869C66.86 184.157 67.004 184.601 67.004 185.201V187.622C67.004 187.874 66.878 188 66.626 188C66.374 188 66.248 187.874 66.248 187.622V187.419C65.927 187.806 65.459 188 64.844 188H64.34ZM64.34 187.244H64.844C65.066 187.244 65.2745 187.224 65.4695 187.185C65.6645 187.143 65.831 187.068 65.969 186.96C66.11 186.852 66.203 186.698 66.248 186.497V185.768H64.34C64.043 185.768 63.845 185.817 63.746 185.916C63.65 186.015 63.602 186.212 63.602 186.506C63.602 186.803 63.65 187.001 63.746 187.1C63.845 187.196 64.043 187.244 64.34 187.244Z" fill="white"/>
<path d="M122.314 165C122.062 165 121.936 164.874 121.936 164.622V159.042C121.936 158.79 122.062 158.664 122.314 158.664C122.566 158.664 122.692 158.79 122.692 159.042V160.918C122.848 160.759 123.043 160.639 123.277 160.558C123.511 160.477 123.784 160.437 124.096 160.437H124.438C125.038 160.437 125.482 160.581 125.77 160.869C126.058 161.157 126.202 161.601 126.202 162.201V163.236C126.202 163.833 126.058 164.277 125.77 164.568C125.482 164.856 125.038 165 124.438 165H124.096C123.784 165 123.511 164.959 123.277 164.878C123.043 164.797 122.848 164.679 122.692 164.523V164.622C122.692 164.874 122.566 165 122.314 165ZM124.096 164.244H124.438C124.831 164.244 125.097 164.173 125.235 164.032C125.376 163.888 125.446 163.623 125.446 163.236V162.201C125.446 161.808 125.374 161.542 125.23 161.404C125.089 161.263 124.825 161.193 124.438 161.193H124.096C123.7 161.193 123.367 161.244 123.097 161.346C122.827 161.445 122.692 161.601 122.692 161.814V163.623C122.692 163.833 122.827 163.989 123.097 164.091C123.367 164.193 123.7 164.244 124.096 164.244Z" fill="white"/>
<path d="M129.484 195C128.887 195 128.443 194.856 128.152 194.568C127.864 194.277 127.72 193.833 127.72 193.236V192.192C127.72 191.592 127.863 191.148 128.148 190.86C128.436 190.572 128.881 190.431 129.484 190.437H130.222C130.669 190.437 131.02 190.512 131.275 190.662C131.533 190.812 131.698 191.043 131.77 191.355C131.797 191.481 131.775 191.578 131.703 191.647C131.634 191.716 131.533 191.751 131.401 191.751C131.284 191.751 131.199 191.721 131.145 191.661C131.091 191.601 131.041 191.517 130.996 191.409C130.951 191.328 130.869 191.272 130.749 191.242C130.629 191.209 130.453 191.193 130.222 191.193H129.484C129.097 191.187 128.832 191.254 128.688 191.395C128.547 191.533 128.476 191.799 128.476 192.192V193.236C128.476 193.626 128.547 193.891 128.688 194.032C128.832 194.173 129.097 194.244 129.484 194.244H130.222C130.453 194.244 130.629 194.229 130.749 194.199C130.869 194.166 130.951 194.109 130.996 194.028C131.041 193.914 131.091 193.828 131.145 193.771C131.202 193.714 131.29 193.686 131.41 193.686C131.536 193.686 131.634 193.72 131.703 193.789C131.775 193.858 131.797 193.956 131.77 194.082C131.698 194.391 131.533 194.622 131.275 194.775C131.02 194.925 130.669 195 130.222 195H129.484Z" fill="white"/>
<path d="M75.08 173C74.921 173 74.8415 172.92 74.8415 172.761V166.992C74.8415 166.836 74.921 166.758 75.08 166.758C75.236 166.758 75.314 166.836 75.314 166.992V169.413C75.599 168.969 76.115 168.747 76.862 168.747H77.114C77.675 168.747 78.0845 168.878 78.3425 169.139C78.6035 169.397 78.734 169.806 78.734 170.367V172.761C78.734 172.92 78.656 173 78.5 173C78.341 173 78.2615 172.92 78.2615 172.761V170.367C78.2615 169.938 78.176 169.64 78.005 169.472C77.837 169.304 77.54 169.22 77.114 169.22H76.862C76.397 169.22 76.031 169.293 75.764 169.44C75.497 169.587 75.347 169.817 75.314 170.129V172.761C75.314 172.92 75.236 173 75.08 173ZM81.4234 173C80.9554 173 80.6119 172.892 80.3929 172.676C80.1769 172.457 80.0689 172.113 80.0689 171.645C80.0689 171.177 80.1784 170.834 80.3974 170.615C80.6164 170.396 80.9584 170.286 81.4234 170.286H83.4709C83.4649 169.89 83.3749 169.614 83.2009 169.458C83.0299 169.299 82.7374 169.22 82.3234 169.22H81.8014C81.4204 169.22 81.1414 169.26 80.9644 169.341C80.7874 169.422 80.6779 169.56 80.6359 169.755C80.6149 169.83 80.5864 169.886 80.5504 169.922C80.5174 169.955 80.4634 169.971 80.3884 169.971C80.3104 169.971 80.2489 169.95 80.2039 169.908C80.1619 169.863 80.1469 169.803 80.1589 169.728C80.1979 169.386 80.3524 169.137 80.6224 168.981C80.8954 168.825 81.2884 168.747 81.8014 168.747H82.3234C82.8844 168.747 83.2939 168.878 83.5519 169.139C83.8129 169.397 83.9434 169.806 83.9434 170.367V172.761C83.9434 172.92 83.8654 173 83.7094 173C83.5504 173 83.4709 172.92 83.4709 172.761V172.316C83.1829 172.772 82.6684 173 81.9274 173H81.4234ZM81.4234 172.527H81.9274C82.2184 172.527 82.4734 172.496 82.6924 172.433C82.9144 172.367 83.0929 172.262 83.2279 172.118C83.3629 171.974 83.4439 171.782 83.4709 171.542V170.759H81.4234C81.0904 170.759 80.8594 170.823 80.7304 170.952C80.6044 171.078 80.5414 171.309 80.5414 171.645C80.5414 171.978 80.6044 172.209 80.7304 172.339C80.8594 172.464 81.0904 172.527 81.4234 172.527Z" fill="#EFEFF7"/>
<path d="M106.08 189C105.921 189 105.842 188.92 105.842 188.761V182.992C105.842 182.836 105.921 182.758 106.08 182.758C106.236 182.758 106.314 182.836 106.314 182.992V185.413C106.599 184.969 107.115 184.747 107.862 184.747H108.114C108.675 184.747 109.085 184.878 109.343 185.139C109.604 185.397 109.734 185.806 109.734 186.367V188.761C109.734 188.92 109.656 189 109.5 189C109.341 189 109.262 188.92 109.262 188.761V186.367C109.262 185.938 109.176 185.64 109.005 185.472C108.837 185.304 108.54 185.22 108.114 185.22H107.862C107.397 185.22 107.031 185.293 106.764 185.44C106.497 185.587 106.347 185.817 106.314 186.129V188.761C106.314 188.92 106.236 189 106.08 189ZM111.573 189C111.414 189 111.335 188.92 111.335 188.761V182.992C111.335 182.836 111.414 182.758 111.573 182.758C111.729 182.758 111.807 182.836 111.807 182.992V185.373C111.942 185.166 112.134 185.008 112.383 184.9C112.635 184.792 112.959 184.738 113.355 184.738H113.697C114.258 184.738 114.668 184.869 114.926 185.13C115.187 185.391 115.317 185.802 115.317 186.363V187.375C115.317 187.936 115.187 188.347 114.926 188.608C114.668 188.869 114.258 189 113.697 189H113.355C112.959 189 112.635 188.947 112.383 188.842C112.134 188.734 111.942 188.575 111.807 188.365V188.761C111.807 188.92 111.729 189 111.573 189ZM113.355 188.527H113.697C114.126 188.527 114.425 188.443 114.593 188.275C114.761 188.104 114.845 187.804 114.845 187.375V186.363C114.845 185.934 114.759 185.635 114.588 185.467C114.42 185.296 114.123 185.211 113.697 185.211H113.355C112.887 185.211 112.512 185.284 112.23 185.431C111.948 185.578 111.807 185.802 111.807 186.102V187.654C111.813 187.945 111.957 188.164 112.239 188.311C112.521 188.455 112.893 188.527 113.355 188.527Z" fill="#EFEFF7"/>
<path d="M130.08 179C129.921 179 129.842 178.92 129.842 178.761V172.992C129.842 172.836 129.921 172.758 130.08 172.758C130.236 172.758 130.314 172.836 130.314 172.992V175.413C130.599 174.969 131.115 174.747 131.862 174.747H132.114C132.675 174.747 133.085 174.878 133.343 175.139C133.604 175.397 133.734 175.806 133.734 176.367V178.761C133.734 178.92 133.656 179 133.5 179C133.341 179 133.262 178.92 133.262 178.761V176.367C133.262 175.938 133.176 175.64 133.005 175.472C132.837 175.304 132.54 175.22 132.114 175.22H131.862C131.397 175.22 131.031 175.293 130.764 175.44C130.497 175.587 130.347 175.817 130.314 176.129V178.761C130.314 178.92 130.236 179 130.08 179ZM136.838 179C136.277 179 135.866 178.869 135.605 178.608C135.344 178.347 135.213 177.936 135.213 177.375V176.358C135.213 175.797 135.342 175.388 135.6 175.13C135.861 174.869 136.274 174.741 136.838 174.747H137.576C138.017 174.747 138.353 174.822 138.584 174.972C138.818 175.119 138.957 175.352 139.002 175.67C139.011 175.751 138.993 175.812 138.948 175.854C138.906 175.896 138.846 175.917 138.768 175.917C138.696 175.917 138.642 175.899 138.606 175.863C138.57 175.824 138.543 175.769 138.525 175.697C138.492 175.523 138.404 175.4 138.26 175.328C138.116 175.256 137.888 175.22 137.576 175.22H136.838C136.409 175.214 136.109 175.295 135.938 175.463C135.77 175.628 135.686 175.926 135.686 176.358V177.375C135.686 177.804 135.77 178.104 135.938 178.275C136.109 178.443 136.409 178.527 136.838 178.527H137.576C137.888 178.527 138.116 178.491 138.26 178.419C138.404 178.347 138.492 178.223 138.525 178.046C138.543 177.974 138.57 177.92 138.606 177.884C138.642 177.845 138.696 177.825 138.768 177.825C138.846 177.825 138.906 177.848 138.948 177.893C138.993 177.935 139.011 177.995 139.002 178.073C138.957 178.391 138.818 178.625 138.584 178.775C138.353 178.925 138.017 179 137.576 179H136.838Z" fill="#EFEFF7"/>
</svg>
