<svg width="216" height="216" viewBox="0 0 216 216" fill="none" xmlns="http://www.w3.org/2000/svg">
<circle cx="108" cy="108" r="107.5" stroke="#EFEFF7" stroke-opacity="0.3"/>
<path d="M34.1055 34.1055L181.895 181.895" stroke="#5C6497" stroke-width="2"/>
<path d="M43.6891 105.947C42.8491 105.947 42.2241 105.742 41.8141 105.332C41.4041 104.922 41.1991 104.297 41.1991 103.457C41.1991 102.617 41.4016 101.992 41.8066 101.582C42.2166 101.172 42.8441 100.967 43.6891 100.967H46.8616C46.8316 100.442 46.6941 100.085 46.4491 99.8948C46.2041 99.6998 45.7841 99.6023 45.1891 99.6023H44.3191C43.8191 99.6023 43.4466 99.6373 43.2016 99.7073C42.9566 99.7723 42.7841 99.8923 42.6841 100.067C42.5941 100.277 42.5016 100.422 42.4066 100.502C42.3116 100.582 42.1691 100.622 41.9791 100.622C41.7691 100.622 41.6041 100.565 41.4841 100.45C41.3641 100.33 41.3291 100.172 41.3791 99.9773C41.5291 99.4123 41.8416 98.9998 42.3166 98.7398C42.7966 98.4748 43.4641 98.3423 44.3191 98.3423H45.1891C46.1891 98.3423 46.9291 98.5823 47.4091 99.0623C47.8891 99.5423 48.1291 100.282 48.1291 101.282V105.317C48.1291 105.737 47.9191 105.947 47.4991 105.947C47.0791 105.947 46.8691 105.737 46.8691 105.317V104.98C46.3341 105.625 45.5541 105.947 44.5291 105.947H43.6891ZM43.6891 104.687H44.5291C44.8991 104.687 45.2466 104.655 45.5716 104.59C45.8966 104.52 46.1741 104.395 46.4041 104.215C46.6391 104.035 46.7941 103.777 46.8691 103.442V102.227H43.6891C43.1941 102.227 42.8641 102.31 42.6991 102.475C42.5391 102.64 42.4591 102.967 42.4591 103.457C42.4591 103.952 42.5391 104.282 42.6991 104.447C42.8641 104.607 43.1941 104.687 43.6891 104.687Z" fill="#5C6497"/>
<path d="M32.2109 181.895L134.139 5.68408L204.632 151.128L32.2109 181.895Z" fill="#EFEFF7"/>
<path d="M140.448 15.2952C138.528 20.4751 126.396 20.4839 126.833 10.4227" stroke="#5C6497" stroke-width="0.5"/>
<path d="M140.448 17.1902C138.528 22.3701 126.396 22.3789 126.833 12.3178" stroke="#5C6497" stroke-width="0.5"/>
<path d="M133.579 5.68408L162 160.105" stroke="#5C6497"/>
<path d="M32.2109 181.895L193.264 108.947" stroke="#5C6497"/>
<path d="M204.631 150.632L84.3154 89.0527" stroke="#5C6497"/>
<path d="M181.395 115.579C181.395 142.484 158.317 164.342 129.79 164.342C101.262 164.342 78.1846 142.484 78.1846 115.579C78.1846 88.674 101.262 66.8159 129.79 66.8159C158.317 66.8159 181.395 88.674 181.395 115.579Z" stroke="#888EB4" stroke-opacity="0.63"/>
<path d="M39.7891 167.685C44.5259 164.842 53.9996 172.421 47.368 180" stroke="#5C6497" stroke-width="0.5"/>
<path d="M200.037 155.666C194.823 153.841 194.593 141.711 204.66 141.964" stroke="#5C6497" stroke-width="0.5"/>
<path d="M198.143 155.666C192.929 153.841 192.698 141.711 202.766 141.964" stroke="#5C6497" stroke-width="0.5"/>
<path d="M196.247 155.666C191.033 153.841 190.803 141.711 200.87 141.964" stroke="#5C6497" stroke-width="0.5"/>
<path d="M160.105 148.737L168.632 146.842L170.527 157.263" stroke="#5C6497" stroke-width="0.5"/>
<path d="M56.1727 86.7896C55.5007 86.7896 55.0007 86.6256 54.6727 86.2976C54.3447 85.9696 54.1807 85.4696 54.1807 84.7976C54.1807 84.1256 54.3427 83.6256 54.6667 83.2976C54.9947 82.9696 55.4967 82.8056 56.1727 82.8056H58.7107C58.6867 82.3856 58.5767 82.0996 58.3807 81.9476C58.1847 81.7916 57.8487 81.7136 57.3727 81.7136H56.6767C56.2767 81.7136 55.9787 81.7416 55.7827 81.7976C55.5867 81.8496 55.4487 81.9456 55.3687 82.0856C55.2967 82.2536 55.2227 82.3696 55.1467 82.4336C55.0707 82.4976 54.9567 82.5296 54.8047 82.5296C54.6367 82.5296 54.5047 82.4836 54.4087 82.3916C54.3127 82.2956 54.2847 82.1696 54.3247 82.0136C54.4447 81.5616 54.6947 81.2316 55.0747 81.0236C55.4587 80.8116 55.9927 80.7056 56.6767 80.7056H57.3727C58.1727 80.7056 58.7647 80.8976 59.1487 81.2816C59.5327 81.6656 59.7247 82.2576 59.7247 83.0576V86.2856C59.7247 86.6216 59.5567 86.7896 59.2207 86.7896C58.8847 86.7896 58.7167 86.6216 58.7167 86.2856V86.0156C58.2887 86.5316 57.6647 86.7896 56.8447 86.7896H56.1727ZM56.1727 85.7816H56.8447C57.1407 85.7816 57.4187 85.7556 57.6787 85.7036C57.9387 85.6476 58.1607 85.5476 58.3447 85.4036C58.5327 85.2596 58.6567 85.0536 58.7167 84.7856V83.8136H56.1727C55.7767 83.8136 55.5127 83.8796 55.3807 84.0116C55.2527 84.1436 55.1887 84.4056 55.1887 84.7976C55.1887 85.1936 55.2527 85.4576 55.3807 85.5896C55.5127 85.7176 55.7767 85.7816 56.1727 85.7816Z" fill="#EFEFF7"/>
<path d="M156.037 103.924C155.898 103.941 155.82 103.881 155.802 103.742L155.405 100.668C155.387 100.529 155.447 100.45 155.586 100.433C155.725 100.415 155.803 100.475 155.821 100.614L155.958 101.673C156.108 101.457 156.354 101.327 156.694 101.283L156.833 101.265C157.164 101.222 157.419 101.27 157.598 101.408C157.777 101.546 157.888 101.781 157.93 102.111L158.103 103.445C158.12 103.584 158.06 103.662 157.921 103.68C157.782 103.698 157.704 103.638 157.686 103.499L157.514 102.165C157.486 101.949 157.427 101.807 157.338 101.742C157.25 101.674 157.1 101.654 156.887 101.681L156.748 101.699C156.55 101.725 156.38 101.77 156.239 101.836C156.097 101.899 156.021 101.981 156.011 102.082L156.218 103.688C156.236 103.827 156.176 103.906 156.037 103.924Z" fill="#AEB2CD"/>
<path d="M129.074 141.228C129.36 141.097 129.596 141.071 129.782 141.149C129.97 141.227 130.135 141.422 130.277 141.734L130.844 142.976C130.902 143.103 130.867 143.196 130.74 143.254C130.613 143.312 130.52 143.278 130.462 143.15L129.895 141.908C129.816 141.735 129.726 141.626 129.624 141.579C129.523 141.531 129.398 141.542 129.248 141.61L129.061 141.695C128.889 141.774 128.783 141.869 128.744 141.98C128.705 142.092 128.725 142.234 128.803 142.406L129.37 143.648C129.428 143.776 129.394 143.868 129.266 143.926C129.139 143.985 129.046 143.95 128.988 143.823L128.421 142.581C128.342 142.408 128.252 142.298 128.15 142.251C128.05 142.204 127.924 142.214 127.774 142.282L127.588 142.368C127.415 142.446 127.309 142.541 127.27 142.653C127.231 142.764 127.251 142.906 127.33 143.079L127.896 144.321C127.954 144.448 127.92 144.541 127.792 144.599C127.665 144.657 127.572 144.622 127.514 144.495L126.636 142.571C126.578 142.443 126.613 142.351 126.74 142.293C126.867 142.235 126.96 142.269 127.018 142.397L127.066 142.501C127.099 142.36 127.152 142.245 127.227 142.156C127.303 142.064 127.407 141.988 127.541 141.927L127.6 141.9C127.788 141.815 127.948 141.774 128.08 141.778C128.211 141.78 128.331 141.827 128.44 141.918C128.466 141.762 128.512 141.638 128.579 141.547C128.646 141.454 128.749 141.376 128.887 141.313L129.074 141.228Z" fill="#AEB2CD"/>
<path d="M187.597 133.92C187.365 133.814 187.218 133.678 187.156 133.512C187.097 133.346 187.12 133.146 187.226 132.915L188.287 130.595C188.345 130.468 188.438 130.434 188.565 130.492C188.692 130.55 188.727 130.643 188.669 130.77L187.608 133.089C187.552 133.212 187.534 133.304 187.554 133.364C187.576 133.424 187.649 133.482 187.771 133.538C187.902 133.597 187.938 133.691 187.88 133.818C187.826 133.947 187.732 133.981 187.597 133.92Z" fill="#AEB2CD"/>
<path d="M187.437 86.7896C187.101 86.7896 186.933 86.6216 186.933 86.2856V78.8456C186.933 78.5096 187.101 78.3416 187.437 78.3416C187.773 78.3416 187.941 78.5096 187.941 78.8456V81.3476C188.149 81.1356 188.409 80.9756 188.721 80.8676C189.033 80.7596 189.397 80.7056 189.813 80.7056H190.269C191.069 80.7056 191.661 80.8976 192.045 81.2816C192.429 81.6656 192.621 82.2576 192.621 83.0576V84.4376C192.621 85.2336 192.429 85.8256 192.045 86.2136C191.661 86.5976 191.069 86.7896 190.269 86.7896H189.813C189.397 86.7896 189.033 86.7356 188.721 86.6276C188.409 86.5196 188.149 86.3616 187.941 86.1536V86.2856C187.941 86.6216 187.773 86.7896 187.437 86.7896ZM189.813 85.7816H190.269C190.793 85.7816 191.147 85.6876 191.331 85.4996C191.519 85.3076 191.613 84.9536 191.613 84.4376V83.0576C191.613 82.5336 191.517 82.1796 191.325 81.9956C191.137 81.8076 190.785 81.7136 190.269 81.7136H189.813C189.285 81.7136 188.841 81.7816 188.481 81.9176C188.121 82.0496 187.941 82.2576 187.941 82.5416V84.9536C187.941 85.2336 188.121 85.4416 188.481 85.5776C188.841 85.7136 189.285 85.7816 189.813 85.7816Z" fill="#EFEFF7"/>
<path d="M137.838 175.842C137.042 175.842 136.45 175.65 136.062 175.266C135.678 174.878 135.486 174.286 135.486 173.49V172.098C135.486 171.298 135.676 170.706 136.056 170.322C136.44 169.938 137.034 169.75 137.838 169.758H138.822C139.418 169.758 139.886 169.858 140.226 170.058C140.57 170.258 140.79 170.566 140.886 170.982C140.922 171.15 140.892 171.28 140.796 171.372C140.704 171.464 140.57 171.51 140.394 171.51C140.238 171.51 140.124 171.47 140.052 171.39C139.98 171.31 139.914 171.198 139.854 171.054C139.794 170.946 139.684 170.872 139.524 170.832C139.364 170.788 139.13 170.766 138.822 170.766H137.838C137.322 170.758 136.968 170.848 136.776 171.036C136.588 171.22 136.494 171.574 136.494 172.098V173.49C136.494 174.01 136.588 174.364 136.776 174.552C136.968 174.74 137.322 174.834 137.838 174.834H138.822C139.13 174.834 139.364 174.814 139.524 174.774C139.684 174.73 139.794 174.654 139.854 174.546C139.914 174.394 139.98 174.28 140.052 174.204C140.128 174.128 140.246 174.09 140.406 174.09C140.574 174.09 140.704 174.136 140.796 174.228C140.892 174.32 140.922 174.45 140.886 174.618C140.79 175.03 140.57 175.338 140.226 175.542C139.886 175.742 139.418 175.842 138.822 175.842H137.838Z" fill="#EFEFF7"/>
<path d="M183.195 145.21C182.915 145.21 182.706 145.142 182.57 145.005C182.433 144.869 182.365 144.66 182.365 144.38C182.365 144.1 182.432 143.892 182.567 143.755C182.704 143.619 182.913 143.55 183.195 143.55H184.252C184.242 143.375 184.196 143.256 184.115 143.193C184.033 143.128 183.893 143.095 183.695 143.095H183.405C183.238 143.095 183.114 143.107 183.032 143.13C182.95 143.152 182.893 143.192 182.86 143.25C182.83 143.32 182.799 143.369 182.767 143.395C182.735 143.422 182.688 143.435 182.625 143.435C182.555 143.435 182.5 143.416 182.46 143.378C182.42 143.338 182.408 143.285 182.425 143.22C182.475 143.032 182.579 142.895 182.737 142.808C182.897 142.72 183.12 142.675 183.405 142.675H183.695C184.028 142.675 184.275 142.755 184.435 142.915C184.595 143.075 184.675 143.322 184.675 143.655V145C184.675 145.14 184.605 145.21 184.465 145.21C184.325 145.21 184.255 145.14 184.255 145V144.888C184.076 145.103 183.816 145.21 183.475 145.21H183.195ZM183.195 144.79H183.475C183.598 144.79 183.714 144.78 183.822 144.758C183.93 144.735 184.023 144.693 184.1 144.633C184.178 144.573 184.23 144.487 184.255 144.375V143.97H183.195C183.03 143.97 182.92 143.998 182.865 144.053C182.811 144.108 182.785 144.217 182.785 144.38C182.785 144.545 182.811 144.655 182.865 144.71C182.92 144.764 183.03 144.79 183.195 144.79Z" fill="#5C6497"/>
<path d="M49.9927 164.158C49.8527 164.158 49.7827 164.088 49.7827 163.948V160.848C49.7827 160.708 49.8527 160.638 49.9927 160.638C50.1327 160.638 50.2027 160.708 50.2027 160.848V161.89C50.2894 161.802 50.3977 161.735 50.5277 161.69C50.6577 161.645 50.8094 161.623 50.9827 161.623H51.1727C51.506 161.623 51.7527 161.703 51.9127 161.863C52.0727 162.023 52.1527 162.269 52.1527 162.603V163.178C52.1527 163.509 52.0727 163.756 51.9127 163.918C51.7527 164.078 51.506 164.158 51.1727 164.158H50.9827C50.8094 164.158 50.6577 164.135 50.5277 164.09C50.3977 164.045 50.2894 163.979 50.2027 163.893V163.948C50.2027 164.088 50.1327 164.158 49.9927 164.158ZM50.9827 163.738H51.1727C51.391 163.738 51.5385 163.699 51.6152 163.62C51.6935 163.54 51.7327 163.393 51.7327 163.178V162.603C51.7327 162.384 51.6927 162.237 51.6127 162.16C51.5344 162.082 51.3877 162.043 51.1727 162.043H50.9827C50.7627 162.043 50.5777 162.071 50.4277 162.128C50.2777 162.183 50.2027 162.269 50.2027 162.388V163.393C50.2027 163.509 50.2777 163.596 50.4277 163.653C50.5777 163.709 50.7627 163.738 50.9827 163.738Z" fill="#5C6497"/>
<path d="M130.222 23.9473C129.89 23.9473 129.643 23.8673 129.482 23.7073C129.322 23.5456 129.242 23.2989 129.242 22.9673V22.3873C129.242 22.0539 129.321 21.8073 129.479 21.6473C129.639 21.4873 129.887 21.4089 130.222 21.4123H130.632C130.88 21.4123 131.075 21.4539 131.217 21.5373C131.36 21.6206 131.452 21.7489 131.492 21.9223C131.507 21.9923 131.494 22.0464 131.454 22.0848C131.416 22.1231 131.36 22.1423 131.287 22.1423C131.222 22.1423 131.174 22.1256 131.144 22.0923C131.114 22.0589 131.087 22.0123 131.062 21.9523C131.037 21.9073 130.991 21.8764 130.924 21.8598C130.858 21.8414 130.76 21.8323 130.632 21.8323H130.222C130.007 21.8289 129.859 21.8664 129.779 21.9448C129.701 22.0214 129.662 22.1689 129.662 22.3873V22.9673C129.662 23.1839 129.701 23.3314 129.779 23.4098C129.859 23.4881 130.007 23.5273 130.222 23.5273H130.632C130.76 23.5273 130.858 23.5189 130.924 23.5023C130.991 23.4839 131.037 23.4523 131.062 23.4073C131.087 23.3439 131.114 23.2964 131.144 23.2648C131.176 23.2331 131.225 23.2173 131.292 23.2173C131.362 23.2173 131.416 23.2364 131.454 23.2748C131.494 23.3131 131.507 23.3673 131.492 23.4373C131.452 23.6089 131.36 23.7373 131.217 23.8223C131.075 23.9056 130.88 23.9473 130.632 23.9473H130.222Z" fill="#5C6497"/>
</svg>
