<svg width="114" height="114" viewBox="0 0 114 114" fill="none" xmlns="http://www.w3.org/2000/svg">
<circle cx="57" cy="57" r="56.5" stroke="#EFEFF7" stroke-opacity="0.3"/>
<path d="M18 18L96 96" stroke="#5C6497" stroke-width="2"/>
<path d="M24.9 63C24.06 63 23.435 62.795 23.025 62.385C22.615 61.975 22.41 61.35 22.41 60.51C22.41 59.67 22.6125 59.045 23.0175 58.635C23.4275 58.225 24.055 58.02 24.9 58.02H28.0725C28.0425 57.495 27.905 57.1375 27.66 56.9475C27.415 56.7525 26.995 56.655 26.4 56.655H25.53C25.03 56.655 24.6575 56.69 24.4125 56.76C24.1675 56.825 23.995 56.945 23.895 57.12C23.805 57.33 23.7125 57.475 23.6175 57.555C23.5225 57.635 23.38 57.675 23.19 57.675C22.98 57.675 22.815 57.6175 22.695 57.5025C22.575 57.3825 22.54 57.225 22.59 57.03C22.74 56.465 23.0525 56.0525 23.5275 55.7925C24.0075 55.5275 24.675 55.395 25.53 55.395H26.4C27.4 55.395 28.14 55.635 28.62 56.115C29.1 56.595 29.34 57.335 29.34 58.335V62.37C29.34 62.79 29.13 63 28.71 63C28.29 63 28.08 62.79 28.08 62.37V62.0325C27.545 62.6775 26.765 63 25.74 63H24.9ZM24.9 61.74H25.74C26.11 61.74 26.4575 61.7075 26.7825 61.6425C27.1075 61.5725 27.385 61.4475 27.615 61.2675C27.85 61.0875 28.005 60.83 28.08 60.495V59.28H24.9C24.405 59.28 24.075 59.3625 23.91 59.5275C23.75 59.6925 23.67 60.02 23.67 60.51C23.67 61.005 23.75 61.335 23.91 61.5C24.075 61.66 24.405 61.74 24.9 61.74Z" fill="#5C6497"/>
<path d="M17 96L70.7956 3L108 79.7619L17 96Z" fill="#EFEFF7"/>
<path d="M74.1255 8.07258C73.1124 10.8064 66.7093 10.811 66.9398 5.50101" stroke="#5C6497" stroke-width="0.5"/>
<path d="M74.1255 9.07258C73.1124 11.8064 66.7093 11.811 66.9398 6.50101" stroke="#5C6497" stroke-width="0.5"/>
<path d="M70.5 3L85.5 84.5" stroke="#5C6497"/>
<path d="M17 96L102 57.5" stroke="#5C6497"/>
<path d="M108 79.5L44.5 47" stroke="#5C6497"/>
<path d="M95.5 61C95.5 75.0572 83.4385 86.5 68.5 86.5C53.5615 86.5 41.5 75.0572 41.5 61C41.5 46.9428 53.5615 35.5 68.5 35.5C83.4385 35.5 95.5 46.9428 95.5 61Z" stroke="#888EB4" stroke-opacity="0.63"/>
<path d="M21 88.5002C23.5 87.0001 28.5 91.0001 25 95" stroke="#5C6497" stroke-width="0.5"/>
<path d="M105.575 82.1571C102.823 81.1941 102.702 74.7921 108.015 74.9256" stroke="#5C6497" stroke-width="0.5"/>
<path d="M104.575 82.1571C101.823 81.1941 101.702 74.7921 107.015 74.9256" stroke="#5C6497" stroke-width="0.5"/>
<path d="M103.575 82.1571C100.823 81.1941 100.702 74.7921 106.015 74.9256" stroke="#5C6497" stroke-width="0.5"/>
<path d="M84.5 78.5L89 77.5L90 83" stroke="#5C6497" stroke-width="0.5"/>
<path d="M34.16 50C33.264 50 32.5973 49.7813 32.16 49.344C31.7227 48.9067 31.504 48.24 31.504 47.344C31.504 46.448 31.72 45.7813 32.152 45.344C32.5893 44.9067 33.2587 44.688 34.16 44.688H37.544C37.512 44.128 37.3653 43.7467 37.104 43.544C36.8427 43.336 36.3947 43.232 35.76 43.232H34.832C34.2987 43.232 33.9013 43.2693 33.64 43.344C33.3787 43.4133 33.1947 43.5413 33.088 43.728C32.992 43.952 32.8933 44.1067 32.792 44.192C32.6907 44.2773 32.5387 44.32 32.336 44.32C32.112 44.32 31.936 44.2587 31.808 44.136C31.68 44.008 31.6427 43.84 31.696 43.632C31.856 43.0293 32.1893 42.5893 32.696 42.312C33.208 42.0293 33.92 41.888 34.832 41.888H35.76C36.8267 41.888 37.616 42.144 38.128 42.656C38.64 43.168 38.896 43.9573 38.896 45.024V49.328C38.896 49.776 38.672 50 38.224 50C37.776 50 37.552 49.776 37.552 49.328V48.968C36.9813 49.656 36.1493 50 35.056 50H34.16ZM34.16 48.656H35.056C35.4507 48.656 35.8213 48.6213 36.168 48.552C36.5147 48.4773 36.8107 48.344 37.056 48.152C37.3067 47.96 37.472 47.6853 37.552 47.328V46.032H34.16C33.632 46.032 33.28 46.12 33.104 46.296C32.9333 46.472 32.848 46.8213 32.848 47.344C32.848 47.872 32.9333 48.224 33.104 48.4C33.28 48.5707 33.632 48.656 34.16 48.656Z" fill="#EFEFF7"/>
<path d="M83.2695 58.1193C83.1029 58.1408 83.0088 58.0682 82.9873 57.9016L82.5112 54.2122C82.4897 54.0456 82.5623 53.9515 82.7289 53.93C82.8955 53.9085 82.9896 53.9811 83.0111 54.1477L83.175 55.4182C83.3553 55.159 83.6498 55.003 84.0584 54.9503L84.225 54.9288C84.6217 54.8776 84.9276 54.9349 85.1426 55.1008C85.3576 55.2666 85.4907 55.5479 85.5419 55.9446L85.7484 57.5453C85.7699 57.7119 85.6974 57.806 85.5308 57.8275C85.3641 57.849 85.2701 57.7764 85.2486 57.6098L85.042 56.0091C85.0085 55.7493 84.9382 55.5799 84.8312 55.5009C84.726 55.4197 84.5454 55.3956 84.2895 55.4286L84.1229 55.4501C83.8849 55.4809 83.6812 55.5354 83.5118 55.6137C83.3422 55.69 83.2511 55.7885 83.2384 55.9091L83.4872 57.8371C83.5087 58.0037 83.4361 58.0978 83.2695 58.1193ZM87.9831 57.511C87.5884 57.562 87.2825 57.5047 87.0655 57.3391C86.8503 57.1712 86.7172 56.89 86.6662 56.4952L86.5772 55.805C86.526 55.4082 86.5823 55.1025 86.7462 54.8878C86.912 54.6728 87.1945 54.5415 87.5938 54.4941L88.0817 54.4311C88.3773 54.393 88.6157 54.4126 88.7971 54.49C88.9805 54.5672 89.1093 54.7058 89.1835 54.906C89.2121 54.987 89.2056 55.0534 89.1639 55.1051C89.1241 55.1567 89.0606 55.188 88.9734 55.1993C88.896 55.2093 88.8369 55.1967 88.7961 55.1617C88.7553 55.1266 88.7154 55.0753 88.6764 55.0077C88.6397 54.958 88.5805 54.9284 88.4985 54.9188C88.4164 54.9072 88.2989 54.9112 88.1462 54.931L87.6583 54.9939C87.4019 55.023 87.2321 55.0903 87.1489 55.1958C87.0674 55.299 87.0435 55.4806 87.077 55.7404L87.1661 56.4307C87.1994 56.6886 87.2686 56.8581 87.3739 56.9393C87.4811 57.0203 87.6627 57.0442 87.9186 57.0112L88.4065 56.9482C88.5593 56.9285 88.674 56.9036 88.7508 56.8736C88.8273 56.8415 88.877 56.7968 88.8999 56.7394C88.9199 56.6602 88.9453 56.5994 88.9762 56.5571C89.009 56.5146 89.0651 56.4882 89.1444 56.4779C89.2277 56.4672 89.2951 56.4817 89.3466 56.5214C89.4001 56.5609 89.4233 56.6234 89.4162 56.709C89.395 56.9195 89.3056 57.0863 89.1481 57.2095C88.9923 57.3304 88.7666 57.4099 88.471 57.4481L87.9831 57.511Z" fill="#AEB2CD"/>
<path d="M69.2875 79.1703C69.1346 79.24 69.0233 79.1985 68.9536 79.0456L67.4095 75.6612C67.3398 75.5084 67.3813 75.3971 67.5342 75.3274C67.687 75.2576 67.7983 75.2992 67.868 75.452L68.3997 76.6175C68.4955 76.3166 68.7308 76.0806 69.1056 75.9096L69.2585 75.8399C69.6224 75.6738 69.9315 75.6383 70.1859 75.7333C70.4403 75.8283 70.6505 76.0577 70.8165 76.4216L71.4864 77.89C71.5562 78.0429 71.5146 78.1542 71.3618 78.2239C71.2089 78.2936 71.0976 78.2521 71.0279 78.0992L70.358 76.6308C70.2492 76.3925 70.1321 76.2514 70.0065 76.2075C69.882 76.161 69.7024 76.1913 69.4677 76.2984L69.3148 76.3681C69.0965 76.4678 68.9179 76.58 68.7792 76.7048C68.6397 76.8278 68.5817 76.9488 68.6052 77.0678L69.4121 78.8364C69.4819 78.9893 69.4403 79.1005 69.2875 79.1703ZM72.9017 77.5213C72.7489 77.591 72.6376 77.5495 72.5679 77.3966L71.0238 74.0122C70.954 73.8594 70.9956 73.7481 71.1484 73.6784C71.3013 73.6086 71.4125 73.6502 71.4823 73.803L72.0016 74.9412C72.0522 74.8016 72.1372 74.6748 72.2567 74.5609C72.3763 74.4471 72.5306 74.347 72.7199 74.2606L72.9273 74.166C73.2912 73.9999 73.6004 73.9644 73.8547 74.0594C74.1091 74.1544 74.3193 74.3838 74.4853 74.7477L74.7717 75.3755C74.937 75.7376 74.9725 76.0467 74.8783 76.3029C74.7833 76.5573 74.5539 76.7675 74.19 76.9335L73.9826 77.0282C73.7933 77.1145 73.6165 77.1655 73.4522 77.1811C73.2878 77.1967 73.1368 77.1788 72.999 77.1274L73.0264 77.1874C73.0961 77.3403 73.0546 77.4516 72.9017 77.5213ZM73.7733 76.5696L73.9808 76.475C74.2191 76.3663 74.3607 76.25 74.4053 76.1263C74.451 76 74.4203 75.8194 74.3132 75.5847L74.0268 74.9569C73.9181 74.7186 73.8009 74.5775 73.6754 74.5336C73.5509 74.4871 73.3712 74.5174 73.1365 74.6245L72.9291 74.7191C72.6889 74.8287 72.501 74.9518 72.3655 75.0884C72.2291 75.2232 72.1904 75.3551 72.2494 75.4843L72.7499 76.5815C72.8081 76.7089 72.9331 76.7661 73.1251 76.7533C73.3171 76.7404 73.5332 76.6792 73.7733 76.5696Z" fill="#AEB2CD"/>
<path d="M95.7966 71.8209C95.6438 71.751 95.6024 71.6397 95.6722 71.4869L97.2192 68.1038C97.2891 67.951 97.4004 67.9096 97.5532 67.9794C97.706 68.0493 97.7475 68.1606 97.6776 68.3134L97.1449 69.4784C97.435 69.3537 97.7674 69.3771 98.1421 69.5484L98.2948 69.6183C98.6586 69.7846 98.8879 69.995 98.9826 70.2495C99.0774 70.5039 99.0416 70.8131 98.8753 71.1768L98.2041 72.6446C98.1342 72.7974 98.0229 72.8389 97.8701 72.769C97.7173 72.6992 97.6759 72.5878 97.7457 72.4351L98.4169 70.9672C98.5259 70.729 98.5558 70.548 98.5068 70.4244C98.4604 70.2999 98.3199 70.1839 98.0852 70.0766L97.9325 70.0068C97.7142 69.907 97.5125 69.8455 97.3273 69.8224C97.143 69.7975 97.0136 69.8329 96.939 69.9286L96.1306 71.6965C96.0607 71.8493 95.9494 71.8907 95.7966 71.8209ZM99.9249 73.7087C99.6194 73.5689 99.4261 73.3904 99.3452 73.173C99.2642 72.9557 99.2936 72.6942 99.4333 72.3887C99.5731 72.0831 99.7507 71.8894 99.9662 71.8076C100.184 71.7267 100.446 71.7565 100.753 71.8971L101.907 72.4248C101.984 72.2288 101.993 72.0759 101.936 71.966C101.879 71.8543 101.742 71.749 101.526 71.65L101.21 71.5053C101.028 71.4221 100.886 71.3729 100.786 71.3576C100.686 71.3405 100.603 71.3555 100.537 71.4025C100.47 71.4639 100.412 71.5013 100.364 71.5146C100.316 71.5279 100.258 71.5187 100.189 71.4871C100.112 71.4522 100.062 71.4038 100.037 71.342C100.014 71.2784 100.027 71.2153 100.078 71.1527C100.226 70.9721 100.409 70.874 100.625 70.8585C100.843 70.8419 101.108 70.9047 101.419 71.047L101.736 71.1917C102.099 71.358 102.329 71.5684 102.423 71.8229C102.518 72.0773 102.482 72.3865 102.316 72.7502L101.645 74.218C101.575 74.3708 101.464 74.4123 101.311 74.3424C101.158 74.2726 101.117 74.1612 101.187 74.0085L101.243 73.8857C100.941 74.0313 100.603 74.0189 100.23 73.8484L99.9249 73.7087ZM100.135 73.2503L100.44 73.39C100.575 73.4516 100.707 73.4976 100.836 73.528C100.965 73.5566 101.087 73.5573 101.201 73.53C101.316 73.5037 101.415 73.4358 101.498 73.3264L101.701 72.8844L100.544 72.3554C100.364 72.2731 100.23 72.2482 100.142 72.2808C100.057 72.3142 99.9732 72.42 99.8917 72.5983C99.8093 72.7783 99.7836 72.9117 99.8143 72.9983C99.8477 73.084 99.9545 73.168 100.135 73.2503Z" fill="#AEB2CD"/>
<path d="M98.336 49C97.888 49 97.664 48.776 97.664 48.328V38.408C97.664 37.96 97.888 37.736 98.336 37.736C98.784 37.736 99.008 37.96 99.008 38.408V41.744C99.2853 41.4613 99.632 41.248 100.048 41.104C100.464 40.96 100.949 40.888 101.504 40.888H102.112C103.179 40.888 103.968 41.144 104.48 41.656C104.992 42.168 105.248 42.9573 105.248 44.024V45.864C105.248 46.9253 104.992 47.7147 104.48 48.232C103.968 48.744 103.179 49 102.112 49H101.504C100.949 49 100.464 48.928 100.048 48.784C99.632 48.64 99.2853 48.4293 99.008 48.152V48.328C99.008 48.776 98.784 49 98.336 49ZM101.504 47.656H102.112C102.811 47.656 103.283 47.5307 103.528 47.28C103.779 47.024 103.904 46.552 103.904 45.864V44.024C103.904 43.3253 103.776 42.8533 103.52 42.608C103.269 42.3573 102.8 42.232 102.112 42.232H101.504C100.8 42.232 100.208 42.3227 99.728 42.504C99.248 42.68 99.008 42.9573 99.008 43.336V46.552C99.008 46.9253 99.248 47.2027 99.728 47.384C100.208 47.5653 100.8 47.656 101.504 47.656Z" fill="#EFEFF7"/>
<path d="M73.416 99C72.3547 99 71.5653 98.744 71.048 98.232C70.536 97.7147 70.28 96.9253 70.28 95.864V94.008C70.28 92.9413 70.5333 92.152 71.04 91.64C71.552 91.128 72.344 90.8773 73.416 90.888H74.728C75.5227 90.888 76.1467 91.0213 76.6 91.288C77.0587 91.5547 77.352 91.9653 77.48 92.52C77.528 92.744 77.488 92.9173 77.36 93.04C77.2373 93.1627 77.0587 93.224 76.824 93.224C76.616 93.224 76.464 93.1707 76.368 93.064C76.272 92.9573 76.184 92.808 76.104 92.616C76.024 92.472 75.8773 92.3733 75.664 92.32C75.4507 92.2613 75.1387 92.232 74.728 92.232H73.416C72.728 92.2213 72.256 92.3413 72 92.592C71.7493 92.8373 71.624 93.3093 71.624 94.008V95.864C71.624 96.5573 71.7493 97.0293 72 97.28C72.256 97.5307 72.728 97.656 73.416 97.656H74.728C75.1387 97.656 75.4507 97.6293 75.664 97.576C75.8773 97.5173 76.024 97.416 76.104 97.272C76.184 97.0693 76.272 96.9173 76.368 96.816C76.4693 96.7147 76.6267 96.664 76.84 96.664C77.064 96.664 77.2373 96.7253 77.36 96.848C77.488 96.9707 77.528 97.144 77.48 97.368C77.352 97.9173 77.0587 98.328 76.6 98.6C76.1467 98.8667 75.5227 99 74.728 99H73.416Z" fill="#EFEFF7"/>
<path d="M97.08 81C96.632 81 96.2987 80.8907 96.08 80.672C95.8613 80.4533 95.752 80.12 95.752 79.672C95.752 79.224 95.86 78.8907 96.076 78.672C96.2947 78.4533 96.6293 78.344 97.08 78.344H98.772C98.756 78.064 98.6827 77.8733 98.552 77.772C98.4213 77.668 98.1973 77.616 97.88 77.616H97.416C97.1493 77.616 96.9507 77.6347 96.82 77.672C96.6893 77.7067 96.5973 77.7707 96.544 77.864C96.496 77.976 96.4467 78.0533 96.396 78.096C96.3453 78.1387 96.2693 78.16 96.168 78.16C96.056 78.16 95.968 78.1293 95.904 78.068C95.84 78.004 95.8213 77.92 95.848 77.816C95.928 77.5147 96.0947 77.2947 96.348 77.156C96.604 77.0147 96.96 76.944 97.416 76.944H97.88C98.4133 76.944 98.808 77.072 99.064 77.328C99.32 77.584 99.448 77.9787 99.448 78.512V80.664C99.448 80.888 99.336 81 99.112 81C98.888 81 98.776 80.888 98.776 80.664V80.484C98.4907 80.828 98.0747 81 97.528 81H97.08ZM97.08 80.328H97.528C97.7253 80.328 97.9107 80.3107 98.084 80.276C98.2573 80.2387 98.4053 80.172 98.528 80.076C98.6533 79.98 98.736 79.8427 98.776 79.664V79.016H97.08C96.816 79.016 96.64 79.06 96.552 79.148C96.4667 79.236 96.424 79.4107 96.424 79.672C96.424 79.936 96.4667 80.112 96.552 80.2C96.64 80.2853 96.816 80.328 97.08 80.328Z" fill="#5C6497"/>
<path d="M27.168 88C26.944 88 26.832 87.888 26.832 87.664V82.704C26.832 82.48 26.944 82.368 27.168 82.368C27.392 82.368 27.504 82.48 27.504 82.704V84.372C27.6427 84.2307 27.816 84.124 28.024 84.052C28.232 83.98 28.4747 83.944 28.752 83.944H29.056C29.5893 83.944 29.984 84.072 30.24 84.328C30.496 84.584 30.624 84.9787 30.624 85.512V86.432C30.624 86.9627 30.496 87.3573 30.24 87.616C29.984 87.872 29.5893 88 29.056 88H28.752C28.4747 88 28.232 87.964 28.024 87.892C27.816 87.82 27.6427 87.7147 27.504 87.576V87.664C27.504 87.888 27.392 88 27.168 88ZM28.752 87.328H29.056C29.4053 87.328 29.6413 87.2653 29.764 87.14C29.8893 87.012 29.952 86.776 29.952 86.432V85.512C29.952 85.1627 29.888 84.9267 29.76 84.804C29.6347 84.6787 29.4 84.616 29.056 84.616H28.752C28.4 84.616 28.104 84.6613 27.864 84.752C27.624 84.84 27.504 84.9787 27.504 85.168V86.776C27.504 86.9627 27.624 87.1013 27.864 87.192C28.104 87.2827 28.4 87.328 28.752 87.328Z" fill="#5C6497"/>
<path d="M68.208 18C67.6773 18 67.2827 17.872 67.024 17.616C66.768 17.3573 66.64 16.9627 66.64 16.432V15.504C66.64 14.9707 66.7667 14.576 67.02 14.32C67.276 14.064 67.672 13.9387 68.208 13.944H68.864C69.2613 13.944 69.5733 14.0107 69.8 14.144C70.0293 14.2773 70.176 14.4827 70.24 14.76C70.264 14.872 70.244 14.9587 70.18 15.02C70.1187 15.0813 70.0293 15.112 69.912 15.112C69.808 15.112 69.732 15.0853 69.684 15.032C69.636 14.9787 69.592 14.904 69.552 14.808C69.512 14.736 69.4387 14.6867 69.332 14.66C69.2253 14.6307 69.0693 14.616 68.864 14.616H68.208C67.864 14.6107 67.628 14.6707 67.5 14.796C67.3747 14.9187 67.312 15.1547 67.312 15.504V16.432C67.312 16.7787 67.3747 17.0147 67.5 17.14C67.628 17.2653 67.864 17.328 68.208 17.328H68.864C69.0693 17.328 69.2253 17.3147 69.332 17.288C69.4387 17.2587 69.512 17.208 69.552 17.136C69.592 17.0347 69.636 16.9587 69.684 16.908C69.7347 16.8573 69.8133 16.832 69.92 16.832C70.032 16.832 70.1187 16.8627 70.18 16.924C70.244 16.9853 70.264 17.072 70.24 17.184C70.176 17.4587 70.0293 17.664 69.8 17.8C69.5733 17.9333 69.2613 18 68.864 18H68.208Z" fill="#5C6497"/>
</svg>
