<svg width="188" height="159" viewBox="0 0 188 159" fill="none" xmlns="http://www.w3.org/2000/svg">
<path d="M0.5 109L46.5 31M46.5 31L72.5 50H115.5L141 31L93.5 12.5L46.5 31Z" stroke="#EFEFF7" stroke-linecap="round" stroke-linejoin="round"/>
<path d="M71.4999 54.0003C75 54.5 79.4999 48.5003 77.4999 45.5003" stroke="#ADABD2" stroke-width="2"/>
<path d="M71 58.5006C77.5003 60.9997 86.9998 47.5002 82.4998 41.5008" stroke="#ADABD2" stroke-width="2"/>
<path d="M118.766 38.0928C116.5 45 124.33 54.7023 131.499 52.5004" stroke="#ADABD2" stroke-width="2"/>
<path d="M53.5 149L93.5 115.5L160.5 129" stroke="#ADABD2" stroke-width="2" stroke-linejoin="round"/>
<path d="M93.5 13L94 115.5" stroke="#ADABD2" stroke-width="2" stroke-linejoin="round"/>
<path d="M127.5 41L161 129" stroke="#ADABD2" stroke-width="2" stroke-linejoin="round"/>
<path d="M53 149.5L135.5 149L115.5 50" stroke="#EFEFF7" stroke-linejoin="round"/>
<path d="M141 31L187 108.5L135.5 149" stroke="#EFEFF7" stroke-linejoin="round"/>
<path d="M121.51 15C120.73 15 120.158 14.82 119.793 14.46C119.433 14.095 119.253 13.5225 119.253 12.7425C119.253 11.9625 119.435 11.39 119.8 11.025C120.165 10.66 120.735 10.4775 121.51 10.4775H124.923C124.913 9.8175 124.763 9.3575 124.473 9.0975C124.188 8.8325 123.7 8.7 123.01 8.7H122.14C121.505 8.7 121.04 8.7675 120.745 8.9025C120.45 9.0375 120.268 9.2675 120.198 9.5925C120.163 9.7175 120.115 9.81 120.055 9.87C120 9.925 119.91 9.9525 119.785 9.9525C119.655 9.9525 119.553 9.9175 119.478 9.8475C119.408 9.7725 119.383 9.6725 119.403 9.5475C119.468 8.9775 119.725 8.5625 120.175 8.3025C120.63 8.0425 121.285 7.9125 122.14 7.9125H123.01C123.945 7.9125 124.628 8.13 125.058 8.565C125.493 8.995 125.71 9.6775 125.71 10.6125V14.6025C125.71 14.8675 125.58 15 125.32 15C125.055 15 124.923 14.8675 124.923 14.6025V13.86C124.443 14.62 123.585 15 122.35 15H121.51ZM121.51 14.2125H122.35C122.835 14.2125 123.26 14.16 123.625 14.055C123.995 13.945 124.293 13.77 124.518 13.53C124.743 13.29 124.878 12.97 124.923 12.57V11.265H121.51C120.955 11.265 120.57 11.3725 120.355 11.5875C120.145 11.7975 120.04 12.1825 120.04 12.7425C120.04 13.2975 120.145 13.6825 120.355 13.8975C120.57 14.1075 120.955 14.2125 121.51 14.2125Z" fill="#EFEFF7"/>
<path d="M7.8 139C7.535 139 7.4025 138.867 7.4025 138.602L7.4025 128.987C7.4025 128.727 7.535 128.597 7.8 128.597C8.06 128.597 8.19 128.727 8.19 128.987V132.955C8.415 132.61 8.735 132.347 9.15 132.167C9.57 131.987 10.11 131.897 10.77 131.897H11.34C12.275 131.897 12.9575 132.115 13.3875 132.55C13.8225 132.985 14.04 133.67 14.04 134.605V136.292C14.04 137.227 13.8225 137.912 13.3875 138.347C12.9575 138.782 12.275 139 11.34 139H10.77C10.11 139 9.57 138.912 9.15 138.737C8.735 138.557 8.415 138.292 8.19 137.942V138.602C8.19 138.867 8.06 139 7.8 139ZM10.77 138.212H11.34C12.055 138.212 12.5525 138.072 12.8325 137.792C13.1125 137.507 13.2525 137.007 13.2525 136.292V134.605C13.2525 133.89 13.11 133.392 12.825 133.112C12.545 132.827 12.05 132.685 11.34 132.685H10.77C9.99 132.685 9.365 132.807 8.895 133.052C8.425 133.297 8.19 133.67 8.19 134.17V136.757C8.2 137.242 8.44 137.607 8.91 137.852C9.38 138.092 10 138.212 10.77 138.212Z" fill="#EFEFF7"/>
<path d="M9.9075 69C8.9725 69 8.2875 68.7825 7.8525 68.3475C7.4175 67.9125 7.2 67.2275 7.2 66.2925V64.6125C7.2 63.6775 7.4175 62.995 7.8525 62.565C8.2875 62.13 8.9725 61.9125 9.9075 61.9125H13.05V58.9875C13.05 58.7275 13.1825 58.5975 13.4475 58.5975C13.7075 58.5975 13.8375 58.7275 13.8375 58.9875V68.6025C13.8375 68.8675 13.7075 69 13.4475 69C13.1825 69 13.05 68.8675 13.05 68.6025V67.9575C12.835 68.3025 12.52 68.5625 12.105 68.7375C11.69 68.9125 11.1475 69 10.4775 69H9.9075ZM9.9075 68.2125H10.4775C11.2575 68.2125 11.88 68.09 12.345 67.845C12.815 67.595 13.05 67.2225 13.05 66.7275V62.7H9.9075C9.1925 62.7 8.6925 62.8425 8.4075 63.1275C8.1275 63.4075 7.9875 63.9025 7.9875 64.6125V66.2925C7.9875 67.0075 8.1275 67.5075 8.4075 67.7925C8.6925 68.0725 9.1925 68.2125 9.9075 68.2125Z" fill="#EFEFF7"/>
<path d="M100.8 100C100.535 100 100.403 99.8675 100.403 99.6025V89.9875C100.403 89.7275 100.535 89.5975 100.8 89.5975C101.06 89.5975 101.19 89.7275 101.19 89.9875V94.0225C101.665 93.2825 102.525 92.9125 103.77 92.9125H104.19C105.125 92.9125 105.808 93.13 106.238 93.565C106.673 93.995 106.89 94.6775 106.89 95.6125V99.6025C106.89 99.8675 106.76 100 106.5 100C106.235 100 106.103 99.8675 106.103 99.6025V95.6125C106.103 94.8975 105.96 94.4 105.675 94.12C105.395 93.84 104.9 93.7 104.19 93.7H103.77C102.995 93.7 102.385 93.8225 101.94 94.0675C101.495 94.3125 101.245 94.695 101.19 95.215V99.6025C101.19 99.8675 101.06 100 100.8 100Z" fill="#EFEFF7"/>
<path d="M152.927 83C152.663 83 152.53 82.8675 152.53 82.6025V76.7H151.9C151.635 76.7 151.503 76.5675 151.503 76.3025C151.503 76.0425 151.635 75.9125 151.9 75.9125H152.53V75.2525C152.53 74.3325 152.743 73.66 153.168 73.235C153.598 72.81 154.273 72.5975 155.193 72.5975C155.448 72.5975 155.575 72.7275 155.575 72.9875C155.575 73.2525 155.448 73.385 155.193 73.385C154.493 73.385 154.005 73.5225 153.73 73.7975C153.455 74.0675 153.318 74.5525 153.318 75.2525V75.9125H155.178C155.443 75.9125 155.575 76.0425 155.575 76.3025C155.575 76.5675 155.443 76.7 155.178 76.7H153.318V82.6025C153.318 82.8675 153.188 83 152.927 83Z" fill="#EFEFF7"/>
<path d="M124.34 64C123.836 64 123.461 63.877 123.215 63.631C122.969 63.385 122.846 63.01 122.846 62.506C122.846 62.002 122.968 61.627 123.211 61.381C123.457 61.135 123.833 61.012 124.34 61.012H126.244C126.226 60.697 126.143 60.4825 125.996 60.3685C125.849 60.2515 125.597 60.193 125.24 60.193H124.718C124.418 60.193 124.195 60.214 124.048 60.256C123.901 60.295 123.797 60.367 123.737 60.472C123.683 60.598 123.628 60.685 123.571 60.733C123.514 60.781 123.428 60.805 123.314 60.805C123.188 60.805 123.089 60.7705 123.017 60.7015C122.945 60.6295 122.924 60.535 122.954 60.418C123.044 60.079 123.232 59.8315 123.517 59.6755C123.805 59.5165 124.205 59.437 124.718 59.437H125.24C125.84 59.437 126.284 59.581 126.572 59.869C126.86 60.157 127.004 60.601 127.004 61.201V63.622C127.004 63.874 126.878 64 126.626 64C126.374 64 126.248 63.874 126.248 63.622V63.4195C125.927 63.8065 125.459 64 124.844 64H124.34ZM124.34 63.244H124.844C125.066 63.244 125.275 63.2245 125.47 63.1855C125.665 63.1435 125.831 63.0685 125.969 62.9605C126.11 62.8525 126.203 62.698 126.248 62.497V61.768H124.34C124.043 61.768 123.845 61.8175 123.746 61.9165C123.65 62.0155 123.602 62.212 123.602 62.506C123.602 62.803 123.65 63.001 123.746 63.1C123.845 63.196 124.043 63.244 124.34 63.244Z" fill="white"/>
<path d="M136.314 111C136.062 111 135.936 110.874 135.936 110.622V105.042C135.936 104.79 136.062 104.664 136.314 104.664C136.566 104.664 136.692 104.79 136.692 105.042V106.918C136.848 106.759 137.043 106.639 137.277 106.558C137.511 106.477 137.784 106.437 138.096 106.437H138.438C139.038 106.437 139.482 106.581 139.77 106.869C140.058 107.157 140.202 107.601 140.202 108.201V109.236C140.202 109.833 140.058 110.277 139.77 110.568C139.482 110.856 139.038 111 138.438 111H138.096C137.784 111 137.511 110.959 137.277 110.878C137.043 110.797 136.848 110.679 136.692 110.523V110.622C136.692 110.874 136.566 111 136.314 111ZM138.096 110.244H138.438C138.831 110.244 139.097 110.173 139.235 110.032C139.376 109.888 139.446 109.623 139.446 109.236V108.201C139.446 107.808 139.374 107.542 139.23 107.404C139.089 107.263 138.825 107.193 138.438 107.193H138.096C137.7 107.193 137.367 107.244 137.097 107.346C136.827 107.445 136.692 107.601 136.692 107.814V109.623C136.692 109.833 136.827 109.989 137.097 110.091C137.367 110.193 137.7 110.244 138.096 110.244Z" fill="white"/>
<path d="M71.484 113C70.887 113 70.443 112.856 70.152 112.568C69.864 112.277 69.72 111.833 69.72 111.236V110.192C69.72 109.592 69.8625 109.148 70.1475 108.86C70.4355 108.572 70.881 108.431 71.484 108.437H72.222C72.669 108.437 73.02 108.512 73.275 108.662C73.533 108.812 73.698 109.043 73.77 109.355C73.797 109.481 73.7745 109.578 73.7025 109.647C73.6335 109.716 73.533 109.751 73.401 109.751C73.284 109.751 73.1985 109.721 73.1445 109.661C73.0905 109.601 73.041 109.517 72.996 109.409C72.951 109.328 72.8685 109.272 72.7485 109.242C72.6285 109.209 72.453 109.193 72.222 109.193H71.484C71.097 109.187 70.8315 109.254 70.6875 109.395C70.5465 109.533 70.476 109.799 70.476 110.192V111.236C70.476 111.626 70.5465 111.891 70.6875 112.032C70.8315 112.173 71.097 112.244 71.484 112.244H72.222C72.453 112.244 72.6285 112.229 72.7485 112.199C72.8685 112.166 72.951 112.109 72.996 112.028C73.041 111.914 73.0905 111.828 73.1445 111.771C73.2015 111.714 73.29 111.686 73.41 111.686C73.536 111.686 73.6335 111.72 73.7025 111.789C73.7745 111.858 73.797 111.956 73.77 112.082C73.698 112.391 73.533 112.622 73.275 112.775C73.02 112.925 72.669 113 72.222 113H71.484Z" fill="white"/>
<path d="M82.484 65C81.887 65 81.443 64.856 81.152 64.568C80.864 64.277 80.72 63.833 80.72 63.236V62.201C80.72 61.601 80.864 61.157 81.152 60.869C81.443 60.581 81.887 60.437 82.484 60.437H84.23V59.042C84.23 58.79 84.356 58.664 84.608 58.664C84.86 58.664 84.986 58.79 84.986 59.042V64.622C84.986 64.874 84.86 65 84.608 65C84.356 65 84.23 64.874 84.23 64.622V64.559C84.089 64.703 83.9045 64.8125 83.6765 64.8875C83.4485 64.9625 83.165 65 82.826 65H82.484ZM82.484 64.244H82.826C83.222 64.244 83.555 64.193 83.825 64.091C84.095 63.989 84.23 63.833 84.23 63.623V61.193H82.484C82.094 61.193 81.8285 61.265 81.6875 61.409C81.5465 61.55 81.476 61.814 81.476 62.201V63.236C81.476 63.626 81.5465 63.8915 81.6875 64.0325C81.8315 64.1735 82.097 64.244 82.484 64.244Z" fill="white"/>
<path d="M43.314 113C43.062 113 42.936 112.874 42.936 112.622V107.042C42.936 106.79 43.062 106.664 43.314 106.664C43.566 106.664 43.692 106.79 43.692 107.042V110.421L45.834 108.581C46.026 108.416 46.203 108.428 46.365 108.617C46.53 108.809 46.518 108.986 46.329 109.148L44.6865 110.565L46.257 112.352C46.425 112.547 46.416 112.724 46.23 112.883C46.038 113.048 45.858 113.036 45.69 112.847L44.1105 111.065L43.692 111.425V112.622C43.692 112.874 43.566 113 43.314 113Z" fill="white"/>
<path d="M156.899 119C152.672 121.983 152.459 123.928 154.009 127.997" stroke="#ADABD2" stroke-width="2"/>
<path d="M156 114C147.256 119.017 146.426 121.736 148.513 126.994" stroke="#ADABD2" stroke-width="2"/>
<path d="M72.5 50.5L93 31L127 41" stroke="#EFEFF7" stroke-linejoin="round" stroke-dasharray="4 4"/>
<path d="M153 110C142.617 116.073 141.671 119.432 144.262 125.992" stroke="#ADABD2" stroke-width="2"/>
<path d="M62.9082 140.704C61.1538 135.837 59.8344 135.086 55.5 135.5" stroke="#ADABD2" stroke-width="2"/>
<path d="M66.542 138.36C64.0257 128.598 62.6229 127.383 57 128" stroke="#ADABD2" stroke-width="2"/>
<path d="M71.1016 134.533C68.002 122.911 65.5123 120.743 58.5 121.5" stroke="#ADABD2" stroke-width="2"/>
<path d="M75.1016 130.533C72.002 118.911 66.5123 115.743 59.5 116.5" stroke="#ADABD2" stroke-width="2"/>
<path d="M8.38086 115.554C11.3918 111.347 11.1824 109.333 8.38086 106" stroke="#ADABD2" stroke-width="2"/>
<path d="M12.5 118C19.1083 110.387 18 108 15.5 103" stroke="#ADABD2" stroke-width="2"/>
<path d="M17 121.5C24.8083 112.351 28.1035 105.843 23.5 100.5" stroke="#ADABD2" stroke-width="2"/>
<path d="M22 125.5C29.8083 116.351 35.6035 102.843 31 97.5" stroke="#ADABD2" stroke-width="2"/>
<path d="M27 129.5C34.8083 120.351 43 100.5 39 94.5" stroke="#ADABD2" stroke-width="2"/>
<path d="M72.5 50L53 149.5L0.5 109" stroke="#EFEFF7" stroke-linejoin="round"/>
<path d="M1 108.5L93.5 75L185 108.5" stroke="#EFEFF7" stroke-linejoin="round" stroke-dasharray="4 4"/>
</svg>
