<svg width="138" height="164" viewBox="0 0 138 164" fill="none" xmlns="http://www.w3.org/2000/svg">
<path d="M69 116.5V16L48.5 28L23.5 146.5L69 116.5Z" stroke="#ADABD2" stroke-width="2" stroke-linejoin="round"/>
<path d="M96.5 16L135.5 108" stroke="#EFEFF7"/>
<path d="M41.5 16L2.5 108" stroke="#EFEFF7"/>
<path d="M137.5 117.5C137.5 128.434 129.946 138.423 117.537 145.707C105.14 152.983 87.9807 157.5 69 157.5C50.0193 157.5 32.8599 152.983 20.4627 145.707C8.05379 138.423 0.5 128.434 0.5 117.5C0.5 106.566 8.05379 96.5769 20.4627 89.2934C32.8599 82.0168 50.0193 77.5 69 77.5C87.9807 77.5 105.14 82.0168 117.537 89.2934C129.946 96.5769 137.5 106.566 137.5 117.5Z" stroke="#EFEFF7"/>
<path d="M96.5 17C96.5 21.4527 93.5251 25.5664 88.5395 28.5934C83.5629 31.6149 76.6559 33.5 69 33.5C61.3441 33.5 54.4371 31.6149 49.4605 28.5934C44.4749 25.5664 41.5 21.4527 41.5 17C41.5 12.5473 44.4749 8.43357 49.4605 5.40658C54.4371 2.38509 61.3441 0.5 69 0.5C76.6559 0.5 83.5629 2.38509 88.5395 5.40658C93.5251 8.43357 96.5 12.5473 96.5 17Z" stroke="#EFEFF7"/>
<path d="M34.9336 139.441C34.1817 133.823 32.3677 132.615 27.5331 132.01" stroke="#ADABD2" stroke-width="2"/>
<path d="M48 32.375C53.5845 31.4075 54.0823 29.3542 54.5 24.5" stroke="#ADABD2" stroke-width="2"/>
<path d="M47 36.4961C56.5074 34.849 56.7889 30.7642 57.5 22.5" stroke="#ADABD2" stroke-width="2"/>
<path d="M75.8 68C75.535 68 75.4025 67.8675 75.4025 67.6025V57.9875C75.4025 57.7275 75.535 57.5975 75.8 57.5975C76.06 57.5975 76.19 57.7275 76.19 57.9875V62.0225C76.665 61.2825 77.525 60.9125 78.77 60.9125H79.19C80.125 60.9125 80.8075 61.13 81.2375 61.565C81.6725 61.995 81.89 62.6775 81.89 63.6125V67.6025C81.89 67.8675 81.76 68 81.5 68C81.235 68 81.1025 67.8675 81.1025 67.6025V63.6125C81.1025 62.8975 80.96 62.4 80.675 62.12C80.395 61.84 79.9 61.7 79.19 61.7H78.77C77.995 61.7 77.385 61.8225 76.94 62.0675C76.495 62.3125 76.245 62.695 76.19 63.215V67.6025C76.19 67.8675 76.06 68 75.8 68Z" fill="#EFEFF7"/>
<path d="M53.8 18C53.535 18 53.4025 17.8675 53.4025 17.6025V11.3025C53.4025 11.0425 53.535 10.9125 53.8 10.9125C54.06 10.9125 54.19 11.0425 54.19 11.3025V12.4575C54.45 11.9575 54.825 11.575 55.315 11.31C55.81 11.045 56.395 10.9125 57.07 10.9125C57.335 10.9125 57.4675 11.0425 57.4675 11.3025C57.4675 11.5675 57.335 11.7 57.07 11.7C56.18 11.7 55.49 11.9025 55 12.3075C54.51 12.7075 54.24 13.28 54.19 14.025V17.6025C54.19 17.8675 54.06 18 53.8 18Z" fill="#EFEFF7"/>
<path d="M64.9425 144.015C64.8325 144.08 64.7325 144.103 64.6425 144.083C64.5525 144.063 64.4725 144 64.4025 143.895L61.9425 139.98H59.19V143.602C59.19 143.867 59.06 144 58.8 144C58.535 144 58.4025 143.867 58.4025 143.602V134.73C58.4025 134.465 58.535 134.332 58.8 134.332H62.31C63.165 134.332 63.81 134.552 64.245 134.992C64.685 135.432 64.905 136.08 64.905 136.935V137.385C64.905 138.14 64.7325 138.732 64.3875 139.162C64.0425 139.592 63.5325 139.855 62.8575 139.95L65.07 143.475C65.21 143.705 65.1675 143.885 64.9425 144.015ZM59.19 139.192H62.31C62.94 139.192 63.3975 139.05 63.6825 138.765C63.9725 138.475 64.1175 138.015 64.1175 137.385V136.935C64.1175 136.3 63.9725 135.84 63.6825 135.555C63.3975 135.265 62.94 135.12 62.31 135.12H59.19V139.192Z" fill="#EFEFF7"/>
<path d="M22.465 108C21.755 108 21.2325 107.835 20.8975 107.505C20.5675 107.175 20.4025 106.657 20.4025 105.952V97.9875C20.4025 97.7275 20.535 97.5975 20.8 97.5975C21.06 97.5975 21.19 97.7275 21.19 97.9875V105.952C21.19 106.437 21.28 106.77 21.46 106.95C21.64 107.125 21.9725 107.212 22.4575 107.212C22.7275 107.212 22.8625 107.342 22.8625 107.602C22.8675 107.867 22.735 108 22.465 108Z" fill="#EFEFF7"/>
<path d="M57.34 46C56.836 46 56.461 45.877 56.215 45.631C55.969 45.385 55.846 45.01 55.846 44.506C55.846 44.002 55.9675 43.627 56.2105 43.381C56.4565 43.135 56.833 43.012 57.34 43.012H59.2435C59.2255 42.697 59.143 42.4825 58.996 42.3685C58.849 42.2515 58.597 42.193 58.24 42.193H57.718C57.418 42.193 57.1945 42.214 57.0475 42.256C56.9005 42.295 56.797 42.367 56.737 42.472C56.683 42.598 56.6275 42.685 56.5705 42.733C56.5135 42.781 56.428 42.805 56.314 42.805C56.188 42.805 56.089 42.7705 56.017 42.7015C55.945 42.6295 55.924 42.535 55.954 42.418C56.044 42.079 56.2315 41.8315 56.5165 41.6755C56.8045 41.5165 57.205 41.437 57.718 41.437H58.24C58.84 41.437 59.284 41.581 59.572 41.869C59.86 42.157 60.004 42.601 60.004 43.201V45.622C60.004 45.874 59.878 46 59.626 46C59.374 46 59.248 45.874 59.248 45.622V45.4195C58.927 45.8065 58.459 46 57.844 46H57.34ZM57.34 45.244H57.844C58.066 45.244 58.2745 45.2245 58.4695 45.1855C58.6645 45.1435 58.831 45.0685 58.969 44.9605C59.11 44.8525 59.203 44.698 59.248 44.497V43.768H57.34C57.043 43.768 56.845 43.8175 56.746 43.9165C56.65 44.0155 56.602 44.212 56.602 44.506C56.602 44.803 56.65 45.001 56.746 45.1C56.845 45.196 57.043 45.244 57.34 45.244Z" fill="white"/>
<path d="M38.314 121C38.062 121 37.936 120.874 37.936 120.622V115.042C37.936 114.79 38.062 114.664 38.314 114.664C38.566 114.664 38.692 114.79 38.692 115.042V116.918C38.848 116.759 39.043 116.639 39.277 116.558C39.511 116.477 39.784 116.437 40.096 116.437H40.438C41.038 116.437 41.482 116.581 41.77 116.869C42.058 117.157 42.202 117.601 42.202 118.201V119.236C42.202 119.833 42.058 120.277 41.77 120.568C41.482 120.856 41.038 121 40.438 121H40.096C39.784 121 39.511 120.959 39.277 120.878C39.043 120.797 38.848 120.679 38.692 120.523V120.622C38.692 120.874 38.566 121 38.314 121ZM40.096 120.244H40.438C40.831 120.244 41.0965 120.173 41.2345 120.032C41.3755 119.888 41.446 119.623 41.446 119.236V118.201C41.446 117.808 41.374 117.542 41.23 117.404C41.089 117.263 40.825 117.193 40.438 117.193H40.096C39.7 117.193 39.367 117.244 39.097 117.346C38.827 117.445 38.692 117.601 38.692 117.814V119.623C38.692 119.833 38.827 119.989 39.097 120.091C39.367 120.193 39.7 120.244 40.096 120.244Z" fill="white"/>
</svg>
