<!-- icon666.com - MILLIONS vector ICONS FREE --><svg version="1.1" id="Capa_1" xmlns="http://www.w3.org/2000/svg" xmlns:xlink="http://www.w3.org/1999/xlink" x="0px" y="0px" viewBox="0 0 472.615 472.615" style="enable-background:new 0 0 472.615 472.615;" xml:space="preserve"><g><g><path d="M462.769,112.271h-28.124V91.108c0-3.944-2.353-7.507-5.981-9.056c-59.396-25.355-132.473-14.609-192.357,27.865 C176.424,67.443,103.345,56.7,43.951,82.052c-3.628,1.549-5.981,5.112-5.981,9.056v21.163H9.846c-5.437,0-9.846,4.408-9.846,9.846 v272.151c0,5.438,4.409,9.846,9.846,9.846h226.462h226.461c5.438,0,9.846-4.409,9.846-9.846V122.118 C472.615,116.68,468.207,112.271,462.769,112.271z M19.692,384.422V131.964H37.97v231.295c0,3.308,1.661,6.393,4.42,8.216 c2.76,1.822,6.249,2.136,9.291,0.839c46.12-19.688,101.816-14.764,151.25,12.108H19.692z M226.462,375.442 c-35.936-22.9-75.911-34.79-114.498-34.79c-18.629,0-36.932,2.771-54.301,8.413V122.232c0-0.039,0.006-0.076,0.006-0.114 s-0.005-0.076-0.006-0.114V97.768c52.517-19.684,116.197-8.676,168.799,29.315V375.442z M246.154,127.083 c52.601-37.992,116.285-48.999,168.799-29.315v24.235c0,0.038-0.006,0.076-0.006,0.114s0.005,0.076,0.006,0.114v226.832 c-53.348-17.329-115.515-7.576-168.799,26.378V127.083z M452.923,384.422h-183.24c49.435-26.872,105.13-31.795,151.251-12.108 c3.042,1.3,6.534,0.984,9.291-0.839c2.76-1.823,4.42-4.909,4.42-8.216V131.964h18.278V384.422z"></path></g></g></svg>